solid Chess Board
facet normal -0.832050294337844 0.554700196225229 0.0
outer loop
vertex -18.8515625 -224.430891697712 3.175
vertex -22.0265625 -229.193391697712 0.0
vertex -22.0265625 -229.193391697712 3.175
endloop
endfacet
facet normal -0.832050294337844 0.554700196225229 0.0
outer loop
vertex -22.0265625 -229.193391697712 0.0
vertex -18.8515625 -224.430891697712 3.175
vertex -18.8515625 -224.430891697712 0.0
endloop
endfacet
facet normal 0.554700196225229 -0.832050294337844 0.0
outer loop
vertex -96.8374999999999 -197.244954197712 3.175
vertex -101.6 -200.419954197712 0.0
vertex -96.8374999999999 -197.244954197712 0.0
endloop
endfacet
facet normal 0.554700196225229 -0.832050294337844 0.0
outer loop
vertex -101.6 -200.419954197712 0.0
vertex -96.8374999999999 -197.244954197712 3.175
vertex -101.6 -200.419954197712 3.175
endloop
endfacet
facet normal -0.832050294337844 -0.554700196225229 0.0
outer loop
vertex -72.8265624999999 -127.593391697712 3.175
vertex -69.6515624999999 -132.355891697712 0.0
vertex -69.6515624999999 -132.355891697712 3.175
endloop
endfacet
facet normal -0.832050294337844 -0.554700196225229 0.0
outer loop
vertex -69.6515624999999 -132.355891697712 0.0
vertex -72.8265624999999 -127.593391697712 3.175
vertex -72.8265624999999 -127.593391697712 0.0
endloop
endfacet
facet normal 0.832050294337844 -0.554700196225229 -0.0
outer loop
vertex -79.5734374999999 -127.593391697712 0.0
vertex -82.7484374999999 -132.355891697712 3.175
vertex -82.7484374999999 -132.355891697712 0.0
endloop
endfacet
facet normal 0.832050294337844 -0.554700196225229 -0.0
outer loop
vertex -82.7484374999999 -132.355891697712 3.175
vertex -79.5734374999999 -127.593391697712 0.0
vertex -79.5734374999999 -127.593391697712 3.175
endloop
endfacet
facet normal 0.832050294337844 0.554700196225229 -0.0
outer loop
vertex -31.9484375 -224.430891697712 0.0
vertex -28.7734375 -229.193391697712 3.175
vertex -28.7734375 -229.193391697712 0.0
endloop
endfacet
facet normal 0.832050294337844 0.554700196225229 -0.0
outer loop
vertex -28.7734375 -229.193391697712 3.175
vertex -31.9484375 -224.430891697712 0.0
vertex -31.9484375 -224.430891697712 3.175
endloop
endfacet
facet normal 0.0 -1.0 0.0
outer loop
vertex -18.8515625 -224.430891697712 3.175
vertex -31.9484375 -224.430891697712 0.0
vertex -18.8515625 -224.430891697712 0.0
endloop
endfacet
facet normal 0.0 -1.0 0.0
outer loop
vertex -31.9484375 -224.430891697712 0.0
vertex -18.8515625 -224.430891697712 3.175
vertex -31.9484375 -224.430891697712 3.175
endloop
endfacet
facet normal -1.0 0.0 0.0
outer loop
vertex -96.8374999999999 -197.244954197712 3.175
vertex -96.8374999999999 -210.341829197712 0.0
vertex -96.8374999999999 -210.341829197712 3.175
endloop
endfacet
facet normal -1.0 0.0 0.0
outer loop
vertex -96.8374999999999 -210.341829197712 0.0
vertex -96.8374999999999 -197.244954197712 3.175
vertex -96.8374999999999 -197.244954197712 0.0
endloop
endfacet
facet normal 0.554700196225229 0.832050294337844 -0.0
outer loop
vertex -101.6 -207.166829197712 3.175
vertex -96.8374999999999 -210.341829197712 0.0
vertex -101.6 -207.166829197712 0.0
endloop
endfacet
facet normal 0.554700196225229 0.832050294337844 -0.0
outer loop
vertex -96.8374999999999 -210.341829197712 0.0
vertex -101.6 -207.166829197712 3.175
vertex -96.8374999999999 -210.341829197712 3.175
endloop
endfacet
facet normal -0.0 1.0 -0.0
outer loop
vertex -82.7484374999999 -132.355891697712 3.175
vertex -69.6515624999999 -132.355891697712 0.0
vertex -82.7484374999999 -132.355891697712 0.0
endloop
endfacet
facet normal -0.0 1.0 -0.0
outer loop
vertex -69.6515624999999 -132.355891697712 0.0
vertex -82.7484374999999 -132.355891697712 3.175
vertex -69.6515624999999 -132.355891697712 3.175
endloop
endfacet
facet normal 0.0 0.0 -1.0
outer loop
vertex -101.6 -200.419954197712 0.0
vertex -98.4249999999999 -194.903391697712 0.0
vertex -96.8374999999999 -197.244954197712 0.0
endloop
endfacet
facet normal 0.0 0.0 -1.0
outer loop
vertex -98.4249999999999 -194.903391697712 0.0
vertex -101.6 -200.419954197712 0.0
vertex -98.4249999999999 -170.455891697712 0.0
endloop
endfacet
facet normal 0.0 0.0 -1.0
outer loop
vertex -98.4249999999999 -194.903391697712 0.0
vertex -98.4249999999999 -170.455891697712 0.0
vertex -98.4249999999999 -186.330891697712 0.0
endloop
endfacet
facet normal 0.0 0.0 -1.0
outer loop
vertex -96.8374999999999 -197.244954197712 0.0
vertex -98.4249999999999 -194.903391697712 0.0
vertex -93.6624999999999 -191.093391697712 0.0
endloop
endfacet
facet normal 0.0 0.0 -1.0
outer loop
vertex -96.8374999999999 -197.244954197712 0.0
vertex -93.6624999999999 -191.093391697712 0.0
vertex -96.8374999999999 -210.341829197712 0.0
endloop
endfacet
facet normal 0.0 0.0 -1.0
outer loop
vertex -101.6 -207.166829197712 0.0
vertex -98.4249999999999 -212.683391697712 0.0
vertex -101.6 -229.193391697712 0.0
endloop
endfacet
facet normal 0.0 0.0 -1.0
outer loop
vertex -98.4249999999999 -212.683391697712 0.0
vertex -101.6 -207.166829197712 0.0
vertex -96.8374999999999 -210.341829197712 0.0
endloop
endfacet
facet normal 0.0 0.0 -1.0
outer loop
vertex -98.4249999999999 -212.683391697712 0.0
vertex -96.8374999999999 -210.341829197712 0.0
vertex -93.6624999999999 -216.493391697712 0.0
endloop
endfacet
facet normal 0.0 0.0 -1.0
outer loop
vertex -93.6624999999999 -216.493391697712 0.0
vertex -96.8374999999999 -210.341829197712 0.0
vertex -93.6624999999999 -191.093391697712 0.0
endloop
endfacet
facet normal 0.0 0.0 -1.0
outer loop
vertex -101.6 -127.593391697712 0.0
vertex -98.4249999999999 -135.530891697712 0.0
vertex -101.6 -150.016829197712 0.0
endloop
endfacet
facet normal 0.0 0.0 -1.0
outer loop
vertex -98.4249999999999 -135.530891697712 0.0
vertex -101.6 -127.593391697712 0.0
vertex -93.6624999999999 -130.768391697712 0.0
endloop
endfacet
facet normal 0.0 0.0 -1.0
outer loop
vertex -93.6624999999999 -130.768391697712 0.0
vertex -101.6 -127.593391697712 0.0
vertex -79.5734374999999 -127.593391697712 0.0
endloop
endfacet
facet normal 0.0 0.0 -1.0
outer loop
vertex -101.6 -150.016829197712 0.0
vertex -98.4249999999999 -135.530891697712 0.0
vertex -101.6 -155.969954197712 0.0
endloop
endfacet
facet normal 0.0 0.0 -1.0
outer loop
vertex -101.6 -155.969954197712 0.0
vertex -98.4249999999999 -135.530891697712 0.0
vertex -101.6 -200.419954197712 0.0
endloop
endfacet
facet normal 0.0 0.0 -1.0
outer loop
vertex -101.6 -200.419954197712 0.0
vertex -98.4249999999999 -135.530891697712 0.0
vertex -98.4249999999999 -170.455891697712 0.0
endloop
endfacet
facet normal 0.0 0.0 -1.0
outer loop
vertex -93.6624999999999 -130.768391697712 0.0
vertex -79.5734374999999 -127.593391697712 0.0
vertex -85.0899999999999 -130.768391697712 0.0
endloop
endfacet
facet normal 0.0 0.0 -1.0
outer loop
vertex -85.0899999999999 -130.768391697712 0.0
vertex -79.5734374999999 -127.593391697712 0.0
vertex -82.7484374999999 -132.355891697712 0.0
endloop
endfacet
facet normal 0.0 0.0 -1.0
outer loop
vertex -88.8999999999999 -135.530891697712 0.0
vertex -82.7484374999999 -132.355891697712 0.0
vertex -63.4999999999999 -135.530891697712 0.0
endloop
endfacet
facet normal 0.0 0.0 -1.0
outer loop
vertex -82.7484374999999 -132.355891697712 0.0
vertex -88.8999999999999 -135.530891697712 0.0
vertex -85.0899999999999 -130.768391697712 0.0
endloop
endfacet
facet normal 0.0 0.0 -1.0
outer loop
vertex -63.4999999999999 -135.530891697712 0.0
vertex -82.7484374999999 -132.355891697712 0.0
vertex -69.6515624999999 -132.355891697712 0.0
endloop
endfacet
facet normal 0.0 0.0 -1.0
outer loop
vertex -63.4999999999999 -135.530891697712 0.0
vertex -69.6515624999999 -132.355891697712 0.0
vertex -67.3099999999999 -130.768391697712 0.0
endloop
endfacet
facet normal 0.0 0.0 -1.0
outer loop
vertex -79.1765624999999 -229.193391697712 0.0
vertex -70.0484374999999 -233.955891697712 0.0
vertex -82.3515624999999 -233.955891697712 0.0
endloop
endfacet
facet normal 0.0 0.0 -1.0
outer loop
vertex -70.0484374999999 -233.955891697712 0.0
vertex -79.1765624999999 -229.193391697712 0.0
vertex -73.2234374999999 -229.193391697712 0.0
endloop
endfacet
facet normal 0.0 0.0 -1.0
outer loop
vertex -19.2484375 -122.830891697712 0.0
vertex -28.3765625 -127.593391697712 0.0
vertex -31.5515625 -122.830891697712 0.0
endloop
endfacet
facet normal 0.0 0.0 -1.0
outer loop
vertex -28.3765625 -127.593391697712 0.0
vertex -19.2484375 -122.830891697712 0.0
vertex -22.4234375 -127.593391697712 0.0
endloop
endfacet
facet normal 0.0 0.0 -1.0
outer loop
vertex -38.1 -221.255891697712 0.0
vertex -31.9484375 -224.430891697712 0.0
vertex -34.29 -226.018391697712 0.0
endloop
endfacet
facet normal 0.0 0.0 -1.0
outer loop
vertex -31.9484375 -224.430891697712 0.0
vertex -38.1 -221.255891697712 0.0
vertex -12.7 -221.255891697712 0.0
endloop
endfacet
facet normal 0.0 0.0 -1.0
outer loop
vertex -31.9484375 -224.430891697712 0.0
vertex -12.7 -221.255891697712 0.0
vertex -18.8515625 -224.430891697712 0.0
endloop
endfacet
facet normal 0.0 0.0 -1.0
outer loop
vertex -18.8515625 -224.430891697712 0.0
vertex -12.7 -221.255891697712 0.0
vertex -16.51 -226.018391697712 0.0
endloop
endfacet
facet normal 0.0 0.0 -1.0
outer loop
vertex -72.8265624999999 -127.593391697712 0.0
vertex -67.3099999999999 -130.768391697712 0.0
vertex -69.6515624999999 -132.355891697712 0.0
endloop
endfacet
facet normal 0.0 0.0 -1.0
outer loop
vertex -67.3099999999999 -130.768391697712 0.0
vertex -72.8265624999999 -127.593391697712 0.0
vertex -28.3765625 -127.593391697712 0.0
endloop
endfacet
facet normal 0.0 0.0 -1.0
outer loop
vertex -67.3099999999999 -130.768391697712 0.0
vertex -28.3765625 -127.593391697712 0.0
vertex -58.7375 -130.768391697712 0.0
endloop
endfacet
facet normal 0.0 0.0 -1.0
outer loop
vertex -58.7375 -130.768391697712 0.0
vertex -28.3765625 -127.593391697712 0.0
vertex -42.8625 -130.768391697712 0.0
endloop
endfacet
facet normal 0.0 0.0 -1.0
outer loop
vertex -58.7375 -130.768391697712 0.0
vertex -42.8625 -130.768391697712 0.0
vertex -53.975 -135.530891697712 0.0
endloop
endfacet
facet normal 0.0 0.0 -1.0
outer loop
vertex -53.975 -135.530891697712 0.0
vertex -42.8625 -130.768391697712 0.0
vertex -47.625 -135.530891697712 0.0
endloop
endfacet
facet normal 0.0 0.0 -1.0
outer loop
vertex -53.975 -135.530891697712 0.0
vertex -47.625 -135.530891697712 0.0
vertex -53.975 -178.393391697712 0.0
endloop
endfacet
facet normal 0.0 0.0 -1.0
outer loop
vertex -53.975 -178.393391697712 0.0
vertex -47.625 -135.530891697712 0.0
vertex -50.8 -175.218391697712 0.0
endloop
endfacet
facet normal 0.0 0.0 -1.0
outer loop
vertex -42.8625 -130.768391697712 0.0
vertex -28.3765625 -127.593391697712 0.0
vertex -7.9375 -130.768391697712 0.0
endloop
endfacet
facet normal 0.0 0.0 -1.0
outer loop
vertex -7.9375 -130.768391697712 0.0
vertex -28.3765625 -127.593391697712 0.0
vertex -22.4234375 -127.593391697712 0.0
endloop
endfacet
facet normal 0.0 0.0 -1.0
outer loop
vertex -7.9375 -130.768391697712 0.0
vertex -22.4234375 -127.593391697712 0.0
vertex 11.1125 -127.593391697712 0.0
endloop
endfacet
facet normal 0.0 0.0 -1.0
outer loop
vertex -7.9375 -130.768391697712 0.0
vertex 11.1125 -127.593391697712 0.0
vertex -3.175 -135.530891697712 0.0
endloop
endfacet
facet normal 0.0 0.0 -1.0
outer loop
vertex -3.175 -135.530891697712 0.0
vertex 11.1125 -127.593391697712 0.0
vertex -3.175 -186.330891697712 0.0
endloop
endfacet
facet normal 0.0 0.0 -1.0
outer loop
vertex -3.175 -186.330891697712 0.0
vertex 11.1125 -127.593391697712 0.0
vertex -3.175 -221.255891697712 0.0
endloop
endfacet
facet normal 0.0 0.0 -1.0
outer loop
vertex -22.0265625 -229.193391697712 0.0
vertex -16.51 -226.018391697712 0.0
vertex 11.1125 -229.193391697712 0.0
endloop
endfacet
facet normal 0.0 0.0 -1.0
outer loop
vertex -16.51 -226.018391697712 0.0
vertex -22.0265625 -229.193391697712 0.0
vertex -18.8515625 -224.430891697712 0.0
endloop
endfacet
facet normal 0.0 0.0 -1.0
outer loop
vertex 11.1125 -229.193391697712 0.0
vertex -16.51 -226.018391697712 0.0
vertex -7.9375 -226.018391697712 0.0
endloop
endfacet
facet normal 0.0 0.0 -1.0
outer loop
vertex 11.1125 -229.193391697712 0.0
vertex -7.9375 -226.018391697712 0.0
vertex -3.175 -221.255891697712 0.0
endloop
endfacet
facet normal 0.0 0.0 -1.0
outer loop
vertex 11.1125 -229.193391697712 0.0
vertex -3.175 -221.255891697712 0.0
vertex 11.1125 -127.593391697712 0.0
endloop
endfacet
facet normal 0.0 0.0 -1.0
outer loop
vertex -50.8 -175.218391697712 0.0
vertex -47.625 -170.455891697712 0.0
vertex -47.625 -178.393391697712 0.0
endloop
endfacet
facet normal 0.0 0.0 -1.0
outer loop
vertex -47.625 -170.455891697712 0.0
vertex -50.8 -175.218391697712 0.0
vertex -47.625 -135.530891697712 0.0
endloop
endfacet
facet normal 0.0 0.0 -1.0
outer loop
vertex -47.625 -178.393391697712 0.0
vertex -47.625 -170.455891697712 0.0
vertex -42.8625 -175.218391697712 0.0
endloop
endfacet
facet normal 0.0 0.0 -1.0
outer loop
vertex -47.625 -178.393391697712 0.0
vertex -42.8625 -175.218391697712 0.0
vertex -47.625 -186.330891697712 0.0
endloop
endfacet
facet normal 0.0 0.0 -1.0
outer loop
vertex -47.625 -186.330891697712 0.0
vertex -42.8625 -175.218391697712 0.0
vertex -42.8625 -181.568391697712 0.0
endloop
endfacet
facet normal 0.0 0.0 -1.0
outer loop
vertex -42.8625 -181.568391697712 0.0
vertex -42.8625 -175.218391697712 0.0
vertex -7.9375 -175.218391697712 0.0
endloop
endfacet
facet normal 0.0 0.0 -1.0
outer loop
vertex -42.8625 -181.568391697712 0.0
vertex -7.9375 -175.218391697712 0.0
vertex -7.9375 -181.568391697712 0.0
endloop
endfacet
facet normal 0.0 0.0 -1.0
outer loop
vertex -7.9375 -181.568391697712 0.0
vertex -7.9375 -175.218391697712 0.0
vertex -3.175 -170.455891697712 0.0
endloop
endfacet
facet normal 0.0 0.0 -1.0
outer loop
vertex -7.9375 -181.568391697712 0.0
vertex -3.175 -170.455891697712 0.0
vertex -3.175 -186.330891697712 0.0
endloop
endfacet
facet normal 0.0 0.0 -1.0
outer loop
vertex -3.175 -186.330891697712 0.0
vertex -3.175 -170.455891697712 0.0
vertex -3.175 -135.530891697712 0.0
endloop
endfacet
facet normal 0.0 0.0 -1.0
outer loop
vertex -101.6 -229.193391697712 0.0
vertex -93.6624999999999 -226.018391697712 0.0
vertex -79.1765624999999 -229.193391697712 0.0
endloop
endfacet
facet normal 0.0 0.0 -1.0
outer loop
vertex -93.6624999999999 -226.018391697712 0.0
vertex -101.6 -229.193391697712 0.0
vertex -98.4249999999999 -221.255891697712 0.0
endloop
endfacet
facet normal 0.0 0.0 -1.0
outer loop
vertex -98.4249999999999 -221.255891697712 0.0
vertex -101.6 -229.193391697712 0.0
vertex -98.4249999999999 -212.683391697712 0.0
endloop
endfacet
facet normal 0.0 0.0 -1.0
outer loop
vertex -79.1765624999999 -229.193391697712 0.0
vertex -93.6624999999999 -226.018391697712 0.0
vertex -58.7375 -226.018391697712 0.0
endloop
endfacet
facet normal 0.0 0.0 -1.0
outer loop
vertex -79.1765624999999 -229.193391697712 0.0
vertex -58.7375 -226.018391697712 0.0
vertex -73.2234374999999 -229.193391697712 0.0
endloop
endfacet
facet normal 0.0 0.0 -1.0
outer loop
vertex -73.2234374999999 -229.193391697712 0.0
vertex -58.7375 -226.018391697712 0.0
vertex -28.7734375 -229.193391697712 0.0
endloop
endfacet
facet normal 0.0 0.0 -1.0
outer loop
vertex -28.7734375 -229.193391697712 0.0
vertex -58.7375 -226.018391697712 0.0
vertex -42.8625 -226.018391697712 0.0
endloop
endfacet
facet normal 0.0 0.0 -1.0
outer loop
vertex -42.8625 -226.018391697712 0.0
vertex -58.7375 -226.018391697712 0.0
vertex -53.975 -221.255891697712 0.0
endloop
endfacet
facet normal 0.0 0.0 -1.0
outer loop
vertex -42.8625 -226.018391697712 0.0
vertex -53.975 -221.255891697712 0.0
vertex -47.625 -221.255891697712 0.0
endloop
endfacet
facet normal 0.0 0.0 -1.0
outer loop
vertex -47.625 -221.255891697712 0.0
vertex -53.975 -221.255891697712 0.0
vertex -50.8 -181.568391697712 0.0
endloop
endfacet
facet normal 0.0 0.0 -1.0
outer loop
vertex -47.625 -221.255891697712 0.0
vertex -50.8 -181.568391697712 0.0
vertex -47.625 -186.330891697712 0.0
endloop
endfacet
facet normal 0.0 0.0 -1.0
outer loop
vertex -47.625 -186.330891697712 0.0
vertex -50.8 -181.568391697712 0.0
vertex -47.625 -178.393391697712 0.0
endloop
endfacet
facet normal 0.0 0.0 -1.0
outer loop
vertex -28.7734375 -229.193391697712 0.0
vertex -42.8625 -226.018391697712 0.0
vertex -34.29 -226.018391697712 0.0
endloop
endfacet
facet normal 0.0 0.0 -1.0
outer loop
vertex -28.7734375 -229.193391697712 0.0
vertex -34.29 -226.018391697712 0.0
vertex -31.9484375 -224.430891697712 0.0
endloop
endfacet
facet normal 0.0 0.0 -1.0
outer loop
vertex -93.6624999999999 -175.218391697712 0.0
vertex -98.4249999999999 -186.330891697712 0.0
vertex -98.4249999999999 -170.455891697712 0.0
endloop
endfacet
facet normal 0.0 0.0 -1.0
outer loop
vertex -98.4249999999999 -186.330891697712 0.0
vertex -93.6624999999999 -175.218391697712 0.0
vertex -93.6624999999999 -181.568391697712 0.0
endloop
endfacet
facet normal 0.0 0.0 -1.0
outer loop
vertex -93.6624999999999 -181.568391697712 0.0
vertex -93.6624999999999 -175.218391697712 0.0
vertex -58.7375 -175.218391697712 0.0
endloop
endfacet
facet normal 0.0 0.0 -1.0
outer loop
vertex -93.6624999999999 -181.568391697712 0.0
vertex -58.7375 -175.218391697712 0.0
vertex -58.7375 -181.568391697712 0.0
endloop
endfacet
facet normal 0.0 0.0 -1.0
outer loop
vertex -58.7375 -181.568391697712 0.0
vertex -58.7375 -175.218391697712 0.0
vertex -53.975 -170.455891697712 0.0
endloop
endfacet
facet normal 0.0 0.0 -1.0
outer loop
vertex -58.7375 -181.568391697712 0.0
vertex -53.975 -170.455891697712 0.0
vertex -53.975 -186.330891697712 0.0
endloop
endfacet
facet normal 0.0 0.0 -1.0
outer loop
vertex -53.975 -186.330891697712 0.0
vertex -53.975 -170.455891697712 0.0
vertex -53.975 -135.530891697712 0.0
endloop
endfacet
facet normal 0.0 0.0 -1.0
outer loop
vertex -53.975 -186.330891697712 0.0
vertex -53.975 -135.530891697712 0.0
vertex -53.975 -178.393391697712 0.0
endloop
endfacet
facet normal 0.0 0.0 -1.0
outer loop
vertex -53.975 -186.330891697712 0.0
vertex -53.975 -178.393391697712 0.0
vertex -50.8 -181.568391697712 0.0
endloop
endfacet
facet normal 0.0 0.0 -1.0
outer loop
vertex -53.975 -186.330891697712 0.0
vertex -50.8 -181.568391697712 0.0
vertex -53.975 -221.255891697712 0.0
endloop
endfacet
facet normal 0.0 0.0 -1.0
outer loop
vertex -101.6 -150.016829197712 0.0
vertex -106.3625 -159.144954197712 0.0
vertex -106.3625 -146.841829197712 0.0
endloop
endfacet
facet normal 0.0 0.0 -1.0
outer loop
vertex -106.3625 -159.144954197712 0.0
vertex -101.6 -150.016829197712 0.0
vertex -101.6 -155.969954197712 0.0
endloop
endfacet
facet normal -0.0 -0.0 1.0
outer loop
vertex 1.5875 -229.193391697712 11.1125
vertex 0.0 -127.593391697712 11.1125
vertex 0.0 -229.193391697712 11.1125
endloop
endfacet
facet normal -0.0 -0.0 1.0
outer loop
vertex 0.0 -127.593391697712 11.1125
vertex 1.5875 -229.193391697712 11.1125
vertex 1.5875 -127.593391697712 11.1125
endloop
endfacet
facet normal -1.0 0.0 0.0
outer loop
vertex 0.0 -127.593391697712 11.1125
vertex 0.0 -229.193391697712 3.175
vertex 0.0 -229.193391697712 11.1125
endloop
endfacet
facet normal -1.0 0.0 0.0
outer loop
vertex 0.0 -229.193391697712 3.175
vertex 0.0 -127.593391697712 11.1125
vertex 0.0 -127.593391697712 3.175
endloop
endfacet
facet normal 1.0 -0.0 -0.0
outer loop
vertex 11.1125 -127.593391697712 0.0
vertex 11.1125 -229.193391697712 1.5875
vertex 11.1125 -229.193391697712 0.0
endloop
endfacet
facet normal 1.0 -0.0 -0.0
outer loop
vertex 11.1125 -229.193391697712 1.5875
vertex 11.1125 -127.593391697712 0.0
vertex 11.1125 -127.593391697712 1.5875
endloop
endfacet
facet normal 0.986847924507441 -0.0 0.161651396206024
outer loop
vertex 11.1125 -127.593391697712 1.5875
vertex 10.9163835479794 -229.193391697712 2.78474987337322
vertex 11.1125 -229.193391697712 1.5875
endloop
endfacet
facet normal 0.976114470918034 0.0 0.217256851823842
outer loop
vertex 10.9163835479794 -229.193391697712 2.78474987337322
vertex 11.1125 -127.593391697712 1.5875
vertex 10.9163835479794 -127.593391697712 2.78474987337322
endloop
endfacet
facet normal 0.976114470918034 0.0 0.217256851823842
outer loop
vertex 10.9163835479794 -127.593391697712 2.78474987337322
vertex 10.5861906837941 -229.193391697712 3.95215794019752
vertex 10.9163835479794 -229.193391697712 2.78474987337322
endloop
endfacet
facet normal 0.945300322029347 0.0 0.326201320002254
outer loop
vertex 10.5861906837941 -229.193391697712 3.95215794019752
vertex 10.9163835479794 -127.593391697712 2.78474987337322
vertex 10.5861906837941 -127.593391697712 3.95215794019752
endloop
endfacet
facet normal 0.945300322029347 0.0 0.326201320002254
outer loop
vertex 10.5861906837941 -127.593391697712 3.95215794019752
vertex 10.1261539545991 -229.193391697712 5.07475988649767
vertex 10.5861906837941 -229.193391697712 3.95215794019752
endloop
endfacet
facet normal 0.902368927062183 0.0 0.430964406271151
outer loop
vertex 10.1261539545991 -229.193391697712 5.07475988649767
vertex 10.5861906837941 -127.593391697712 3.95215794019752
vertex 10.1261539545991 -127.593391697712 5.07475988649767
endloop
endfacet
facet normal 0.902368927062183 0.0 0.430964406271151
outer loop
vertex 10.1261539545991 -127.593391697712 5.07475988649767
vertex 9.54217029930666 -229.193391697712 6.1381657414734
vertex 10.1261539545991 -229.193391697712 5.07475988649767
endloop
endfacet
facet normal 0.847870598192667 0.0 0.530203214551185
outer loop
vertex 9.54217029930666 -229.193391697712 6.1381657414734
vertex 10.1261539545991 -127.593391697712 5.07475988649767
vertex 9.54217029930666 -127.593391697712 6.1381657414734
endloop
endfacet
facet normal 0.847870598192667 0.0 0.530203214551185
outer loop
vertex 9.54217029930666 -127.593391697712 6.1381657414734
vertex 8.84172545921209 -229.193391697712 7.1287443340294
vertex 9.54217029930666 -229.193391697712 6.1381657414734
endloop
endfacet
facet normal 0.78250391728562 0.0 0.622645661217245
outer loop
vertex 8.84172545921209 -229.193391697712 7.1287443340294
vertex 9.54217029930666 -127.593391697712 6.1381657414734
vertex 8.84172545921209 -127.593391697712 7.1287443340294
endloop
endfacet
facet normal 0.78250391728562 0.0 0.622645661217245
outer loop
vertex 8.84172545921209 -127.593391697712 7.1287443340294
vertex 8.03379802270046 -229.193391697712 8.03379802270046
vertex 8.84172545921209 -229.193391697712 7.1287443340294
endloop
endfacet
facet normal 0.707106781186548 0.0 0.707106781186547
outer loop
vertex 8.03379802270046 -229.193391697712 8.03379802270046
vertex 8.84172545921209 -127.593391697712 7.1287443340294
vertex 8.03379802270046 -127.593391697712 8.03379802270046
endloop
endfacet
facet normal 0.707106781186548 0.0 0.707106781186547
outer loop
vertex 8.03379802270046 -229.193391697712 8.03379802270046
vertex 7.1287443340294 -127.593391697712 8.84172545921209
vertex 7.1287443340294 -229.193391697712 8.84172545921209
endloop
endfacet
facet normal 0.622645661217244 0.0 0.78250391728562
outer loop
vertex 7.1287443340294 -127.593391697712 8.84172545921209
vertex 8.03379802270046 -229.193391697712 8.03379802270046
vertex 8.03379802270046 -127.593391697712 8.03379802270046
endloop
endfacet
facet normal 0.622645661217244 0.0 0.78250391728562
outer loop
vertex 7.1287443340294 -229.193391697712 8.84172545921209
vertex 6.1381657414734 -127.593391697712 9.54217029930666
vertex 6.1381657414734 -229.193391697712 9.54217029930666
endloop
endfacet
facet normal 0.530203214551184 0.0 0.847870598192667
outer loop
vertex 6.1381657414734 -127.593391697712 9.54217029930666
vertex 7.1287443340294 -229.193391697712 8.84172545921209
vertex 7.1287443340294 -127.593391697712 8.84172545921209
endloop
endfacet
facet normal 0.530203214551184 0.0 0.847870598192667
outer loop
vertex 6.1381657414734 -229.193391697712 9.54217029930666
vertex 5.07475988649767 -127.593391697712 10.1261539545991
vertex 5.07475988649767 -229.193391697712 10.1261539545991
endloop
endfacet
facet normal 0.430964406271151 0.0 0.902368927062183
outer loop
vertex 5.07475988649767 -127.593391697712 10.1261539545991
vertex 6.1381657414734 -229.193391697712 9.54217029930666
vertex 6.1381657414734 -127.593391697712 9.54217029930666
endloop
endfacet
facet normal 0.430964406271151 0.0 0.902368927062183
outer loop
vertex 5.07475988649767 -229.193391697712 10.1261539545991
vertex 3.95215794019752 -127.593391697712 10.5861906837941
vertex 3.95215794019752 -229.193391697712 10.5861906837941
endloop
endfacet
facet normal 0.326201320002254 0.0 0.945300322029347
outer loop
vertex 3.95215794019752 -127.593391697712 10.5861906837941
vertex 5.07475988649767 -229.193391697712 10.1261539545991
vertex 5.07475988649767 -127.593391697712 10.1261539545991
endloop
endfacet
facet normal 0.326201320002254 0.0 0.945300322029347
outer loop
vertex 3.95215794019752 -229.193391697712 10.5861906837941
vertex 2.78474987337323 -127.593391697712 10.9163835479794
vertex 2.78474987337323 -229.193391697712 10.9163835479794
endloop
endfacet
facet normal 0.217256851823842 0.0 0.976114470918034
outer loop
vertex 2.78474987337323 -127.593391697712 10.9163835479794
vertex 3.95215794019752 -229.193391697712 10.5861906837941
vertex 3.95215794019752 -127.593391697712 10.5861906837941
endloop
endfacet
facet normal 0.217256851823842 0.0 0.976114470918034
outer loop
vertex 2.78474987337323 -229.193391697712 10.9163835479794
vertex 1.5875 -127.593391697712 11.1125
vertex 1.5875 -229.193391697712 11.1125
endloop
endfacet
facet normal 0.161651396206024 -0.0 0.986847924507441
outer loop
vertex 1.5875 -127.593391697712 11.1125
vertex 2.78474987337323 -229.193391697712 10.9163835479794
vertex 2.78474987337323 -127.593391697712 10.9163835479794
endloop
endfacet
facet normal -1.0 0.0 0.0
outer loop
vertex -101.6 -155.969954197712 3.175
vertex -101.6 -200.419954197712 0.0
vertex -101.6 -200.419954197712 3.175
endloop
endfacet
facet normal -1.0 0.0 0.0
outer loop
vertex -101.6 -200.419954197712 0.0
vertex -101.6 -155.969954197712 3.175
vertex -101.6 -155.969954197712 0.0
endloop
endfacet
facet normal -0.0 1.0 -0.0
outer loop
vertex -72.8265624999999 -127.593391697712 3.175
vertex -28.3765625 -127.593391697712 0.0
vertex -72.8265624999999 -127.593391697712 0.0
endloop
endfacet
facet normal -0.0 1.0 -0.0
outer loop
vertex -28.3765625 -127.593391697712 0.0
vertex -72.8265624999999 -127.593391697712 3.175
vertex -28.3765625 -127.593391697712 3.175
endloop
endfacet
facet normal -0.70710678118655 -0.707106781186545 -0.0
outer loop
vertex -50.8 -175.218391697712 3.175
vertex -47.625 -178.393391697712 0.0
vertex -47.625 -178.393391697712 3.175
endloop
endfacet
facet normal -0.70710678118655 -0.707106781186545 -0.0
outer loop
vertex -47.625 -178.393391697712 0.0
vertex -50.8 -175.218391697712 3.175
vertex -50.8 -175.218391697712 0.0
endloop
endfacet
facet normal 0.707106781186551 -0.707106781186544 -0.0
outer loop
vertex -50.8 -175.218391697712 0.0
vertex -53.975 -178.393391697712 3.175
vertex -53.975 -178.393391697712 0.0
endloop
endfacet
facet normal 0.707106781186551 -0.707106781186544 -0.0
outer loop
vertex -53.975 -178.393391697712 3.175
vertex -50.8 -175.218391697712 0.0
vertex -50.8 -175.218391697712 3.175
endloop
endfacet
facet normal 0.707106781186549 0.707106781186546 0.0
outer loop
vertex -53.975 -178.393391697712 0.0
vertex -50.8 -181.568391697712 3.175
vertex -50.8 -181.568391697712 0.0
endloop
endfacet
facet normal 0.707106781186549 0.707106781186546 0.0
outer loop
vertex -50.8 -181.568391697712 3.175
vertex -53.975 -178.393391697712 0.0
vertex -53.975 -178.393391697712 3.175
endloop
endfacet
facet normal -0.707106781186548 0.707106781186548 -0.0
outer loop
vertex -47.625 -178.393391697712 3.175
vertex -50.8 -181.568391697712 0.0
vertex -50.8 -181.568391697712 3.175
endloop
endfacet
facet normal -0.707106781186548 0.707106781186548 -0.0
outer loop
vertex -50.8 -181.568391697712 0.0
vertex -47.625 -178.393391697712 3.175
vertex -47.625 -178.393391697712 0.0
endloop
endfacet
facet normal -0.0 1.0 -0.0
outer loop
vertex -31.5515625 -122.830891697712 3.175
vertex -19.2484375 -122.830891697712 0.0
vertex -31.5515625 -122.830891697712 0.0
endloop
endfacet
facet normal -0.0 1.0 -0.0
outer loop
vertex -19.2484375 -122.830891697712 0.0
vertex -31.5515625 -122.830891697712 3.175
vertex -19.2484375 -122.830891697712 3.175
endloop
endfacet
facet normal 1.0 4.8446095620007e-16 0.0
outer loop
vertex -47.625 -135.530891697712 0.0
vertex -47.625 -170.455891697712 3.175
vertex -47.625 -170.455891697712 0.0
endloop
endfacet
facet normal 1.0 4.8446095620007e-16 0.0
outer loop
vertex -47.625 -170.455891697712 3.175
vertex -47.625 -135.530891697712 0.0
vertex -47.625 -135.530891697712 3.175
endloop
endfacet
facet normal 0.707106781186548 0.707106781186548 0.0
outer loop
vertex -47.625 -170.455891697712 0.0
vertex -42.8625 -175.218391697712 3.175
vertex -42.8625 -175.218391697712 0.0
endloop
endfacet
facet normal 0.707106781186548 0.707106781186548 0.0
outer loop
vertex -42.8625 -175.218391697712 3.175
vertex -47.625 -170.455891697712 0.0
vertex -47.625 -170.455891697712 3.175
endloop
endfacet
facet normal -0.0 1.0 -0.0
outer loop
vertex -42.8625 -175.218391697712 3.175
vertex -7.9375 -175.218391697712 0.0
vertex -42.8625 -175.218391697712 0.0
endloop
endfacet
facet normal -0.0 1.0 -0.0
outer loop
vertex -7.9375 -175.218391697712 0.0
vertex -42.8625 -175.218391697712 3.175
vertex -7.9375 -175.218391697712 3.175
endloop
endfacet
facet normal -0.707106781186548 0.707106781186548 -0.0
outer loop
vertex -3.175 -170.455891697712 3.175
vertex -7.9375 -175.218391697712 0.0
vertex -7.9375 -175.218391697712 3.175
endloop
endfacet
facet normal -0.707106781186548 0.707106781186548 -0.0
outer loop
vertex -7.9375 -175.218391697712 0.0
vertex -3.175 -170.455891697712 3.175
vertex -3.175 -170.455891697712 0.0
endloop
endfacet
facet normal -1.0 1.00929365875014e-17 -0.0
outer loop
vertex -3.175 -135.530891697712 3.175
vertex -3.175 -170.455891697712 0.0
vertex -3.175 -170.455891697712 3.175
endloop
endfacet
facet normal -1.0 1.00929365875014e-17 -0.0
outer loop
vertex -3.175 -170.455891697712 0.0
vertex -3.175 -135.530891697712 3.175
vertex -3.175 -135.530891697712 0.0
endloop
endfacet
facet normal -0.707106781186548 -0.707106781186548 -0.0
outer loop
vertex -7.9375 -130.768391697712 3.175
vertex -3.175 -135.530891697712 0.0
vertex -3.175 -135.530891697712 3.175
endloop
endfacet
facet normal -0.707106781186548 -0.707106781186548 -0.0
outer loop
vertex -3.175 -135.530891697712 0.0
vertex -7.9375 -130.768391697712 3.175
vertex -7.9375 -130.768391697712 0.0
endloop
endfacet
facet normal -0.0 -1.0 -0.0
outer loop
vertex -7.9375 -130.768391697712 3.175
vertex -42.8625 -130.768391697712 0.0
vertex -7.9375 -130.768391697712 0.0
endloop
endfacet
facet normal -0.0 -1.0 -0.0
outer loop
vertex -42.8625 -130.768391697712 0.0
vertex -7.9375 -130.768391697712 3.175
vertex -42.8625 -130.768391697712 3.175
endloop
endfacet
facet normal 0.707106781186548 -0.707106781186548 -0.0
outer loop
vertex -42.8625 -130.768391697712 0.0
vertex -47.625 -135.530891697712 3.175
vertex -47.625 -135.530891697712 0.0
endloop
endfacet
facet normal 0.707106781186548 -0.707106781186548 -0.0
outer loop
vertex -47.625 -135.530891697712 3.175
vertex -42.8625 -130.768391697712 0.0
vertex -42.8625 -130.768391697712 3.175
endloop
endfacet
facet normal -0.0 1.0 -0.0
outer loop
vertex -101.6 -127.593391697712 3.175
vertex -79.5734374999999 -127.593391697712 0.0
vertex -101.6 -127.593391697712 0.0
endloop
endfacet
facet normal -0.0 1.0 -0.0
outer loop
vertex -79.5734374999999 -127.593391697712 0.0
vertex -101.6 -127.593391697712 3.175
vertex -79.5734374999999 -127.593391697712 3.175
endloop
endfacet
facet normal -1.0 0.0 0.0
outer loop
vertex -106.3625 -146.841829197712 3.175
vertex -106.3625 -159.144954197712 0.0
vertex -106.3625 -159.144954197712 3.175
endloop
endfacet
facet normal -1.0 0.0 0.0
outer loop
vertex -106.3625 -159.144954197712 0.0
vertex -106.3625 -146.841829197712 3.175
vertex -106.3625 -146.841829197712 0.0
endloop
endfacet
facet normal -0.0 -1.0 -0.0
outer loop
vertex -58.7375 -130.768391697712 3.175
vertex -67.3099999999999 -130.768391697712 0.0
vertex -58.7375 -130.768391697712 0.0
endloop
endfacet
facet normal -0.0 -1.0 -0.0
outer loop
vertex -67.3099999999999 -130.768391697712 0.0
vertex -58.7375 -130.768391697712 3.175
vertex -67.3099999999999 -130.768391697712 3.175
endloop
endfacet
facet normal 0.78086880944303 0.624695047554424 0.0
outer loop
vertex -67.3099999999999 -130.768391697712 0.0
vertex -63.4999999999999 -135.530891697712 3.175
vertex -63.4999999999999 -135.530891697712 0.0
endloop
endfacet
facet normal 0.78086880944303 0.624695047554424 0.0
outer loop
vertex -63.4999999999999 -135.530891697712 3.175
vertex -67.3099999999999 -130.768391697712 0.0
vertex -67.3099999999999 -130.768391697712 3.175
endloop
endfacet
facet normal 0.0 -1.0 0.0
outer loop
vertex -63.4999999999999 -135.530891697712 3.175
vertex -88.8999999999999 -135.530891697712 0.0
vertex -63.4999999999999 -135.530891697712 0.0
endloop
endfacet
facet normal 0.0 -1.0 0.0
outer loop
vertex -88.8999999999999 -135.530891697712 0.0
vertex -63.4999999999999 -135.530891697712 3.175
vertex -88.8999999999999 -135.530891697712 3.175
endloop
endfacet
facet normal -0.78086880944303 0.624695047554424 -0.0
outer loop
vertex -85.0899999999999 -130.768391697712 3.175
vertex -88.8999999999999 -135.530891697712 0.0
vertex -88.8999999999999 -135.530891697712 3.175
endloop
endfacet
facet normal -0.78086880944303 0.624695047554424 -0.0
outer loop
vertex -88.8999999999999 -135.530891697712 0.0
vertex -85.0899999999999 -130.768391697712 3.175
vertex -85.0899999999999 -130.768391697712 0.0
endloop
endfacet
facet normal -0.0 -1.0 -0.0
outer loop
vertex -85.0899999999999 -130.768391697712 3.175
vertex -93.6624999999999 -130.768391697712 0.0
vertex -85.0899999999999 -130.768391697712 0.0
endloop
endfacet
facet normal -0.0 -1.0 -0.0
outer loop
vertex -93.6624999999999 -130.768391697712 0.0
vertex -85.0899999999999 -130.768391697712 3.175
vertex -93.6624999999999 -130.768391697712 3.175
endloop
endfacet
facet normal 0.707106781186548 -0.707106781186548 -0.0
outer loop
vertex -93.6624999999999 -130.768391697712 0.0
vertex -98.4249999999999 -135.530891697712 3.175
vertex -98.4249999999999 -135.530891697712 0.0
endloop
endfacet
facet normal 0.707106781186548 -0.707106781186548 -0.0
outer loop
vertex -98.4249999999999 -135.530891697712 3.175
vertex -93.6624999999999 -130.768391697712 0.0
vertex -93.6624999999999 -130.768391697712 3.175
endloop
endfacet
facet normal 1.0 -3.22973970800046e-16 -0.0
outer loop
vertex -98.4249999999999 -135.530891697712 0.0
vertex -98.4249999999999 -170.455891697712 3.175
vertex -98.4249999999999 -170.455891697712 0.0
endloop
endfacet
facet normal 1.0 -3.22973970800046e-16 -0.0
outer loop
vertex -98.4249999999999 -170.455891697712 3.175
vertex -98.4249999999999 -135.530891697712 0.0
vertex -98.4249999999999 -135.530891697712 3.175
endloop
endfacet
facet normal 0.707106781186548 0.707106781186548 0.0
outer loop
vertex -98.4249999999999 -170.455891697712 0.0
vertex -93.6624999999999 -175.218391697712 3.175
vertex -93.6624999999999 -175.218391697712 0.0
endloop
endfacet
facet normal 0.707106781186548 0.707106781186548 0.0
outer loop
vertex -93.6624999999999 -175.218391697712 3.175
vertex -98.4249999999999 -170.455891697712 0.0
vertex -98.4249999999999 -170.455891697712 3.175
endloop
endfacet
facet normal -0.0 1.0 -0.0
outer loop
vertex -93.6624999999999 -175.218391697712 3.175
vertex -58.7375 -175.218391697712 0.0
vertex -93.6624999999999 -175.218391697712 0.0
endloop
endfacet
facet normal -0.0 1.0 -0.0
outer loop
vertex -58.7375 -175.218391697712 0.0
vertex -93.6624999999999 -175.218391697712 3.175
vertex -58.7375 -175.218391697712 3.175
endloop
endfacet
facet normal -0.707106781186548 0.707106781186548 -0.0
outer loop
vertex -53.975 -170.455891697712 3.175
vertex -58.7375 -175.218391697712 0.0
vertex -58.7375 -175.218391697712 3.175
endloop
endfacet
facet normal -0.707106781186548 0.707106781186548 -0.0
outer loop
vertex -58.7375 -175.218391697712 0.0
vertex -53.975 -170.455891697712 3.175
vertex -53.975 -170.455891697712 0.0
endloop
endfacet
facet normal -1.0 3.22973970800046e-16 -0.0
outer loop
vertex -53.975 -135.530891697712 3.175
vertex -53.975 -170.455891697712 0.0
vertex -53.975 -170.455891697712 3.175
endloop
endfacet
facet normal -1.0 3.22973970800046e-16 -0.0
outer loop
vertex -53.975 -170.455891697712 0.0
vertex -53.975 -135.530891697712 3.175
vertex -53.975 -135.530891697712 0.0
endloop
endfacet
facet normal -0.707106781186548 -0.707106781186548 -0.0
outer loop
vertex -58.7375 -130.768391697712 3.175
vertex -53.975 -135.530891697712 0.0
vertex -53.975 -135.530891697712 3.175
endloop
endfacet
facet normal -0.707106781186548 -0.707106781186548 -0.0
outer loop
vertex -53.975 -135.530891697712 0.0
vertex -58.7375 -130.768391697712 3.175
vertex -58.7375 -130.768391697712 0.0
endloop
endfacet
facet normal -1.0 0.0 0.0
outer loop
vertex -101.6 -207.166829197712 3.175
vertex -101.6 -229.193391697712 0.0
vertex -101.6 -229.193391697712 3.175
endloop
endfacet
facet normal -1.0 0.0 0.0
outer loop
vertex -101.6 -229.193391697712 0.0
vertex -101.6 -207.166829197712 3.175
vertex -101.6 -207.166829197712 0.0
endloop
endfacet
facet normal 1.0 0.0 0.0
outer loop
vertex -98.4249999999999 -186.330891697712 0.0
vertex -98.4249999999999 -194.903391697712 3.175
vertex -98.4249999999999 -194.903391697712 0.0
endloop
endfacet
facet normal 1.0 0.0 0.0
outer loop
vertex -98.4249999999999 -194.903391697712 3.175
vertex -98.4249999999999 -186.330891697712 0.0
vertex -98.4249999999999 -186.330891697712 3.175
endloop
endfacet
facet normal -0.624695047554425 0.780868809443029 -0.0
outer loop
vertex -98.4249999999999 -194.903391697712 3.175
vertex -93.6624999999999 -191.093391697712 0.0
vertex -98.4249999999999 -194.903391697712 0.0
endloop
endfacet
facet normal -0.624695047554425 0.780868809443029 -0.0
outer loop
vertex -93.6624999999999 -191.093391697712 0.0
vertex -98.4249999999999 -194.903391697712 3.175
vertex -93.6624999999999 -191.093391697712 3.175
endloop
endfacet
facet normal 1.0 -0.0 -0.0
outer loop
vertex -93.6624999999999 -191.093391697712 0.0
vertex -93.6624999999999 -216.493391697712 3.175
vertex -93.6624999999999 -216.493391697712 0.0
endloop
endfacet
facet normal 1.0 -0.0 -0.0
outer loop
vertex -93.6624999999999 -216.493391697712 3.175
vertex -93.6624999999999 -191.093391697712 0.0
vertex -93.6624999999999 -191.093391697712 3.175
endloop
endfacet
facet normal -0.624695047554425 -0.780868809443029 -0.0
outer loop
vertex -93.6624999999999 -216.493391697712 3.175
vertex -98.4249999999999 -212.683391697712 0.0
vertex -93.6624999999999 -216.493391697712 0.0
endloop
endfacet
facet normal -0.624695047554425 -0.780868809443029 -0.0
outer loop
vertex -98.4249999999999 -212.683391697712 0.0
vertex -93.6624999999999 -216.493391697712 3.175
vertex -98.4249999999999 -212.683391697712 3.175
endloop
endfacet
facet normal 1.0 0.0 0.0
outer loop
vertex -98.4249999999999 -212.683391697712 0.0
vertex -98.4249999999999 -221.255891697712 3.175
vertex -98.4249999999999 -221.255891697712 0.0
endloop
endfacet
facet normal 1.0 0.0 0.0
outer loop
vertex -98.4249999999999 -221.255891697712 3.175
vertex -98.4249999999999 -212.683391697712 0.0
vertex -98.4249999999999 -212.683391697712 3.175
endloop
endfacet
facet normal 0.707106781186548 0.707106781186548 0.0
outer loop
vertex -98.4249999999999 -221.255891697712 0.0
vertex -93.6624999999999 -226.018391697712 3.175
vertex -93.6624999999999 -226.018391697712 0.0
endloop
endfacet
facet normal 0.707106781186548 0.707106781186548 0.0
outer loop
vertex -93.6624999999999 -226.018391697712 3.175
vertex -98.4249999999999 -221.255891697712 0.0
vertex -98.4249999999999 -221.255891697712 3.175
endloop
endfacet
facet normal -0.0 1.0 -0.0
outer loop
vertex -93.6624999999999 -226.018391697712 3.175
vertex -58.7375 -226.018391697712 0.0
vertex -93.6624999999999 -226.018391697712 0.0
endloop
endfacet
facet normal -0.0 1.0 -0.0
outer loop
vertex -58.7375 -226.018391697712 0.0
vertex -93.6624999999999 -226.018391697712 3.175
vertex -58.7375 -226.018391697712 3.175
endloop
endfacet
facet normal -0.707106781186548 0.707106781186548 -0.0
outer loop
vertex -53.975 -221.255891697712 3.175
vertex -58.7375 -226.018391697712 0.0
vertex -58.7375 -226.018391697712 3.175
endloop
endfacet
facet normal -0.707106781186548 0.707106781186548 -0.0
outer loop
vertex -58.7375 -226.018391697712 0.0
vertex -53.975 -221.255891697712 3.175
vertex -53.975 -221.255891697712 0.0
endloop
endfacet
facet normal -1.0 0.0 -0.0
outer loop
vertex -53.975 -186.330891697712 3.175
vertex -53.975 -221.255891697712 0.0
vertex -53.975 -221.255891697712 3.175
endloop
endfacet
facet normal -1.0 0.0 -0.0
outer loop
vertex -53.975 -221.255891697712 0.0
vertex -53.975 -186.330891697712 3.175
vertex -53.975 -186.330891697712 0.0
endloop
endfacet
facet normal -0.707106781186548 -0.707106781186547 -0.0
outer loop
vertex -58.7375 -181.568391697712 3.175
vertex -53.975 -186.330891697712 0.0
vertex -53.975 -186.330891697712 3.175
endloop
endfacet
facet normal -0.707106781186548 -0.707106781186547 -0.0
outer loop
vertex -53.975 -186.330891697712 0.0
vertex -58.7375 -181.568391697712 3.175
vertex -58.7375 -181.568391697712 0.0
endloop
endfacet
facet normal -0.0 -1.0 -0.0
outer loop
vertex -58.7375 -181.568391697712 3.175
vertex -93.6624999999999 -181.568391697712 0.0
vertex -58.7375 -181.568391697712 0.0
endloop
endfacet
facet normal -0.0 -1.0 -0.0
outer loop
vertex -93.6624999999999 -181.568391697712 0.0
vertex -58.7375 -181.568391697712 3.175
vertex -93.6624999999999 -181.568391697712 3.175
endloop
endfacet
facet normal 0.707106781186548 -0.707106781186548 -0.0
outer loop
vertex -93.6624999999999 -181.568391697712 0.0
vertex -98.4249999999999 -186.330891697712 3.175
vertex -98.4249999999999 -186.330891697712 0.0
endloop
endfacet
facet normal 0.707106781186548 -0.707106781186548 -0.0
outer loop
vertex -98.4249999999999 -186.330891697712 3.175
vertex -93.6624999999999 -181.568391697712 0.0
vertex -93.6624999999999 -181.568391697712 3.175
endloop
endfacet
facet normal 0.0 -1.0 0.0
outer loop
vertex -70.0484374999999 -233.955891697712 3.175
vertex -82.3515624999999 -233.955891697712 0.0
vertex -70.0484374999999 -233.955891697712 0.0
endloop
endfacet
facet normal 0.0 -1.0 0.0
outer loop
vertex -82.3515624999999 -233.955891697712 0.0
vertex -70.0484374999999 -233.955891697712 3.175
vertex -82.3515624999999 -233.955891697712 3.175
endloop
endfacet
facet normal 0.0 -1.0 0.0
outer loop
vertex -28.7734375 -229.193391697712 3.175
vertex -73.2234374999999 -229.193391697712 0.0
vertex -28.7734375 -229.193391697712 0.0
endloop
endfacet
facet normal 0.0 -1.0 0.0
outer loop
vertex -73.2234374999999 -229.193391697712 0.0
vertex -28.7734375 -229.193391697712 3.175
vertex -73.2234374999999 -229.193391697712 3.175
endloop
endfacet
facet normal 0.0 -1.0 0.0
outer loop
vertex 10.5861906837941 -229.193391697712 3.95215794019752
vertex 0.0 -229.193391697712 3.175
vertex 10.9163835479794 -229.193391697712 2.78474987337322
endloop
endfacet
facet normal 0.0 -1.0 0.0
outer loop
vertex 0.0 -229.193391697712 3.175
vertex 10.5861906837941 -229.193391697712 3.95215794019752
vertex 0.0 -229.193391697712 11.1125
endloop
endfacet
facet normal 0.0 -1.0 0.0
outer loop
vertex 0.0 -229.193391697712 11.1125
vertex 10.5861906837941 -229.193391697712 3.95215794019752
vertex 10.1261539545991 -229.193391697712 5.07475988649767
endloop
endfacet
facet normal 0.0 -1.0 0.0
outer loop
vertex 0.0 -229.193391697712 11.1125
vertex 10.1261539545991 -229.193391697712 5.07475988649767
vertex 9.54217029930666 -229.193391697712 6.1381657414734
endloop
endfacet
facet normal 0.0 -1.0 0.0
outer loop
vertex 0.0 -229.193391697712 11.1125
vertex 9.54217029930666 -229.193391697712 6.1381657414734
vertex 8.84172545921209 -229.193391697712 7.1287443340294
endloop
endfacet
facet normal 0.0 -1.0 0.0
outer loop
vertex 0.0 -229.193391697712 11.1125
vertex 8.84172545921209 -229.193391697712 7.1287443340294
vertex 8.03379802270046 -229.193391697712 8.03379802270046
endloop
endfacet
facet normal 0.0 -1.0 0.0
outer loop
vertex 0.0 -229.193391697712 11.1125
vertex 8.03379802270046 -229.193391697712 8.03379802270046
vertex 7.1287443340294 -229.193391697712 8.84172545921209
endloop
endfacet
facet normal 0.0 -1.0 0.0
outer loop
vertex 0.0 -229.193391697712 11.1125
vertex 7.1287443340294 -229.193391697712 8.84172545921209
vertex 6.1381657414734 -229.193391697712 9.54217029930666
endloop
endfacet
facet normal 0.0 -1.0 0.0
outer loop
vertex 0.0 -229.193391697712 11.1125
vertex 6.1381657414734 -229.193391697712 9.54217029930666
vertex 5.07475988649767 -229.193391697712 10.1261539545991
endloop
endfacet
facet normal 0.0 -1.0 0.0
outer loop
vertex 0.0 -229.193391697712 11.1125
vertex 5.07475988649767 -229.193391697712 10.1261539545991
vertex 3.95215794019752 -229.193391697712 10.5861906837941
endloop
endfacet
facet normal 0.0 -1.0 0.0
outer loop
vertex 0.0 -229.193391697712 11.1125
vertex 3.95215794019752 -229.193391697712 10.5861906837941
vertex 2.78474987337323 -229.193391697712 10.9163835479794
endloop
endfacet
facet normal 0.0 -1.0 0.0
outer loop
vertex 0.0 -229.193391697712 11.1125
vertex 2.78474987337323 -229.193391697712 10.9163835479794
vertex 1.5875 -229.193391697712 11.1125
endloop
endfacet
facet normal 0.0 -1.0 0.0
outer loop
vertex 11.1125 -229.193391697712 1.5875
vertex -22.0265625 -229.193391697712 0.0
vertex 11.1125 -229.193391697712 0.0
endloop
endfacet
facet normal 0.0 -1.0 0.0
outer loop
vertex -22.0265625 -229.193391697712 0.0
vertex 11.1125 -229.193391697712 1.5875
vertex -22.0265625 -229.193391697712 3.175
endloop
endfacet
facet normal 0.0 -1.0 0.0
outer loop
vertex -22.0265625 -229.193391697712 3.175
vertex 11.1125 -229.193391697712 1.5875
vertex 10.9163835479794 -229.193391697712 2.78474987337322
endloop
endfacet
facet normal 0.0 -1.0 0.0
outer loop
vertex -22.0265625 -229.193391697712 3.175
vertex 10.9163835479794 -229.193391697712 2.78474987337322
vertex 0.0 -229.193391697712 3.175
endloop
endfacet
facet normal -0.0 1.0 -0.0
outer loop
vertex -42.8625 -226.018391697712 3.175
vertex -34.29 -226.018391697712 0.0
vertex -42.8625 -226.018391697712 0.0
endloop
endfacet
facet normal -0.0 1.0 -0.0
outer loop
vertex -34.29 -226.018391697712 0.0
vertex -42.8625 -226.018391697712 3.175
vertex -34.29 -226.018391697712 3.175
endloop
endfacet
facet normal -0.78086880944303 -0.624695047554424 -0.0
outer loop
vertex -38.1 -221.255891697712 3.175
vertex -34.29 -226.018391697712 0.0
vertex -34.29 -226.018391697712 3.175
endloop
endfacet
facet normal -0.78086880944303 -0.624695047554424 -0.0
outer loop
vertex -34.29 -226.018391697712 0.0
vertex -38.1 -221.255891697712 3.175
vertex -38.1 -221.255891697712 0.0
endloop
endfacet
facet normal -0.0 1.0 -0.0
outer loop
vertex -38.1 -221.255891697712 3.175
vertex -12.7 -221.255891697712 0.0
vertex -38.1 -221.255891697712 0.0
endloop
endfacet
facet normal -0.0 1.0 -0.0
outer loop
vertex -12.7 -221.255891697712 0.0
vertex -38.1 -221.255891697712 3.175
vertex -12.7 -221.255891697712 3.175
endloop
endfacet
facet normal 0.78086880944303 -0.624695047554424 -0.0
outer loop
vertex -12.7 -221.255891697712 0.0
vertex -16.51 -226.018391697712 3.175
vertex -16.51 -226.018391697712 0.0
endloop
endfacet
facet normal 0.78086880944303 -0.624695047554424 -0.0
outer loop
vertex -16.51 -226.018391697712 3.175
vertex -12.7 -221.255891697712 0.0
vertex -12.7 -221.255891697712 3.175
endloop
endfacet
facet normal -0.0 1.0 -0.0
outer loop
vertex -16.51 -226.018391697712 3.175
vertex -7.9375 -226.018391697712 0.0
vertex -16.51 -226.018391697712 0.0
endloop
endfacet
facet normal -0.0 1.0 -0.0
outer loop
vertex -7.9375 -226.018391697712 0.0
vertex -16.51 -226.018391697712 3.175
vertex -7.9375 -226.018391697712 3.175
endloop
endfacet
facet normal -0.707106781186547 0.707106781186548 -0.0
outer loop
vertex -7.9375 -226.018391697712 3.175
vertex -3.175 -221.255891697712 0.0
vertex -7.9375 -226.018391697712 0.0
endloop
endfacet
facet normal -0.707106781186547 0.707106781186548 -0.0
outer loop
vertex -3.175 -221.255891697712 0.0
vertex -7.9375 -226.018391697712 3.175
vertex -3.175 -221.255891697712 3.175
endloop
endfacet
facet normal -1.0 0.0 -0.0
outer loop
vertex -3.175 -186.330891697712 3.175
vertex -3.175 -221.255891697712 0.0
vertex -3.175 -221.255891697712 3.175
endloop
endfacet
facet normal -1.0 0.0 -0.0
outer loop
vertex -3.175 -221.255891697712 0.0
vertex -3.175 -186.330891697712 3.175
vertex -3.175 -186.330891697712 0.0
endloop
endfacet
facet normal -0.707106781186547 -0.707106781186548 -0.0
outer loop
vertex -3.175 -186.330891697712 3.175
vertex -7.9375 -181.568391697712 0.0
vertex -3.175 -186.330891697712 0.0
endloop
endfacet
facet normal -0.707106781186547 -0.707106781186548 -0.0
outer loop
vertex -7.9375 -181.568391697712 0.0
vertex -3.175 -186.330891697712 3.175
vertex -7.9375 -181.568391697712 3.175
endloop
endfacet
facet normal -0.0 -1.0 -0.0
outer loop
vertex -7.9375 -181.568391697712 3.175
vertex -42.8625 -181.568391697712 0.0
vertex -7.9375 -181.568391697712 0.0
endloop
endfacet
facet normal -0.0 -1.0 -0.0
outer loop
vertex -42.8625 -181.568391697712 0.0
vertex -7.9375 -181.568391697712 3.175
vertex -42.8625 -181.568391697712 3.175
endloop
endfacet
facet normal 0.707106781186548 -0.707106781186548 -0.0
outer loop
vertex -42.8625 -181.568391697712 0.0
vertex -47.625 -186.330891697712 3.175
vertex -47.625 -186.330891697712 0.0
endloop
endfacet
facet normal 0.707106781186548 -0.707106781186548 -0.0
outer loop
vertex -47.625 -186.330891697712 3.175
vertex -42.8625 -181.568391697712 0.0
vertex -42.8625 -181.568391697712 3.175
endloop
endfacet
facet normal 1.0 3.22973970800046e-16 0.0
outer loop
vertex -47.625 -186.330891697712 0.0
vertex -47.625 -221.255891697712 3.175
vertex -47.625 -221.255891697712 0.0
endloop
endfacet
facet normal 1.0 3.22973970800046e-16 0.0
outer loop
vertex -47.625 -221.255891697712 3.175
vertex -47.625 -186.330891697712 0.0
vertex -47.625 -186.330891697712 3.175
endloop
endfacet
facet normal 0.707106781186548 0.707106781186548 0.0
outer loop
vertex -47.625 -221.255891697712 0.0
vertex -42.8625 -226.018391697712 3.175
vertex -42.8625 -226.018391697712 0.0
endloop
endfacet
facet normal 0.707106781186548 0.707106781186548 0.0
outer loop
vertex -42.8625 -226.018391697712 3.175
vertex -47.625 -221.255891697712 0.0
vertex -47.625 -221.255891697712 3.175
endloop
endfacet
facet normal 0.832050294337844 -0.554700196225229 -0.0
outer loop
vertex -19.2484375 -122.830891697712 0.0
vertex -22.4234375 -127.593391697712 3.175
vertex -22.4234375 -127.593391697712 0.0
endloop
endfacet
facet normal 0.832050294337844 -0.554700196225229 -0.0
outer loop
vertex -22.4234375 -127.593391697712 3.175
vertex -19.2484375 -122.830891697712 0.0
vertex -19.2484375 -122.830891697712 3.175
endloop
endfacet
facet normal -7.21003906629674e-31 1.0 1.33134845310817e-30
outer loop
vertex -22.4234375 -127.593391697712 3.175
vertex 11.1125 -127.593391697712 0.0
vertex -22.4234375 -127.593391697712 0.0
endloop
endfacet
facet normal -7.21003906629674e-31 1.0 1.33134845310817e-30
outer loop
vertex 11.1125 -127.593391697712 0.0
vertex -22.4234375 -127.593391697712 3.175
vertex 11.1125 -127.593391697712 1.5875
endloop
endfacet
facet normal -7.21003906629674e-31 1.0 1.33134845310817e-30
outer loop
vertex 11.1125 -127.593391697712 1.5875
vertex -22.4234375 -127.593391697712 3.175
vertex 10.9163835479794 -127.593391697712 2.78474987337322
endloop
endfacet
facet normal -7.21003906629674e-31 1.0 1.33134845310817e-30
outer loop
vertex 10.9163835479794 -127.593391697712 2.78474987337322
vertex -22.4234375 -127.593391697712 3.175
vertex 0.0 -127.593391697712 3.175
endloop
endfacet
facet normal -7.21003906629674e-31 1.0 1.33134845310817e-30
outer loop
vertex 10.9163835479794 -127.593391697712 2.78474987337322
vertex 0.0 -127.593391697712 3.175
vertex 10.5861906837941 -127.593391697712 3.95215794019752
endloop
endfacet
facet normal -7.21003906629674e-31 1.0 1.33134845310817e-30
outer loop
vertex 10.5861906837941 -127.593391697712 3.95215794019752
vertex 0.0 -127.593391697712 3.175
vertex 0.0 -127.593391697712 11.1125
endloop
endfacet
facet normal -7.21003906629674e-31 1.0 1.33134845310817e-30
outer loop
vertex 10.5861906837941 -127.593391697712 3.95215794019752
vertex 0.0 -127.593391697712 11.1125
vertex 10.1261539545991 -127.593391697712 5.07475988649767
endloop
endfacet
facet normal -7.21003906629674e-31 1.0 1.33134845310817e-30
outer loop
vertex 10.1261539545991 -127.593391697712 5.07475988649767
vertex 0.0 -127.593391697712 11.1125
vertex 9.54217029930666 -127.593391697712 6.1381657414734
endloop
endfacet
facet normal -7.21003906629674e-31 1.0 1.33134845310817e-30
outer loop
vertex 9.54217029930666 -127.593391697712 6.1381657414734
vertex 0.0 -127.593391697712 11.1125
vertex 8.84172545921209 -127.593391697712 7.1287443340294
endloop
endfacet
facet normal -7.21003906629674e-31 1.0 1.33134845310817e-30
outer loop
vertex 8.84172545921209 -127.593391697712 7.1287443340294
vertex 0.0 -127.593391697712 11.1125
vertex 8.03379802270046 -127.593391697712 8.03379802270046
endloop
endfacet
facet normal -7.21003906629674e-31 1.0 1.33134845310817e-30
outer loop
vertex 8.03379802270046 -127.593391697712 8.03379802270046
vertex 0.0 -127.593391697712 11.1125
vertex 7.1287443340294 -127.593391697712 8.84172545921209
endloop
endfacet
facet normal -7.21003906629674e-31 1.0 1.33134845310817e-30
outer loop
vertex 7.1287443340294 -127.593391697712 8.84172545921209
vertex 0.0 -127.593391697712 11.1125
vertex 6.1381657414734 -127.593391697712 9.54217029930666
endloop
endfacet
facet normal -7.21003906629674e-31 1.0 1.33134845310817e-30
outer loop
vertex 6.1381657414734 -127.593391697712 9.54217029930666
vertex 0.0 -127.593391697712 11.1125
vertex 5.07475988649767 -127.593391697712 10.1261539545991
endloop
endfacet
facet normal -7.21003906629674e-31 1.0 1.33134845310817e-30
outer loop
vertex 5.07475988649767 -127.593391697712 10.1261539545991
vertex 0.0 -127.593391697712 11.1125
vertex 3.95215794019752 -127.593391697712 10.5861906837941
endloop
endfacet
facet normal -7.21003906629674e-31 1.0 1.33134845310817e-30
outer loop
vertex 3.95215794019752 -127.593391697712 10.5861906837941
vertex 0.0 -127.593391697712 11.1125
vertex 2.78474987337323 -127.593391697712 10.9163835479794
endloop
endfacet
facet normal -7.21003906629674e-31 1.0 1.33134845310817e-30
outer loop
vertex 2.78474987337323 -127.593391697712 10.9163835479794
vertex 0.0 -127.593391697712 11.1125
vertex 1.5875 -127.593391697712 11.1125
endloop
endfacet
facet normal -0.832050294337844 -0.554700196225229 0.0
outer loop
vertex -31.5515625 -122.830891697712 3.175
vertex -28.3765625 -127.593391697712 0.0
vertex -28.3765625 -127.593391697712 3.175
endloop
endfacet
facet normal -0.832050294337844 -0.554700196225229 0.0
outer loop
vertex -28.3765625 -127.593391697712 0.0
vertex -31.5515625 -122.830891697712 3.175
vertex -31.5515625 -122.830891697712 0.0
endloop
endfacet
facet normal 0.554700196225229 0.832050294337844 -0.0
outer loop
vertex -106.3625 -146.841829197712 3.175
vertex -101.6 -150.016829197712 0.0
vertex -106.3625 -146.841829197712 0.0
endloop
endfacet
facet normal 0.554700196225229 0.832050294337844 -0.0
outer loop
vertex -101.6 -150.016829197712 0.0
vertex -106.3625 -146.841829197712 3.175
vertex -101.6 -150.016829197712 3.175
endloop
endfacet
facet normal -1.0 0.0 0.0
outer loop
vertex -101.6 -127.593391697712 3.175
vertex -101.6 -150.016829197712 0.0
vertex -101.6 -150.016829197712 3.175
endloop
endfacet
facet normal -1.0 0.0 0.0
outer loop
vertex -101.6 -150.016829197712 0.0
vertex -101.6 -127.593391697712 3.175
vertex -101.6 -127.593391697712 0.0
endloop
endfacet
facet normal 0.554700196225229 -0.832050294337844 0.0
outer loop
vertex -101.6 -155.969954197712 3.175
vertex -106.3625 -159.144954197712 0.0
vertex -101.6 -155.969954197712 0.0
endloop
endfacet
facet normal 0.554700196225229 -0.832050294337844 0.0
outer loop
vertex -106.3625 -159.144954197712 0.0
vertex -101.6 -155.969954197712 3.175
vertex -106.3625 -159.144954197712 3.175
endloop
endfacet
facet normal -0.832050294337844 0.554700196225229 0.0
outer loop
vertex -79.1765624999999 -229.193391697712 3.175
vertex -82.3515624999999 -233.955891697712 0.0
vertex -82.3515624999999 -233.955891697712 3.175
endloop
endfacet
facet normal -0.832050294337844 0.554700196225229 0.0
outer loop
vertex -82.3515624999999 -233.955891697712 0.0
vertex -79.1765624999999 -229.193391697712 3.175
vertex -79.1765624999999 -229.193391697712 0.0
endloop
endfacet
facet normal 0.0 -1.0 0.0
outer loop
vertex -79.1765624999999 -229.193391697712 3.175
vertex -101.6 -229.193391697712 0.0
vertex -79.1765624999999 -229.193391697712 0.0
endloop
endfacet
facet normal 0.0 -1.0 0.0
outer loop
vertex -101.6 -229.193391697712 0.0
vertex -79.1765624999999 -229.193391697712 3.175
vertex -101.6 -229.193391697712 3.175
endloop
endfacet
facet normal 0.832050294337844 0.554700196225229 -0.0
outer loop
vertex -73.2234374999999 -229.193391697712 0.0
vertex -70.0484374999999 -233.955891697712 3.175
vertex -70.0484374999999 -233.955891697712 0.0
endloop
endfacet
facet normal 0.832050294337844 0.554700196225229 -0.0
outer loop
vertex -70.0484374999999 -233.955891697712 3.175
vertex -73.2234374999999 -229.193391697712 0.0
vertex -73.2234374999999 -229.193391697712 3.175
endloop
endfacet
facet normal -0.0 -0.0 1.0
outer loop
vertex -93.6624999999999 -181.568391697712 3.175
vertex -98.4249999999999 -170.455891697712 3.175
vertex -98.4249999999999 -186.330891697712 3.175
endloop
endfacet
facet normal -0.0 -0.0 1.0
outer loop
vertex -98.4249999999999 -170.455891697712 3.175
vertex -93.6624999999999 -181.568391697712 3.175
vertex -93.6624999999999 -175.218391697712 3.175
endloop
endfacet
facet normal -0.0 -0.0 1.0
outer loop
vertex -93.6624999999999 -175.218391697712 3.175
vertex -93.6624999999999 -181.568391697712 3.175
vertex -58.7375 -181.568391697712 3.175
endloop
endfacet
facet normal -0.0 -0.0 1.0
outer loop
vertex -93.6624999999999 -175.218391697712 3.175
vertex -58.7375 -181.568391697712 3.175
vertex -58.7375 -175.218391697712 3.175
endloop
endfacet
facet normal -0.0 -0.0 1.0
outer loop
vertex -58.7375 -175.218391697712 3.175
vertex -58.7375 -181.568391697712 3.175
vertex -53.975 -170.455891697712 3.175
endloop
endfacet
facet normal -0.0 -0.0 1.0
outer loop
vertex -53.975 -170.455891697712 3.175
vertex -58.7375 -181.568391697712 3.175
vertex -53.975 -186.330891697712 3.175
endloop
endfacet
facet normal -0.0 -0.0 1.0
outer loop
vertex -53.975 -170.455891697712 3.175
vertex -53.975 -186.330891697712 3.175
vertex -53.975 -135.530891697712 3.175
endloop
endfacet
facet normal -0.0 -0.0 1.0
outer loop
vertex -53.975 -135.530891697712 3.175
vertex -53.975 -186.330891697712 3.175
vertex -53.975 -178.393391697712 3.175
endloop
endfacet
facet normal -0.0 -0.0 1.0
outer loop
vertex -53.975 -135.530891697712 3.175
vertex -53.975 -178.393391697712 3.175
vertex -50.8 -175.218391697712 3.175
endloop
endfacet
facet normal -0.0 -0.0 1.0
outer loop
vertex -101.6 -207.166829197712 3.175
vertex -98.4249999999999 -212.683391697712 3.175
vertex -96.8374999999999 -210.341829197712 3.175
endloop
endfacet
facet normal -0.0 -0.0 1.0
outer loop
vertex -98.4249999999999 -212.683391697712 3.175
vertex -101.6 -207.166829197712 3.175
vertex -98.4249999999999 -221.255891697712 3.175
endloop
endfacet
facet normal -0.0 -0.0 1.0
outer loop
vertex -96.8374999999999 -210.341829197712 3.175
vertex -98.4249999999999 -212.683391697712 3.175
vertex -93.6624999999999 -216.493391697712 3.175
endloop
endfacet
facet normal -0.0 -0.0 1.0
outer loop
vertex -96.8374999999999 -210.341829197712 3.175
vertex -93.6624999999999 -216.493391697712 3.175
vertex -96.8374999999999 -197.244954197712 3.175
endloop
endfacet
facet normal -0.0 -0.0 1.0
outer loop
vertex -101.6 -200.419954197712 3.175
vertex -98.4249999999999 -194.903391697712 3.175
vertex -101.6 -155.969954197712 3.175
endloop
endfacet
facet normal -0.0 -0.0 1.0
outer loop
vertex -98.4249999999999 -194.903391697712 3.175
vertex -101.6 -200.419954197712 3.175
vertex -96.8374999999999 -197.244954197712 3.175
endloop
endfacet
facet normal -0.0 -0.0 1.0
outer loop
vertex -101.6 -155.969954197712 3.175
vertex -98.4249999999999 -194.903391697712 3.175
vertex -101.6 -150.016829197712 3.175
endloop
endfacet
facet normal -0.0 -0.0 1.0
outer loop
vertex -101.6 -150.016829197712 3.175
vertex -98.4249999999999 -194.903391697712 3.175
vertex -101.6 -127.593391697712 3.175
endloop
endfacet
facet normal -0.0 -0.0 1.0
outer loop
vertex -98.4249999999999 -194.903391697712 3.175
vertex -96.8374999999999 -197.244954197712 3.175
vertex -93.6624999999999 -191.093391697712 3.175
endloop
endfacet
facet normal -0.0 -0.0 1.0
outer loop
vertex -93.6624999999999 -191.093391697712 3.175
vertex -96.8374999999999 -197.244954197712 3.175
vertex -93.6624999999999 -216.493391697712 3.175
endloop
endfacet
facet normal -0.0 -0.0 1.0
outer loop
vertex -70.0484374999999 -233.955891697712 3.175
vertex -79.1765624999999 -229.193391697712 3.175
vertex -82.3515624999999 -233.955891697712 3.175
endloop
endfacet
facet normal -0.0 -0.0 1.0
outer loop
vertex -79.1765624999999 -229.193391697712 3.175
vertex -70.0484374999999 -233.955891697712 3.175
vertex -73.2234374999999 -229.193391697712 3.175
endloop
endfacet
facet normal -0.0 -0.0 1.0
outer loop
vertex -88.8999999999999 -135.530891697712 3.175
vertex -82.7484374999999 -132.355891697712 3.175
vertex -85.0899999999999 -130.768391697712 3.175
endloop
endfacet
facet normal -0.0 -0.0 1.0
outer loop
vertex -82.7484374999999 -132.355891697712 3.175
vertex -88.8999999999999 -135.530891697712 3.175
vertex -63.4999999999999 -135.530891697712 3.175
endloop
endfacet
facet normal -0.0 -0.0 1.0
outer loop
vertex -82.7484374999999 -132.355891697712 3.175
vertex -63.4999999999999 -135.530891697712 3.175
vertex -69.6515624999999 -132.355891697712 3.175
endloop
endfacet
facet normal -0.0 -0.0 1.0
outer loop
vertex -69.6515624999999 -132.355891697712 3.175
vertex -63.4999999999999 -135.530891697712 3.175
vertex -67.3099999999999 -130.768391697712 3.175
endloop
endfacet
facet normal -0.0 -0.0 1.0
outer loop
vertex -101.6 -127.593391697712 3.175
vertex -93.6624999999999 -130.768391697712 3.175
vertex -79.5734374999999 -127.593391697712 3.175
endloop
endfacet
facet normal -0.0 -0.0 1.0
outer loop
vertex -93.6624999999999 -130.768391697712 3.175
vertex -101.6 -127.593391697712 3.175
vertex -98.4249999999999 -135.530891697712 3.175
endloop
endfacet
facet normal -0.0 -0.0 1.0
outer loop
vertex -98.4249999999999 -135.530891697712 3.175
vertex -101.6 -127.593391697712 3.175
vertex -98.4249999999999 -170.455891697712 3.175
endloop
endfacet
facet normal -0.0 -0.0 1.0
outer loop
vertex -98.4249999999999 -170.455891697712 3.175
vertex -101.6 -127.593391697712 3.175
vertex -98.4249999999999 -194.903391697712 3.175
endloop
endfacet
facet normal -0.0 -0.0 1.0
outer loop
vertex -98.4249999999999 -170.455891697712 3.175
vertex -98.4249999999999 -194.903391697712 3.175
vertex -98.4249999999999 -186.330891697712 3.175
endloop
endfacet
facet normal -0.0 -0.0 1.0
outer loop
vertex -79.5734374999999 -127.593391697712 3.175
vertex -93.6624999999999 -130.768391697712 3.175
vertex -85.0899999999999 -130.768391697712 3.175
endloop
endfacet
facet normal -0.0 -0.0 1.0
outer loop
vertex -79.5734374999999 -127.593391697712 3.175
vertex -85.0899999999999 -130.768391697712 3.175
vertex -82.7484374999999 -132.355891697712 3.175
endloop
endfacet
facet normal -0.0 -0.0 1.0
outer loop
vertex -101.6 -229.193391697712 3.175
vertex -98.4249999999999 -221.255891697712 3.175
vertex -101.6 -207.166829197712 3.175
endloop
endfacet
facet normal -0.0 -0.0 1.0
outer loop
vertex -98.4249999999999 -221.255891697712 3.175
vertex -101.6 -229.193391697712 3.175
vertex -93.6624999999999 -226.018391697712 3.175
endloop
endfacet
facet normal -0.0 -0.0 1.0
outer loop
vertex -93.6624999999999 -226.018391697712 3.175
vertex -101.6 -229.193391697712 3.175
vertex -79.1765624999999 -229.193391697712 3.175
endloop
endfacet
facet normal -0.0 -0.0 1.0
outer loop
vertex -93.6624999999999 -226.018391697712 3.175
vertex -79.1765624999999 -229.193391697712 3.175
vertex -58.7375 -226.018391697712 3.175
endloop
endfacet
facet normal -0.0 -0.0 1.0
outer loop
vertex -58.7375 -226.018391697712 3.175
vertex -79.1765624999999 -229.193391697712 3.175
vertex -73.2234374999999 -229.193391697712 3.175
endloop
endfacet
facet normal -0.0 -0.0 1.0
outer loop
vertex -58.7375 -226.018391697712 3.175
vertex -73.2234374999999 -229.193391697712 3.175
vertex -28.7734375 -229.193391697712 3.175
endloop
endfacet
facet normal -0.0 -0.0 1.0
outer loop
vertex -58.7375 -226.018391697712 3.175
vertex -28.7734375 -229.193391697712 3.175
vertex -42.8625 -226.018391697712 3.175
endloop
endfacet
facet normal -0.0 -0.0 1.0
outer loop
vertex -58.7375 -226.018391697712 3.175
vertex -42.8625 -226.018391697712 3.175
vertex -53.975 -221.255891697712 3.175
endloop
endfacet
facet normal -0.0 -0.0 1.0
outer loop
vertex -53.975 -221.255891697712 3.175
vertex -42.8625 -226.018391697712 3.175
vertex -47.625 -221.255891697712 3.175
endloop
endfacet
facet normal -0.0 -0.0 1.0
outer loop
vertex -53.975 -221.255891697712 3.175
vertex -47.625 -221.255891697712 3.175
vertex -53.975 -186.330891697712 3.175
endloop
endfacet
facet normal -0.0 -0.0 1.0
outer loop
vertex -53.975 -186.330891697712 3.175
vertex -47.625 -221.255891697712 3.175
vertex -53.975 -178.393391697712 3.175
endloop
endfacet
facet normal -0.0 -0.0 1.0
outer loop
vertex -53.975 -178.393391697712 3.175
vertex -47.625 -221.255891697712 3.175
vertex -50.8 -181.568391697712 3.175
endloop
endfacet
facet normal -0.0 -0.0 1.0
outer loop
vertex -50.8 -181.568391697712 3.175
vertex -47.625 -221.255891697712 3.175
vertex -47.625 -186.330891697712 3.175
endloop
endfacet
facet normal -0.0 -0.0 1.0
outer loop
vertex -42.8625 -226.018391697712 3.175
vertex -28.7734375 -229.193391697712 3.175
vertex -34.29 -226.018391697712 3.175
endloop
endfacet
facet normal -0.0 -0.0 1.0
outer loop
vertex -34.29 -226.018391697712 3.175
vertex -28.7734375 -229.193391697712 3.175
vertex -31.9484375 -224.430891697712 3.175
endloop
endfacet
facet normal -0.0 -0.0 1.0
outer loop
vertex -47.625 -186.330891697712 3.175
vertex -47.625 -178.393391697712 3.175
vertex -50.8 -181.568391697712 3.175
endloop
endfacet
facet normal -0.0 -0.0 1.0
outer loop
vertex -47.625 -178.393391697712 3.175
vertex -47.625 -186.330891697712 3.175
vertex -42.8625 -181.568391697712 3.175
endloop
endfacet
facet normal -0.0 -0.0 1.0
outer loop
vertex -47.625 -178.393391697712 3.175
vertex -42.8625 -181.568391697712 3.175
vertex -42.8625 -175.218391697712 3.175
endloop
endfacet
facet normal -0.0 -0.0 1.0
outer loop
vertex -42.8625 -175.218391697712 3.175
vertex -42.8625 -181.568391697712 3.175
vertex -7.9375 -175.218391697712 3.175
endloop
endfacet
facet normal -0.0 -0.0 1.0
outer loop
vertex -7.9375 -175.218391697712 3.175
vertex -42.8625 -181.568391697712 3.175
vertex -7.9375 -181.568391697712 3.175
endloop
endfacet
facet normal -0.0 -0.0 1.0
outer loop
vertex -7.9375 -175.218391697712 3.175
vertex -7.9375 -181.568391697712 3.175
vertex -3.175 -186.330891697712 3.175
endloop
endfacet
facet normal -0.0 -0.0 1.0
outer loop
vertex -7.9375 -175.218391697712 3.175
vertex -3.175 -186.330891697712 3.175
vertex -3.175 -170.455891697712 3.175
endloop
endfacet
facet normal -0.0 -0.0 1.0
outer loop
vertex -3.175 -170.455891697712 3.175
vertex -3.175 -186.330891697712 3.175
vertex -3.175 -135.530891697712 3.175
endloop
endfacet
facet normal -0.0 -0.0 1.0
outer loop
vertex -22.0265625 -229.193391697712 3.175
vertex -16.51 -226.018391697712 3.175
vertex -18.8515625 -224.430891697712 3.175
endloop
endfacet
facet normal -0.0 -0.0 1.0
outer loop
vertex -16.51 -226.018391697712 3.175
vertex -22.0265625 -229.193391697712 3.175
vertex 0.0 -229.193391697712 3.175
endloop
endfacet
facet normal -0.0 -0.0 1.0
outer loop
vertex -16.51 -226.018391697712 3.175
vertex 0.0 -229.193391697712 3.175
vertex -7.9375 -226.018391697712 3.175
endloop
endfacet
facet normal -0.0 -0.0 1.0
outer loop
vertex -7.9375 -226.018391697712 3.175
vertex 0.0 -229.193391697712 3.175
vertex -3.175 -221.255891697712 3.175
endloop
endfacet
facet normal -0.0 -0.0 1.0
outer loop
vertex -3.175 -221.255891697712 3.175
vertex 0.0 -229.193391697712 3.175
vertex -3.175 -186.330891697712 3.175
endloop
endfacet
facet normal -0.0 -0.0 1.0
outer loop
vertex -72.8265624999999 -127.593391697712 3.175
vertex -67.3099999999999 -130.768391697712 3.175
vertex -28.3765625 -127.593391697712 3.175
endloop
endfacet
facet normal -0.0 -0.0 1.0
outer loop
vertex -67.3099999999999 -130.768391697712 3.175
vertex -72.8265624999999 -127.593391697712 3.175
vertex -69.6515624999999 -132.355891697712 3.175
endloop
endfacet
facet normal -0.0 -0.0 1.0
outer loop
vertex -28.3765625 -127.593391697712 3.175
vertex -67.3099999999999 -130.768391697712 3.175
vertex -58.7375 -130.768391697712 3.175
endloop
endfacet
facet normal -0.0 -0.0 1.0
outer loop
vertex -28.3765625 -127.593391697712 3.175
vertex -58.7375 -130.768391697712 3.175
vertex -42.8625 -130.768391697712 3.175
endloop
endfacet
facet normal -0.0 -0.0 1.0
outer loop
vertex -42.8625 -130.768391697712 3.175
vertex -58.7375 -130.768391697712 3.175
vertex -53.975 -135.530891697712 3.175
endloop
endfacet
facet normal -0.0 -0.0 1.0
outer loop
vertex -42.8625 -130.768391697712 3.175
vertex -53.975 -135.530891697712 3.175
vertex -47.625 -135.530891697712 3.175
endloop
endfacet
facet normal -0.0 -0.0 1.0
outer loop
vertex -47.625 -135.530891697712 3.175
vertex -53.975 -135.530891697712 3.175
vertex -50.8 -175.218391697712 3.175
endloop
endfacet
facet normal -0.0 -0.0 1.0
outer loop
vertex -28.3765625 -127.593391697712 3.175
vertex -42.8625 -130.768391697712 3.175
vertex -7.9375 -130.768391697712 3.175
endloop
endfacet
facet normal -0.0 -0.0 1.0
outer loop
vertex -28.3765625 -127.593391697712 3.175
vertex -7.9375 -130.768391697712 3.175
vertex -22.4234375 -127.593391697712 3.175
endloop
endfacet
facet normal -0.0 -0.0 1.0
outer loop
vertex -22.4234375 -127.593391697712 3.175
vertex -7.9375 -130.768391697712 3.175
vertex 0.0 -127.593391697712 3.175
endloop
endfacet
facet normal -0.0 -0.0 1.0
outer loop
vertex 0.0 -127.593391697712 3.175
vertex -7.9375 -130.768391697712 3.175
vertex -3.175 -135.530891697712 3.175
endloop
endfacet
facet normal -0.0 -0.0 1.0
outer loop
vertex 0.0 -127.593391697712 3.175
vertex -3.175 -135.530891697712 3.175
vertex -3.175 -186.330891697712 3.175
endloop
endfacet
facet normal -0.0 -0.0 1.0
outer loop
vertex 0.0 -127.593391697712 3.175
vertex -3.175 -186.330891697712 3.175
vertex 0.0 -229.193391697712 3.175
endloop
endfacet
facet normal -0.0 -0.0 1.0
outer loop
vertex -38.1 -221.255891697712 3.175
vertex -31.9484375 -224.430891697712 3.175
vertex -12.7 -221.255891697712 3.175
endloop
endfacet
facet normal -0.0 -0.0 1.0
outer loop
vertex -31.9484375 -224.430891697712 3.175
vertex -38.1 -221.255891697712 3.175
vertex -34.29 -226.018391697712 3.175
endloop
endfacet
facet normal -0.0 -0.0 1.0
outer loop
vertex -12.7 -221.255891697712 3.175
vertex -31.9484375 -224.430891697712 3.175
vertex -18.8515625 -224.430891697712 3.175
endloop
endfacet
facet normal -0.0 -0.0 1.0
outer loop
vertex -12.7 -221.255891697712 3.175
vertex -18.8515625 -224.430891697712 3.175
vertex -16.51 -226.018391697712 3.175
endloop
endfacet
facet normal -0.0 -0.0 1.0
outer loop
vertex -28.3765625 -127.593391697712 3.175
vertex -19.2484375 -122.830891697712 3.175
vertex -31.5515625 -122.830891697712 3.175
endloop
endfacet
facet normal -0.0 -0.0 1.0
outer loop
vertex -19.2484375 -122.830891697712 3.175
vertex -28.3765625 -127.593391697712 3.175
vertex -22.4234375 -127.593391697712 3.175
endloop
endfacet
facet normal -0.0 -0.0 1.0
outer loop
vertex -50.8 -175.218391697712 3.175
vertex -47.625 -170.455891697712 3.175
vertex -47.625 -135.530891697712 3.175
endloop
endfacet
facet normal -0.0 -0.0 1.0
outer loop
vertex -47.625 -170.455891697712 3.175
vertex -50.8 -175.218391697712 3.175
vertex -47.625 -178.393391697712 3.175
endloop
endfacet
facet normal -0.0 -0.0 1.0
outer loop
vertex -47.625 -170.455891697712 3.175
vertex -47.625 -178.393391697712 3.175
vertex -42.8625 -175.218391697712 3.175
endloop
endfacet
facet normal -0.0 -0.0 1.0
outer loop
vertex -101.6 -155.969954197712 3.175
vertex -106.3625 -146.841829197712 3.175
vertex -106.3625 -159.144954197712 3.175
endloop
endfacet
facet normal -0.0 -0.0 1.0
outer loop
vertex -106.3625 -146.841829197712 3.175
vertex -101.6 -155.969954197712 3.175
vertex -101.6 -150.016829197712 3.175
endloop
endfacet
endsolid Chess Board
