solid Layer Fan Adapter
facet normal 0.0 0.0 1.0
  outer loop
    vertex 0.30000000000000104 31.35000000000001 10.00100040435791
    vertex 3.5 33.75000000000001 10.00100040435791
    vertex 0.30000000000000104 38.849999999999994 10.00100040435791
  endloop
endfacet
facet normal 0.0 0.0 1.0
  outer loop
    vertex 3.5 33.75000000000001 10.00100040435791
    vertex 0.30000000000000104 31.35000000000001 10.00100040435791
    vertex 15.7 31.35000000000001 10.00100040435791
  endloop
endfacet
facet normal 0.0 0.0 1.0
  outer loop
    vertex 3.5 33.75000000000001 10.00100040435791
    vertex 15.7 31.35000000000001 10.00100040435791
    vertex 12.5 33.75000000000001 10.00100040435791
  endloop
endfacet
facet normal 0.0 0.0 1.0
  outer loop
    vertex 12.5 33.75000000000001 10.00100040435791
    vertex 15.7 31.35000000000001 10.00100040435791
    vertex 12.5 36.45 10.00100040435791
  endloop
endfacet
facet normal 0.0 0.0 1.0
  outer loop
    vertex 0.30000000000000104 38.849999999999994 10.00100040435791
    vertex 3.5 36.45 10.00100040435791
    vertex 15.7 38.849999999999994 10.00100040435791
  endloop
endfacet
facet normal 0.0 0.0 1.0
  outer loop
    vertex 3.5 36.45 10.00100040435791
    vertex 0.30000000000000104 38.849999999999994 10.00100040435791
    vertex 3.5 33.75000000000001 10.00100040435791
  endloop
endfacet
facet normal 0.0 0.0 1.0
  outer loop
    vertex 15.7 38.849999999999994 10.00100040435791
    vertex 3.5 36.45 10.00100040435791
    vertex 12.5 36.45 10.00100040435791
  endloop
endfacet
facet normal 0.0 0.0 1.0
  outer loop
    vertex 15.7 38.849999999999994 10.00100040435791
    vertex 12.5 36.45 10.00100040435791
    vertex 15.7 31.35000000000001 10.00100040435791
  endloop
endfacet
facet normal 0.0 1.0 0.0
  outer loop
    vertex 3.7499999999999996 -29.129001617431644 10.00100040435791
    vertex 4.499999999999999 -29.129001617431644 0.0
    vertex 3.7499999999999996 -29.129001617431644 0.0
  endloop
endfacet
facet normal 0.0 1.0 0.0
  outer loop
    vertex 4.499999999999999 -29.129001617431644 0.0
    vertex 3.7499999999999996 -29.129001617431644 10.00100040435791
    vertex 4.499999999999999 -29.129001617431644 4.684000015258788
  endloop
endfacet
facet normal 0.0 1.0 0.0
  outer loop
    vertex 4.499999999999999 -29.129001617431644 4.684000015258788
    vertex 3.7499999999999996 -29.129001617431644 10.00100040435791
    vertex 11.499999999999998 -29.129001617431644 4.684000015258788
  endloop
endfacet
facet normal 0.0 1.0 0.0
  outer loop
    vertex 11.499999999999998 -29.129001617431644 4.684000015258788
    vertex 12.249999999999998 -29.129001617431644 0.0
    vertex 11.499999999999998 -29.129001617431644 0.0
  endloop
endfacet
facet normal 0.0 1.0 0.0
  outer loop
    vertex 12.249999999999998 -29.129001617431644 0.0
    vertex 11.499999999999998 -29.129001617431644 4.684000015258788
    vertex 12.249999999999998 -29.129001617431644 10.00100040435791
  endloop
endfacet
facet normal 0.0 1.0 0.0
  outer loop
    vertex 12.249999999999998 -29.129001617431644 10.00100040435791
    vertex 11.499999999999998 -29.129001617431644 4.684000015258788
    vertex 3.7499999999999996 -29.129001617431644 10.00100040435791
  endloop
endfacet
facet normal 1.0 0.0 0.0
  outer loop
    vertex 15.7 38.849999999999994 0.0
    vertex 15.7 31.35000000000001 10.00100040435791
    vertex 15.7 31.35000000000001 0.0
  endloop
endfacet
facet normal 1.0 0.0 0.0
  outer loop
    vertex 15.7 31.35000000000001 10.00100040435791
    vertex 15.7 38.849999999999994 0.0
    vertex 15.7 38.849999999999994 10.00100040435791
  endloop
endfacet
facet normal 0.0 1.0 0.0
  outer loop
    vertex 0.30000000000000104 38.849999999999994 10.00100040435791
    vertex 15.7 38.849999999999994 0.0
    vertex 0.30000000000000104 38.849999999999994 0.0
  endloop
endfacet
facet normal 0.0 1.0 0.0
  outer loop
    vertex 15.7 38.849999999999994 0.0
    vertex 0.30000000000000104 38.849999999999994 10.00100040435791
    vertex 15.7 38.849999999999994 10.00100040435791
  endloop
endfacet
facet normal -1.0 0.0 0.0
  outer loop
    vertex 3.7499999999999996 -29.129001617431644 10.00100040435791
    vertex 3.7499999999999996 -31.12900161743164 0.0
    vertex 3.7499999999999996 -31.12900161743164 10.00100040435791
  endloop
endfacet
facet normal -1.0 0.0 0.0
  outer loop
    vertex 3.7499999999999996 -31.12900161743164 0.0
    vertex 3.7499999999999996 -29.129001617431644 10.00100040435791
    vertex 3.7499999999999996 -29.129001617431644 0.0
  endloop
endfacet
facet normal 0.0 0.0 1.0
  outer loop
    vertex 11.499999999999998 -29.129001617431644 4.684000015258788
    vertex 4.499999999999999 31.35000000000001 4.684000015258788
    vertex 4.499999999999999 -29.129001617431644 4.684000015258788
  endloop
endfacet
facet normal 0.0 0.0 1.0
  outer loop
    vertex 4.499999999999999 31.35000000000001 4.684000015258788
    vertex 11.499999999999998 -29.129001617431644 4.684000015258788
    vertex 11.499999999999998 31.35000000000001 4.684000015258788
  endloop
endfacet
facet normal -1.0 0.0 0.0
  outer loop
    vertex 12.5 36.45 10.00100040435791
    vertex 12.5 33.75000000000001 0.0
    vertex 12.5 33.75000000000001 10.00100040435791
  endloop
endfacet
facet normal -1.0 0.0 0.0
  outer loop
    vertex 12.5 33.75000000000001 0.0
    vertex 12.5 36.45 10.00100040435791
    vertex 12.5 36.45 0.0
  endloop
endfacet
facet normal 0.0 -1.0 0.0
  outer loop
    vertex 15.7 31.35000000000001 10.00100040435791
    vertex 11.499999999999998 31.35000000000001 0.0
    vertex 15.7 31.35000000000001 0.0
  endloop
endfacet
facet normal 0.0 -1.0 0.0
  outer loop
    vertex 11.499999999999998 31.35000000000001 0.0
    vertex 15.7 31.35000000000001 10.00100040435791
    vertex 11.499999999999998 31.35000000000001 4.684000015258788
  endloop
endfacet
facet normal 0.0 -1.0 0.0
  outer loop
    vertex 11.499999999999998 31.35000000000001 4.684000015258788
    vertex 15.7 31.35000000000001 10.00100040435791
    vertex 4.499999999999999 31.35000000000001 4.684000015258788
  endloop
endfacet
facet normal 0.0 -1.0 0.0
  outer loop
    vertex 4.499999999999999 31.35000000000001 4.684000015258788
    vertex 0.30000000000000104 31.35000000000001 0.0
    vertex 4.499999999999999 31.35000000000001 0.0
  endloop
endfacet
facet normal 0.0 -1.0 0.0
  outer loop
    vertex 0.30000000000000104 31.35000000000001 0.0
    vertex 4.499999999999999 31.35000000000001 4.684000015258788
    vertex 0.30000000000000104 31.35000000000001 10.00100040435791
  endloop
endfacet
facet normal 0.0 -1.0 0.0
  outer loop
    vertex 0.30000000000000104 31.35000000000001 10.00100040435791
    vertex 4.499999999999999 31.35000000000001 4.684000015258788
    vertex 15.7 31.35000000000001 10.00100040435791
  endloop
endfacet
facet normal -1.0 0.0 0.0
  outer loop
    vertex 4.499999999999999 31.35000000000001 4.684000015258788
    vertex 4.499999999999999 -29.129001617431644 0.0
    vertex 4.499999999999999 -29.129001617431644 4.684000015258788
  endloop
endfacet
facet normal -1.0 0.0 0.0
  outer loop
    vertex 4.499999999999999 -29.129001617431644 0.0
    vertex 4.499999999999999 31.35000000000001 4.684000015258788
    vertex 4.499999999999999 31.35000000000001 0.0
  endloop
endfacet
facet normal 0.0 -1.0 0.0
  outer loop
    vertex 12.5 36.45 10.00100040435791
    vertex 3.5 36.45 0.0
    vertex 12.5 36.45 0.0
  endloop
endfacet
facet normal 0.0 -1.0 0.0
  outer loop
    vertex 3.5 36.45 0.0
    vertex 12.5 36.45 10.00100040435791
    vertex 3.5 36.45 10.00100040435791
  endloop
endfacet
facet normal 1.0 0.0 0.0
  outer loop
    vertex 11.499999999999998 31.35000000000001 0.0
    vertex 11.499999999999998 -29.129001617431644 4.684000015258788
    vertex 11.499999999999998 -29.129001617431644 0.0
  endloop
endfacet
facet normal 1.0 0.0 0.0
  outer loop
    vertex 11.499999999999998 -29.129001617431644 4.684000015258788
    vertex 11.499999999999998 31.35000000000001 0.0
    vertex 11.499999999999998 31.35000000000001 4.684000015258788
  endloop
endfacet
facet normal 1.0 0.0 0.0
  outer loop
    vertex 12.249999999999998 -29.129001617431644 0.0
    vertex 12.249999999999998 -31.12900161743164 10.00100040435791
    vertex 12.249999999999998 -31.12900161743164 0.0
  endloop
endfacet
facet normal 1.0 0.0 0.0
  outer loop
    vertex 12.249999999999998 -31.12900161743164 10.00100040435791
    vertex 12.249999999999998 -29.129001617431644 0.0
    vertex 12.249999999999998 -29.129001617431644 10.00100040435791
  endloop
endfacet
facet normal 0.0 0.0 -1.0
  outer loop
    vertex 0.30000000000000104 38.849999999999994 0.0
    vertex 3.5 36.45 0.0
    vertex 0.30000000000000104 31.35000000000001 0.0
  endloop
endfacet
facet normal 0.0 0.0 -1.0
  outer loop
    vertex 3.5 36.45 0.0
    vertex 0.30000000000000104 38.849999999999994 0.0
    vertex 15.7 38.849999999999994 0.0
  endloop
endfacet
facet normal 0.0 0.0 -1.0
  outer loop
    vertex 3.5 36.45 0.0
    vertex 15.7 38.849999999999994 0.0
    vertex 12.5 36.45 0.0
  endloop
endfacet
facet normal 0.0 0.0 -1.0
  outer loop
    vertex 12.5 36.45 0.0
    vertex 15.7 38.849999999999994 0.0
    vertex 12.5 33.75000000000001 0.0
  endloop
endfacet
facet normal 0.0 0.0 -1.0
  outer loop
    vertex 0.30000000000000104 31.35000000000001 0.0
    vertex 3.5 33.75000000000001 0.0
    vertex 4.499999999999999 31.35000000000001 0.0
  endloop
endfacet
facet normal 0.0 0.0 -1.0
  outer loop
    vertex 3.5 33.75000000000001 0.0
    vertex 0.30000000000000104 31.35000000000001 0.0
    vertex 3.5 36.45 0.0
  endloop
endfacet
facet normal 0.0 0.0 -1.0
  outer loop
    vertex 4.499999999999999 31.35000000000001 0.0
    vertex 3.5 33.75000000000001 0.0
    vertex 12.5 33.75000000000001 0.0
  endloop
endfacet
facet normal 0.0 0.0 -1.0
  outer loop
    vertex 4.499999999999999 31.35000000000001 0.0
    vertex 12.5 33.75000000000001 0.0
    vertex 11.499999999999998 31.35000000000001 0.0
  endloop
endfacet
facet normal 0.0 0.0 -1.0
  outer loop
    vertex 4.499999999999999 31.35000000000001 0.0
    vertex 11.499999999999998 31.35000000000001 0.0
    vertex 4.499999999999999 -29.129001617431644 0.0
  endloop
endfacet
facet normal 0.0 0.0 -1.0
  outer loop
    vertex 11.499999999999998 31.35000000000001 0.0
    vertex 12.5 33.75000000000001 0.0
    vertex 15.7 31.35000000000001 0.0
  endloop
endfacet
facet normal 0.0 0.0 -1.0
  outer loop
    vertex 15.7 31.35000000000001 0.0
    vertex 12.5 33.75000000000001 0.0
    vertex 15.7 38.849999999999994 0.0
  endloop
endfacet
facet normal 0.0 0.0 -1.0
  outer loop
    vertex 4.499999999999999 -29.129001617431644 0.0
    vertex 3.7499999999999996 -31.12900161743164 0.0
    vertex 3.7499999999999996 -29.129001617431644 0.0
  endloop
endfacet
facet normal 0.0 0.0 -1.0
  outer loop
    vertex 3.7499999999999996 -31.12900161743164 0.0
    vertex 4.499999999999999 -29.129001617431644 0.0
    vertex 12.249999999999998 -31.12900161743164 0.0
  endloop
endfacet
facet normal 0.0 0.0 -1.0
  outer loop
    vertex 12.249999999999998 -31.12900161743164 0.0
    vertex 4.499999999999999 -29.129001617431644 0.0
    vertex 11.499999999999998 -29.129001617431644 0.0
  endloop
endfacet
facet normal 0.0 0.0 -1.0
  outer loop
    vertex 11.499999999999998 -29.129001617431644 0.0
    vertex 4.499999999999999 -29.129001617431644 0.0
    vertex 11.499999999999998 31.35000000000001 0.0
  endloop
endfacet
facet normal 0.0 0.0 -1.0
  outer loop
    vertex 12.249999999999998 -31.12900161743164 0.0
    vertex 11.499999999999998 -29.129001617431644 0.0
    vertex 12.249999999999998 -29.129001617431644 0.0
  endloop
endfacet
facet normal 0.0 1.0 0.0
  outer loop
    vertex 3.5 33.75000000000001 10.00100040435791
    vertex 12.5 33.75000000000001 0.0
    vertex 3.5 33.75000000000001 0.0
  endloop
endfacet
facet normal 0.0 1.0 0.0
  outer loop
    vertex 12.5 33.75000000000001 0.0
    vertex 3.5 33.75000000000001 10.00100040435791
    vertex 12.5 33.75000000000001 10.00100040435791
  endloop
endfacet
facet normal 1.0 0.0 0.0
  outer loop
    vertex 3.5 36.45 0.0
    vertex 3.5 33.75000000000001 10.00100040435791
    vertex 3.5 33.75000000000001 0.0
  endloop
endfacet
facet normal 1.0 0.0 0.0
  outer loop
    vertex 3.5 33.75000000000001 10.00100040435791
    vertex 3.5 36.45 0.0
    vertex 3.5 36.45 10.00100040435791
  endloop
endfacet
facet normal 0.0 0.0 1.0
  outer loop
    vertex 12.249999999999998 -31.12900161743164 10.00100040435791
    vertex 3.7499999999999996 -29.129001617431644 10.00100040435791
    vertex 3.7499999999999996 -31.12900161743164 10.00100040435791
  endloop
endfacet
facet normal 0.0 0.0 1.0
  outer loop
    vertex 3.7499999999999996 -29.129001617431644 10.00100040435791
    vertex 12.249999999999998 -31.12900161743164 10.00100040435791
    vertex 12.249999999999998 -29.129001617431644 10.00100040435791
  endloop
endfacet
facet normal -1.0 0.0 0.0
  outer loop
    vertex 0.30000000000000104 38.849999999999994 10.00100040435791
    vertex 0.30000000000000104 31.35000000000001 0.0
    vertex 0.30000000000000104 31.35000000000001 10.00100040435791
  endloop
endfacet
facet normal -1.0 0.0 0.0
  outer loop
    vertex 0.30000000000000104 31.35000000000001 0.0
    vertex 0.30000000000000104 38.849999999999994 10.00100040435791
    vertex 0.30000000000000104 38.849999999999994 0.0
  endloop
endfacet
facet normal 0.0 -1.0 0.0
  outer loop
    vertex 12.249999999999998 -31.12900161743164 10.00100040435791
    vertex 3.7499999999999996 -31.12900161743164 0.0
    vertex 12.249999999999998 -31.12900161743164 0.0
  endloop
endfacet
facet normal 0.0 -1.0 0.0
  outer loop
    vertex 3.7499999999999996 -31.12900161743164 0.0
    vertex 12.249999999999998 -31.12900161743164 10.00100040435791
    vertex 3.7499999999999996 -31.12900161743164 10.00100040435791
  endloop
endfacet
endsolid Layer Fan Adapter
