solid SolderHolder
facet normal 0.25456405788779857 -0.9670559138083473 0.0
  outer loop
    vertex 46.25350201057174 49.688821477552594 141.2
    vertex 45.36122560673029 49.45394208859884 1.2
    vertex 46.25350201057174 49.688821477552594 1.2
  endloop
endfacet
facet normal 0.25456405788779857 -0.9670559138083473 0.0
  outer loop
    vertex 45.36122560673029 49.45394208859884 1.2
    vertex 46.25350201057174 49.688821477552594 141.2
    vertex 45.36122560673029 49.45394208859884 141.2
  endloop
endfacet
facet normal 0.9834064562864367 -0.18141593572272777 0.0
  outer loop
    vertex 40.54665026024792 44.26417420734953 1.2
    vertex 40.37926267033212 43.35681159904472 141.2
    vertex 40.37926267033212 43.35681159904472 1.2
  endloop
endfacet
facet normal 0.9834064562864367 -0.18141593572272777 0.0
  outer loop
    vertex 40.37926267033212 43.35681159904472 141.2
    vertex 40.54665026024792 44.26417420734953 1.2
    vertex 40.54665026024792 44.26417420734953 141.2
  endloop
endfacet
facet normal -0.9022261470624302 -0.43126323696424906 -0.0
  outer loop
    vertex 54.09084105193176 46.05878653574941 141.2
    vertex 54.488756006685605 45.226326808801154 1.2
    vertex 54.488756006685605 45.226326808801154 141.2
  endloop
endfacet
facet normal -0.9022261470624302 -0.43126323696424906 -0.0
  outer loop
    vertex 54.488756006685605 45.226326808801154 1.2
    vertex 54.09084105193176 46.05878653574941 141.2
    vertex 54.09084105193176 46.05878653574941 1.2
  endloop
endfacet
facet normal 0.7743678532670442 -0.6327356697915723 0.0
  outer loop
    vertex 42.28768497731763 47.47714456931366 1.2
    vertex 41.703876843824645 46.762656240875145 141.2
    vertex 41.703876843824645 46.762656240875145 1.2
  endloop
endfacet
facet normal 0.7743678532670442 -0.6327356697915723 0.0
  outer loop
    vertex 41.703876843824645 46.762656240875145 141.2
    vertex 42.28768497731763 47.47714456931366 1.2
    vertex 42.28768497731763 47.47714456931366 141.2
  endloop
endfacet
facet normal -0.9491634404170909 -0.31478367711111016 -0.0
  outer loop
    vertex 54.488756006685605 45.226326808801154 141.2
    vertex 54.7791984137793 44.35055930748068 1.2
    vertex 54.7791984137793 44.35055930748068 141.2
  endloop
endfacet
facet normal -0.9491634404170909 -0.31478367711111016 -0.0
  outer loop
    vertex 54.7791984137793 44.35055930748068 1.2
    vertex 54.488756006685605 45.226326808801154 141.2
    vertex 54.488756006685605 45.226326808801154 1.2
  endloop
endfacet
facet normal 0.9983894484935708 -0.056731905808844386 0.0
  outer loop
    vertex 40.37926267033212 43.35681159904472 1.2
    vertex 40.326917671273236 42.43562458801987 141.2
    vertex 40.326917671273236 42.43562458801987 1.2
  endloop
endfacet
facet normal 0.9983894484935708 -0.056731905808844386 0.0
  outer loop
    vertex 40.326917671273236 42.43562458801987 141.2
    vertex 40.37926267033212 43.35681159904472 1.2
    vertex 40.37926267033212 43.35681159904472 141.2
  endloop
endfacet
facet normal -0.362474555290492 -0.9319936677719224 -0.0
  outer loop
    vertex 50.76190645655448 49.14705691694749 141.2
    vertex 49.901981041272556 49.48150241080206 1.2
    vertex 50.76190645655448 49.14705691694749 1.2
  endloop
endfacet
facet normal -0.362474555290492 -0.9319936677719224 -0.0
  outer loop
    vertex 49.901981041272556 49.48150241080206 1.2
    vertex 50.76190645655448 49.14705691694749 141.2
    vertex 49.901981041272556 49.48150241080206 141.2
  endloop
endfacet
facet normal -0.47642611519942707 -0.8792145112291895 -0.0
  outer loop
    vertex 51.57313396789389 48.70747139278457 141.2
    vertex 50.76190645655448 49.14705691694749 1.2
    vertex 51.57313396789389 48.70747139278457 1.2
  endloop
endfacet
facet normal -0.47642611519942707 -0.8792145112291895 -0.0
  outer loop
    vertex 50.76190645655448 49.14705691694749 1.2
    vertex 51.57313396789389 48.70747139278457 141.2
    vertex 50.76190645655448 49.14705691694749 141.2
  endloop
endfacet
facet normal 0.13135249954167338 -0.9913357256066961 0.0
  outer loop
    vertex 47.168180741773924 49.81001688544277 141.2
    vertex 46.25350201057174 49.688821477552594 1.2
    vertex 47.168180741773924 49.81001688544277 1.2
  endloop
endfacet
facet normal 0.13135249954167338 -0.9913357256066961 0.0
  outer loop
    vertex 46.25350201057174 49.688821477552594 1.2
    vertex 47.168180741773924 49.81001688544277 141.2
    vertex 46.25350201057174 49.688821477552594 141.2
  endloop
endfacet
facet normal 0.006069433811591854 -0.9999815808169703 0.0
  outer loop
    vertex 48.09083677034349 49.81561698828836 141.2
    vertex 47.168180741773924 49.81001688544277 1.2
    vertex 48.09083677034349 49.81561698828836 1.2
  endloop
endfacet
facet normal 0.006069433811591854 -0.9999815808169703 0.0
  outer loop
    vertex 47.168180741773924 49.81001688544277 1.2
    vertex 48.09083677034349 49.81561698828836 141.2
    vertex 47.168180741773924 49.81001688544277 141.2
  endloop
endfacet
facet normal 0.9491634404170928 0.31478367711110466 0.0
  outer loop
    vertex 40.56883018414759 40.60987694469038 1.2
    vertex 40.85927259124127 39.734109443369924 141.2
    vertex 40.85927259124127 39.734109443369924 1.2
  endloop
endfacet
facet normal 0.9491634404170928 0.31478367711110466 0.0
  outer loop
    vertex 40.85927259124127 39.734109443369924 141.2
    vertex 40.56883018414759 40.60987694469038 1.2
    vertex 40.56883018414759 40.60987694469038 141.2
  endloop
endfacet
facet normal 0.9529145568051249 -0.30323892795762997 0.0
  outer loop
    vertex 40.82644063873515 45.143402762569025 1.2
    vertex 40.54665026024792 44.26417420734953 141.2
    vertex 40.54665026024792 44.26417420734953 1.2
  endloop
endfacet
facet normal 0.9529145568051249 -0.30323892795762997 0.0
  outer loop
    vertex 40.54665026024792 44.26417420734953 141.2
    vertex 40.82644063873515 45.143402762569025 1.2
    vertex 40.82644063873515 45.143402762569025 141.2
  endloop
endfacet
facet normal 0.3737609889718368 -0.9275250525580399 0.0
  outer loop
    vertex 45.36122560673029 49.45394208859884 141.2
    vertex 44.50542326215834 49.10908290685549 1.2
    vertex 45.36122560673029 49.45394208859884 1.2
  endloop
endfacet
facet normal 0.3737609889718368 -0.9275250525580399 0.0
  outer loop
    vertex 44.50542326215834 49.10908290685549 1.2
    vertex 45.36122560673029 49.45394208859884 141.2
    vertex 44.50542326215834 49.10908290685549 141.2
  endloop
endfacet
facet normal 0.9073946255194325 -0.4202796611524864 0.0
  outer loop
    vertex 41.214221344386445 45.98063130516188 1.2
    vertex 40.82644063873515 45.143402762569025 141.2
    vertex 40.82644063873515 45.143402762569025 1.2
  endloop
endfacet
facet normal 0.9073946255194325 -0.4202796611524864 0.0
  outer loop
    vertex 40.82644063873515 45.143402762569025 141.2
    vertex 41.214221344386445 45.98063130516188 1.2
    vertex 41.214221344386445 45.98063130516188 141.2
  endloop
endfacet
facet normal -0.5828641506685188 -0.8125696166270718 -0.0
  outer loop
    vertex 52.32287003283309 48.169678364624986 141.2
    vertex 51.57313396789389 48.70747139278457 1.2
    vertex 52.32287003283309 48.169678364624986 1.2
  endloop
endfacet
facet normal -0.5828641506685188 -0.8125696166270718 -0.0
  outer loop
    vertex 51.57313396789389 48.70747139278457 1.2
    vertex 52.32287003283309 48.169678364624986 141.2
    vertex 51.57313396789389 48.70747139278457 141.2
  endloop
endfacet
facet normal -0.6801100702953904 -0.7331100137651915 -0.0
  outer loop
    vertex 52.999290865757224 47.54215914978494 141.2
    vertex 52.32287003283309 48.169678364624986 1.2
    vertex 52.999290865757224 47.54215914978494 1.2
  endloop
endfacet
facet normal -0.6801100702953904 -0.7331100137651915 -0.0
  outer loop
    vertex 52.32287003283309 48.169678364624986 1.2
    vertex 52.999290865757224 47.54215914978494 141.2
    vertex 52.32287003283309 48.169678364624986 141.2
  endloop
endfacet
facet normal -0.7666302478356393 -0.6420888280475424 -0.0
  outer loop
    vertex 52.999290865757224 47.54215914978494 141.2
    vertex 53.59172890605718 46.834810101143994 1.2
    vertex 53.59172890605718 46.834810101143994 141.2
  endloop
endfacet
facet normal -0.7666302478356393 -0.6420888280475424 -0.0
  outer loop
    vertex 53.59172890605718 46.834810101143994 1.2
    vertex 52.999290865757224 47.54215914978494 141.2
    vertex 52.999290865757224 47.54215914978494 1.2
  endloop
endfacet
facet normal -0.9811318593136221 -0.19333979062726617 -0.0
  outer loop
    vertex 54.7791984137793 44.35055930748068 141.2
    vertex 54.9575878229511 43.44529540844187 1.2
    vertex 54.9575878229511 43.44529540844187 141.2
  endloop
endfacet
facet normal -0.9811318593136221 -0.19333979062726617 -0.0
  outer loop
    vertex 54.9575878229511 43.44529540844187 1.2
    vertex 54.7791984137793 44.35055930748068 141.2
    vertex 54.7791984137793 44.35055930748068 1.2
  endloop
endfacet
facet normal 0.9976272426890133 0.06884682014963926 0.0
  outer loop
    vertex 40.326917671273236 42.43562458801987 1.2
    vertex 40.390440774975815 41.51514084372908 141.2
    vertex 40.390440774975815 41.51514084372908 1.2
  endloop
endfacet
facet normal 0.9976272426890133 0.06884682014963926 0.0
  outer loop
    vertex 40.390440774975815 41.51514084372908 141.2
    vertex 40.326917671273236 42.43562458801987 1.2
    vertex 40.326917671273236 42.43562458801987 141.2
  endloop
endfacet
facet normal 0.9811318593136223 0.19333979062726464 0.0
  outer loop
    vertex 40.390440774975815 41.51514084372908 1.2
    vertex 40.56883018414759 40.60987694469038 141.2
    vertex 40.56883018414759 40.60987694469038 1.2
  endloop
endfacet
facet normal 0.9811318593136223 0.19333979062726464 0.0
  outer loop
    vertex 40.56883018414759 40.60987694469038 141.2
    vertex 40.390440774975815 41.51514084372908 1.2
    vertex 40.390440774975815 41.51514084372908 141.2
  endloop
endfacet
facet normal -0.9976272426890131 -0.06884682014964263 -0.0
  outer loop
    vertex 54.9575878229511 43.44529540844187 141.2
    vertex 55.02111092665366 42.52481166415129 1.2
    vertex 55.02111092665366 42.52481166415129 141.2
  endloop
endfacet
facet normal -0.9976272426890131 -0.06884682014964263 -0.0
  outer loop
    vertex 55.02111092665366 42.52481166415129 1.2
    vertex 54.9575878229511 43.44529540844187 141.2
    vertex 54.9575878229511 43.44529540844187 1.2
  endloop
endfacet
facet normal 0.4870634859858042 -0.8733665671522791 0.0
  outer loop
    vertex 44.50542326215834 49.10908290685549 141.2
    vertex 43.69959149106142 48.65968256762755 1.2
    vertex 44.50542326215834 49.10908290685549 1.2
  endloop
endfacet
facet normal 0.4870634859858042 -0.8733665671522791 0.0
  outer loop
    vertex 43.69959149106142 48.65968256762755 1.2
    vertex 44.50542326215834 49.10908290685549 141.2
    vertex 43.69959149106142 48.65968256762755 141.2
  endloop
endfacet
facet normal 0.688958923965115 -0.7248003870644876 0.0
  outer loop
    vertex 42.95643874185018 48.112828382723336 141.2
    vertex 42.28768497731763 47.47714456931366 1.2
    vertex 42.95643874185018 48.112828382723336 1.2
  endloop
endfacet
facet normal 0.688958923965115 -0.7248003870644876 0.0
  outer loop
    vertex 42.28768497731763 47.47714456931366 1.2
    vertex 42.95643874185018 48.112828382723336 141.2
    vertex 42.28768497731763 47.47714456931366 141.2
  endloop
endfacet
facet normal -0.8410602084048113 -0.5409415179463078 -0.0
  outer loop
    vertex 53.59172890605718 46.834810101143994 141.2
    vertex 54.09084105193176 46.05878653574941 1.2
    vertex 54.09084105193176 46.05878653574941 141.2
  endloop
endfacet
facet normal -0.8410602084048113 -0.5409415179463078 -0.0
  outer loop
    vertex 54.09084105193176 46.05878653574941 1.2
    vertex 53.59172890605718 46.834810101143994 141.2
    vertex 53.59172890605718 46.834810101143994 1.2
  endloop
endfacet
facet normal 0.0 0.0 -1.0
  outer loop
    vertex 38.9865144190084 43.524174943095254 0.0
    vertex 38.99982669990486 41.33088375509589 0.0
    vertex 38.92417546681496 42.42711058023408 0.0
  endloop
endfacet
facet normal 0.0 0.0 -1.0
  outer loop
    vertex 38.99982669990486 41.33088375509589 0.0
    vertex 38.9865144190084 43.524174943095254 0.0
    vertex 39.185860433969616 44.60477548332262 0.0
  endloop
endfacet
facet normal 0.0 0.0 -1.0
  outer loop
    vertex 38.99982669990486 41.33088375509589 0.0
    vertex 39.185860433969616 44.60477548332262 0.0
    vertex 39.21227505314041 40.25278261956727 0.0
  endloop
endfacet
facet normal 0.0 0.0 -1.0
  outer loop
    vertex 39.21227505314041 40.25278261956727 0.0
    vertex 39.185860433969616 44.60477548332262 0.0
    vertex 39.51906970595911 45.65187048487731 0.0
  endloop
endfacet
facet normal 0.0 0.0 -1.0
  outer loop
    vertex 39.21227505314041 40.25278261956727 0.0
    vertex 39.51906970595911 45.65187048487731 0.0
    vertex 39.558170089080605 39.20980947258193 0.0
  endloop
endfacet
facet normal 0.0 0.0 -1.0
  outer loop
    vertex 39.558170089080605 39.20980947258193 0.0
    vertex 39.51906970595911 45.65187048487731 0.0
    vertex 39.98088732570807 46.648946634080566 0.0
  endloop
endfacet
facet normal 0.0 0.0 -1.0
  outer loop
    vertex 39.558170089080605 39.20980947258193 0.0
    vertex 39.98088732570807 46.648946634080566 0.0
    vertex 40.03205683638098 38.21841262370977 0.0
  endloop
endfacet
facet normal 0.0 0.0 -1.0
  outer loop
    vertex 40.03205683638098 38.21841262370977 0.0
    vertex 39.98088732570807 46.648946634080566 0.0
    vertex 40.56403015347655 47.58027944443504 0.0
  endloop
endfacet
facet normal 0.0 0.0 -1.0
  outer loop
    vertex 40.03205683638098 38.21841262370977 0.0
    vertex 40.56403015347655 47.58027944443504 0.0
    vertex 40.6264618179504 37.294226993489275 0.0
  endloop
endfacet
facet normal 0.0 0.0 -1.0
  outer loop
    vertex 40.6264618179504 37.294226993489275 0.0
    vertex 40.56403015347655 47.58027944443504 0.0
    vertex 41.259301678518014 48.43118124117019 0.0
  endloop
endfacet
facet normal 0.0 0.0 -1.0
  outer loop
    vertex 40.6264618179504 37.294226993489275 0.0
    vertex 41.259301678518014 48.43118124117019 0.0
    vertex 41.33201091214918 36.45182754139077 0.0
  endloop
endfacet
facet normal 0.0 0.0 -1.0
  outer loop
    vertex 41.33201091214918 36.45182754139077 0.0
    vertex 41.259301678518014 48.43118124117019 0.0
    vertex 42.05573705354748 49.1882327946474 0.0
  endloop
endfacet
facet normal 0.0 0.0 -1.0
  outer loop
    vertex 41.33201091214918 36.45182754139077 0.0
    vertex 42.05573705354748 49.1882327946474 0.0
    vertex 42.1375771882872 35.704499409998874 0.0
  endloop
endfacet
facet normal 0.0 0.0 -1.0
  outer loop
    vertex 42.1375771882872 35.704499409998874 0.0
    vertex 42.05573705354748 49.1882327946474 0.0
    vertex 42.9407760169333 49.83949494962765 0.0
  endloop
endfacet
facet normal 0.0 0.0 -1.0
  outer loop
    vertex 42.1375771882872 35.704499409998874 0.0
    vertex 42.9407760169333 49.83949494962765 0.0
    vertex 43.030456384967806 35.06402841037784 0.0
  endloop
endfacet
facet normal 0.0 0.0 -1.0
  outer loop
    vertex 43.030456384967806 35.06402841037784 0.0
    vertex 42.9407760169333 49.83949494962765 0.0
    vertex 43.90046097552623 50.374696912881774 0.0
  endloop
endfacet
facet normal 0.0 0.0 -1.0
  outer loop
    vertex 43.030456384967806 35.06402841037784 0.0
    vertex 43.90046097552623 50.374696912881774 0.0
    vertex 43.996567263879164 34.54051515279049 0.0
  endloop
endfacet
facet normal 0.0 0.0 -1.0
  outer loop
    vertex 43.996567263879164 34.54051515279049 0.0
    vertex 43.90046097552623 50.374696912881774 0.0
    vertex 44.91965712424126 50.78539822973508 0.0
  endloop
endfacet
facet normal 0.0 0.0 -1.0
  outer loop
    vertex 43.996567263879164 34.54051515279049 0.0
    vertex 44.91965712424126 50.78539822973508 0.0
    vertex 45.02067367933419 34.14221575404068 0.0
  endloop
endfacet
facet normal 0.0 0.0 -1.0
  outer loop
    vertex 45.02067367933419 34.14221575404068 0.0
    vertex 44.91965712424126 50.78539822973508 0.0
    vertex 45.98229113097488 51.06512189507972 0.0
  endloop
endfacet
facet normal 0.0 0.0 -1.0
  outer loop
    vertex 45.02067367933419 34.14221575404068 0.0
    vertex 45.98229113097488 51.06512189507972 0.0
    vertex 46.08662486138961 33.87541163357919 0.0
  endloop
endfacet
facet normal 0.0 0.0 -1.0
  outer loop
    vertex 46.08662486138961 33.87541163357919 0.0
    vertex 45.98229113097488 51.06512189507972 0.0
    vertex 47.071604622654114 51.2094564996144 0.0
  endloop
endfacet
facet normal 0.0 0.0 -1.0
  outer loop
    vertex 46.08662486138961 33.87541163357919 0.0
    vertex 47.071604622654114 51.2094564996144 0.0
    vertex 47.17761012313606 33.74431045176677 0.0
  endloop
endfacet
facet normal 0.0 0.0 -1.0
  outer loop
    vertex 47.17761012313606 33.74431045176677 0.0
    vertex 47.071604622654114 51.2094564996144 0.0
    vertex 48.17041847479084 51.216125800404264 0.0
  endloop
endfacet
facet normal 0.0 0.0 -1.0
  outer loop
    vertex 47.17761012313606 33.74431045176677 0.0
    vertex 48.17041847479084 51.216125800404264 0.0
    vertex 48.27642397527279 33.75097975255665 0.0
  endloop
endfacet
facet normal 0.0 0.0 -1.0
  outer loop
    vertex 48.27642397527279 33.75097975255665 0.0
    vertex 48.17041847479084 51.216125800404264 0.0
    vertex 49.26140373653729 51.08502461859185 0.0
  endloop
endfacet
facet normal 0.0 0.0 -1.0
  outer loop
    vertex 48.27642397527279 33.75097975255665 0.0
    vertex 49.26140373653729 51.08502461859185 0.0
    vertex 49.36573746695202 33.89531435709132 0.0
  endloop
endfacet
facet normal 0.0 0.0 -1.0
  outer loop
    vertex 49.36573746695202 33.89531435709132 0.0
    vertex 49.26140373653729 51.08502461859185 0.0
    vertex 50.32735491859272 50.818220498130366 0.0
  endloop
endfacet
facet normal 0.0 0.0 -1.0
  outer loop
    vertex 49.36573746695202 33.89531435709132 0.0
    vertex 50.32735491859272 50.818220498130366 0.0
    vertex 50.428371473685644 34.17503802243596 0.0
  endloop
endfacet
facet normal 0.0 0.0 -1.0
  outer loop
    vertex 50.428371473685644 34.17503802243596 0.0
    vertex 50.32735491859272 50.818220498130366 0.0
    vertex 51.35146133404772 50.41992109938055 0.0
  endloop
endfacet
facet normal 0.0 0.0 -1.0
  outer loop
    vertex 50.428371473685644 34.17503802243596 0.0
    vertex 51.35146133404772 50.41992109938055 0.0
    vertex 51.44756762240067 34.58573933928927 0.0
  endloop
endfacet
facet normal 0.0 0.0 -1.0
  outer loop
    vertex 51.44756762240067 34.58573933928927 0.0
    vertex 51.35146133404772 50.41992109938055 0.0
    vertex 52.317572212959085 49.89640784179322 0.0
  endloop
endfacet
facet normal 0.0 0.0 -1.0
  outer loop
    vertex 51.44756762240067 34.58573933928927 0.0
    vertex 52.317572212959085 49.89640784179322 0.0
    vertex 52.40725258099361 35.12094130254339 0.0
  endloop
endfacet
facet normal 0.0 0.0 -1.0
  outer loop
    vertex 52.40725258099361 35.12094130254339 0.0
    vertex 52.317572212959085 49.89640784179322 0.0
    vertex 53.210451409639695 49.255936842172176 0.0
  endloop
endfacet
facet normal 0.0 0.0 -1.0
  outer loop
    vertex 52.40725258099361 35.12094130254339 0.0
    vertex 53.210451409639695 49.255936842172176 0.0
    vertex 53.29229154437942 35.77220345752366 0.0
  endloop
endfacet
facet normal 0.0 0.0 -1.0
  outer loop
    vertex 53.29229154437942 35.77220345752366 0.0
    vertex 53.210451409639695 49.255936842172176 0.0
    vertex 54.01601768577772 48.50860871078028 0.0
  endloop
endfacet
facet normal 0.0 0.0 -1.0
  outer loop
    vertex 53.29229154437942 35.77220345752366 0.0
    vertex 54.01601768577772 48.50860871078028 0.0
    vertex 54.08872691940889 36.52925501100086 0.0
  endloop
endfacet
facet normal 0.0 0.0 -1.0
  outer loop
    vertex 54.08872691940889 36.52925501100086 0.0
    vertex 54.01601768577772 48.50860871078028 0.0
    vertex 54.72156677997649 47.666209258681775 0.0
  endloop
endfacet
facet normal 0.0 0.0 -1.0
  outer loop
    vertex 54.08872691940889 36.52925501100086 0.0
    vertex 54.72156677997649 47.666209258681775 0.0
    vertex 54.78399844445035 37.38015680773601 0.0
  endloop
endfacet
facet normal 0.0 0.0 -1.0
  outer loop
    vertex 54.78399844445035 37.38015680773601 0.0
    vertex 54.72156677997649 47.666209258681775 0.0
    vertex 55.31597176154592 46.74202362846128 0.0
  endloop
endfacet
facet normal 0.0 0.0 -1.0
  outer loop
    vertex 54.78399844445035 37.38015680773601 0.0
    vertex 55.31597176154592 46.74202362846128 0.0
    vertex 55.36714127221884 38.31148961809048 0.0
  endloop
endfacet
facet normal 0.0 0.0 -1.0
  outer loop
    vertex 55.36714127221884 38.31148961809048 0.0
    vertex 55.31597176154592 46.74202362846128 0.0
    vertex 55.7898585088463 45.75062677958912 0.0
  endloop
endfacet
facet normal 0.0 0.0 -1.0
  outer loop
    vertex 55.36714127221884 38.31148961809048 0.0
    vertex 55.7898585088463 45.75062677958912 0.0
    vertex 55.82895889196778 39.30856576729374 0.0
  endloop
endfacet
facet normal 0.0 0.0 -1.0
  outer loop
    vertex 55.82895889196778 39.30856576729374 0.0
    vertex 55.7898585088463 45.75062677958912 0.0
    vertex 56.135753544786496 44.70765363260377 0.0
  endloop
endfacet
facet normal 0.0 0.0 -1.0
  outer loop
    vertex 55.82895889196778 39.30856576729374 0.0
    vertex 56.135753544786496 44.70765363260377 0.0
    vertex 56.16216816395729 40.35566076884843 0.0
  endloop
endfacet
facet normal 0.0 0.0 -1.0
  outer loop
    vertex 56.16216816395729 40.35566076884843 0.0
    vertex 56.135753544786496 44.70765363260377 0.0
    vertex 56.348201898022054 43.62955249707516 0.0
  endloop
endfacet
facet normal 0.0 0.0 -1.0
  outer loop
    vertex 56.16216816395729 40.35566076884843 0.0
    vertex 56.348201898022054 43.62955249707516 0.0
    vertex 56.361514178918505 41.43626130907579 0.0
  endloop
endfacet
facet normal 0.0 0.0 -1.0
  outer loop
    vertex 56.361514178918505 41.43626130907579 0.0
    vertex 56.348201898022054 43.62955249707516 0.0
    vertex 56.423853131111954 42.533325671936964 0.0
  endloop
endfacet
facet normal 0.0 0.0 1.0
  outer loop
    vertex 40.6264618179504 37.294226993489275 141.2
    vertex 40.326917671273236 42.43562458801987 141.2
    vertex 40.03205683638098 38.21841262370977 141.2
  endloop
endfacet
facet normal 0.0 0.0 1.0
  outer loop
    vertex 40.326917671273236 42.43562458801987 141.2
    vertex 40.6264618179504 37.294226993489275 141.2
    vertex 40.390440774975815 41.51514084372908 141.2
  endloop
endfacet
facet normal 0.0 0.0 1.0
  outer loop
    vertex 40.390440774975815 41.51514084372908 141.2
    vertex 40.6264618179504 37.294226993489275 141.2
    vertex 40.56883018414759 40.60987694469038 141.2
  endloop
endfacet
facet normal 0.0 0.0 1.0
  outer loop
    vertex 40.56883018414759 40.60987694469038 141.2
    vertex 40.6264618179504 37.294226993489275 141.2
    vertex 40.85927259124127 39.734109443369924 141.2
  endloop
endfacet
facet normal 0.0 0.0 1.0
  outer loop
    vertex 40.85927259124127 39.734109443369924 141.2
    vertex 40.6264618179504 37.294226993489275 141.2
    vertex 41.33201091214918 36.45182754139077 141.2
  endloop
endfacet
facet normal 0.0 0.0 1.0
  outer loop
    vertex 40.85927259124127 39.734109443369924 141.2
    vertex 41.33201091214918 36.45182754139077 141.2
    vertex 41.257187545995095 38.9016497164217 141.2
  endloop
endfacet
facet normal 0.0 0.0 1.0
  outer loop
    vertex 41.257187545995095 38.9016497164217 141.2
    vertex 41.33201091214918 36.45182754139077 141.2
    vertex 41.75629969186976 38.12562615102699 141.2
  endloop
endfacet
facet normal 0.0 0.0 1.0
  outer loop
    vertex 41.75629969186976 38.12562615102699 141.2
    vertex 41.33201091214918 36.45182754139077 141.2
    vertex 42.1375771882872 35.704499409998874 141.2
  endloop
endfacet
facet normal 0.0 0.0 1.0
  outer loop
    vertex 41.75629969186976 38.12562615102699 141.2
    vertex 42.1375771882872 35.704499409998874 141.2
    vertex 42.34873773216961 37.418277102386156 141.2
  endloop
endfacet
facet normal 0.0 0.0 1.0
  outer loop
    vertex 42.34873773216961 37.418277102386156 141.2
    vertex 42.1375771882872 35.704499409998874 141.2
    vertex 43.030456384967806 35.06402841037784 141.2
  endloop
endfacet
facet normal 0.0 0.0 1.0
  outer loop
    vertex 42.34873773216961 37.418277102386156 141.2
    vertex 43.030456384967806 35.06402841037784 141.2
    vertex 43.025158565093875 36.790757887546015 141.2
  endloop
endfacet
facet normal 0.0 0.0 1.0
  outer loop
    vertex 43.025158565093875 36.790757887546015 141.2
    vertex 43.030456384967806 35.06402841037784 141.2
    vertex 43.77489463003302 36.25296485938648 141.2
  endloop
endfacet
facet normal 0.0 0.0 1.0
  outer loop
    vertex 43.77489463003302 36.25296485938648 141.2
    vertex 43.030456384967806 35.06402841037784 141.2
    vertex 43.996567263879164 34.54051515279049 141.2
  endloop
endfacet
facet normal 0.0 0.0 1.0
  outer loop
    vertex 43.77489463003302 36.25296485938648 141.2
    vertex 43.996567263879164 34.54051515279049 141.2
    vertex 44.58612214137238 35.813379335223566 141.2
  endloop
endfacet
facet normal 0.0 0.0 1.0
  outer loop
    vertex 44.58612214137238 35.813379335223566 141.2
    vertex 43.996567263879164 34.54051515279049 141.2
    vertex 45.02067367933419 34.14221575404068 141.2
  endloop
endfacet
facet normal 0.0 0.0 1.0
  outer loop
    vertex 44.58612214137238 35.813379335223566 141.2
    vertex 45.02067367933419 34.14221575404068 141.2
    vertex 45.446047556654364 35.478933841368985 141.2
  endloop
endfacet
facet normal 0.0 0.0 1.0
  outer loop
    vertex 45.446047556654364 35.478933841368985 141.2
    vertex 45.02067367933419 34.14221575404068 141.2
    vertex 46.08662486138961 33.87541163357919 141.2
  endloop
endfacet
facet normal 0.0 0.0 1.0
  outer loop
    vertex 45.446047556654364 35.478933841368985 141.2
    vertex 46.08662486138961 33.87541163357919 141.2
    vertex 46.34110933838533 35.2549027830489 141.2
  endloop
endfacet
facet normal 0.0 0.0 1.0
  outer loop
    vertex 46.34110933838533 35.2549027830489 141.2
    vertex 46.08662486138961 33.87541163357919 141.2
    vertex 47.17761012313606 33.74431045176677 141.2
  endloop
endfacet
facet normal 0.0 0.0 1.0
  outer loop
    vertex 46.34110933838533 35.2549027830489 141.2
    vertex 47.17761012313606 33.74431045176677 141.2
    vertex 47.25719182758345 35.14481926388268 141.2
  endloop
endfacet
facet normal 0.0 0.0 1.0
  outer loop
    vertex 47.25719182758345 35.14481926388268 141.2
    vertex 47.17761012313606 33.74431045176677 141.2
    vertex 48.27642397527279 33.75097975255665 141.2
  endloop
endfacet
facet normal 0.0 0.0 1.0
  outer loop
    vertex 47.25719182758345 35.14481926388268 141.2
    vertex 48.27642397527279 33.75097975255665 141.2
    vertex 48.17984785615298 35.15041936672827 141.2
  endloop
endfacet
facet normal 0.0 0.0 1.0
  outer loop
    vertex 48.17984785615298 35.15041936672827 141.2
    vertex 48.27642397527279 33.75097975255665 141.2
    vertex 49.094526587355155 35.27161477461845 141.2
  endloop
endfacet
facet normal 0.0 0.0 1.0
  outer loop
    vertex 49.094526587355155 35.27161477461845 141.2
    vertex 48.27642397527279 33.75097975255665 141.2
    vertex 49.36573746695202 33.89531435709132 141.2
  endloop
endfacet
facet normal 0.0 0.0 1.0
  outer loop
    vertex 49.094526587355155 35.27161477461845 141.2
    vertex 49.36573746695202 33.89531435709132 141.2
    vertex 49.986802991196626 35.506494163572206 141.2
  endloop
endfacet
facet normal 0.0 0.0 1.0
  outer loop
    vertex 49.986802991196626 35.506494163572206 141.2
    vertex 49.36573746695202 33.89531435709132 141.2
    vertex 50.428371473685644 34.17503802243596 141.2
  endloop
endfacet
facet normal 0.0 0.0 1.0
  outer loop
    vertex 49.986802991196626 35.506494163572206 141.2
    vertex 50.428371473685644 34.17503802243596 141.2
    vertex 50.84260533576857 35.85135334531556 141.2
  endloop
endfacet
facet normal 0.0 0.0 1.0
  outer loop
    vertex 50.84260533576857 35.85135334531556 141.2
    vertex 50.428371473685644 34.17503802243596 141.2
    vertex 51.44756762240067 34.58573933928927 141.2
  endloop
endfacet
facet normal 0.0 0.0 1.0
  outer loop
    vertex 50.84260533576857 35.85135334531556 141.2
    vertex 51.44756762240067 34.58573933928927 141.2
    vertex 51.648437106865465 36.30075368454348 141.2
  endloop
endfacet
facet normal 0.0 0.0 1.0
  outer loop
    vertex 51.648437106865465 36.30075368454348 141.2
    vertex 51.44756762240067 34.58573933928927 141.2
    vertex 52.40725258099361 35.12094130254339 141.2
  endloop
endfacet
facet normal 0.0 0.0 1.0
  outer loop
    vertex 51.648437106865465 36.30075368454348 141.2
    vertex 52.40725258099361 35.12094130254339 141.2
    vertex 52.39158985607676 36.84760786944774 141.2
  endloop
endfacet
facet normal 0.0 0.0 1.0
  outer loop
    vertex 52.39158985607676 36.84760786944774 141.2
    vertex 52.40725258099361 35.12094130254339 141.2
    vertex 53.06034362060928 37.48329168285739 141.2
  endloop
endfacet
facet normal 0.0 0.0 1.0
  outer loop
    vertex 53.06034362060928 37.48329168285739 141.2
    vertex 52.40725258099361 35.12094130254339 141.2
    vertex 53.29229154437942 35.77220345752366 141.2
  endloop
endfacet
facet normal 0.0 0.0 1.0
  outer loop
    vertex 53.06034362060928 37.48329168285739 141.2
    vertex 53.29229154437942 35.77220345752366 141.2
    vertex 53.64415175410221 38.19778001129585 141.2
  endloop
endfacet
facet normal 0.0 0.0 1.0
  outer loop
    vertex 53.64415175410221 38.19778001129585 141.2
    vertex 53.29229154437942 35.77220345752366 141.2
    vertex 54.08872691940889 36.52925501100086 141.2
  endloop
endfacet
facet normal 0.0 0.0 1.0
  outer loop
    vertex 53.64415175410221 38.19778001129585 141.2
    vertex 54.08872691940889 36.52925501100086 141.2
    vertex 54.133807253540475 38.9798049470092 141.2
  endloop
endfacet
facet normal 0.0 0.0 1.0
  outer loop
    vertex 54.133807253540475 38.9798049470092 141.2
    vertex 54.08872691940889 36.52925501100086 141.2
    vertex 54.78399844445035 37.38015680773601 141.2
  endloop
endfacet
facet normal 0.0 0.0 1.0
  outer loop
    vertex 54.133807253540475 38.9798049470092 141.2
    vertex 54.78399844445035 37.38015680773601 141.2
    vertex 54.521587959191756 39.817033489602046 141.2
  endloop
endfacet
facet normal 0.0 0.0 1.0
  outer loop
    vertex 54.521587959191756 39.817033489602046 141.2
    vertex 54.78399844445035 37.38015680773601 141.2
    vertex 54.80137833767897 40.69626204482149 141.2
  endloop
endfacet
facet normal 0.0 0.0 1.0
  outer loop
    vertex 54.80137833767897 40.69626204482149 141.2
    vertex 54.78399844445035 37.38015680773601 141.2
    vertex 55.36714127221884 38.31148961809048 141.2
  endloop
endfacet
facet normal 0.0 0.0 1.0
  outer loop
    vertex 54.80137833767897 40.69626204482149 141.2
    vertex 55.36714127221884 38.31148961809048 141.2
    vertex 54.96876592759478 41.60362465312629 141.2
  endloop
endfacet
facet normal 0.0 0.0 1.0
  outer loop
    vertex 54.96876592759478 41.60362465312629 141.2
    vertex 55.36714127221884 38.31148961809048 141.2
    vertex 55.02111092665366 42.52481166415129 141.2
  endloop
endfacet
facet normal 0.0 0.0 1.0
  outer loop
    vertex 55.02111092665366 42.52481166415129 141.2
    vertex 55.36714127221884 38.31148961809048 141.2
    vertex 55.31597176154592 46.74202362846128 141.2
  endloop
endfacet
facet normal 0.0 0.0 1.0
  outer loop
    vertex 55.31597176154592 46.74202362846128 141.2
    vertex 55.36714127221884 38.31148961809048 141.2
    vertex 55.7898585088463 45.75062677958912 141.2
  endloop
endfacet
facet normal 0.0 0.0 1.0
  outer loop
    vertex 55.7898585088463 45.75062677958912 141.2
    vertex 55.36714127221884 38.31148961809048 141.2
    vertex 55.82895889196778 39.30856576729374 141.2
  endloop
endfacet
facet normal 0.0 0.0 1.0
  outer loop
    vertex 55.7898585088463 45.75062677958912 141.2
    vertex 55.82895889196778 39.30856576729374 141.2
    vertex 56.135753544786496 44.70765363260377 141.2
  endloop
endfacet
facet normal 0.0 0.0 1.0
  outer loop
    vertex 56.135753544786496 44.70765363260377 141.2
    vertex 55.82895889196778 39.30856576729374 141.2
    vertex 56.16216816395729 40.35566076884843 141.2
  endloop
endfacet
facet normal 0.0 0.0 1.0
  outer loop
    vertex 56.135753544786496 44.70765363260377 141.2
    vertex 56.16216816395729 40.35566076884843 141.2
    vertex 56.348201898022054 43.62955249707516 141.2
  endloop
endfacet
facet normal 0.0 0.0 1.0
  outer loop
    vertex 56.348201898022054 43.62955249707516 141.2
    vertex 56.16216816395729 40.35566076884843 141.2
    vertex 56.361514178918505 41.43626130907579 141.2
  endloop
endfacet
facet normal 0.0 0.0 1.0
  outer loop
    vertex 56.348201898022054 43.62955249707516 141.2
    vertex 56.361514178918505 41.43626130907579 141.2
    vertex 56.423853131111954 42.533325671936964 141.2
  endloop
endfacet
facet normal 0.0 0.0 1.0
  outer loop
    vertex 38.99982669990486 41.33088375509589 141.2
    vertex 38.9865144190084 43.524174943095254 141.2
    vertex 38.92417546681496 42.42711058023408 141.2
  endloop
endfacet
facet normal 0.0 0.0 1.0
  outer loop
    vertex 38.9865144190084 43.524174943095254 141.2
    vertex 38.99982669990486 41.33088375509589 141.2
    vertex 39.185860433969616 44.60477548332262 141.2
  endloop
endfacet
facet normal 0.0 0.0 1.0
  outer loop
    vertex 39.185860433969616 44.60477548332262 141.2
    vertex 38.99982669990486 41.33088375509589 141.2
    vertex 39.21227505314041 40.25278261956727 141.2
  endloop
endfacet
facet normal 0.0 0.0 1.0
  outer loop
    vertex 39.185860433969616 44.60477548332262 141.2
    vertex 39.21227505314041 40.25278261956727 141.2
    vertex 39.51906970595911 45.65187048487731 141.2
  endloop
endfacet
facet normal 0.0 0.0 1.0
  outer loop
    vertex 39.51906970595911 45.65187048487731 141.2
    vertex 39.21227505314041 40.25278261956727 141.2
    vertex 39.558170089080605 39.20980947258193 141.2
  endloop
endfacet
facet normal 0.0 0.0 1.0
  outer loop
    vertex 39.51906970595911 45.65187048487731 141.2
    vertex 39.558170089080605 39.20980947258193 141.2
    vertex 39.98088732570807 46.648946634080566 141.2
  endloop
endfacet
facet normal 0.0 0.0 1.0
  outer loop
    vertex 39.98088732570807 46.648946634080566 141.2
    vertex 39.558170089080605 39.20980947258193 141.2
    vertex 40.03205683638098 38.21841262370977 141.2
  endloop
endfacet
facet normal 0.0 0.0 1.0
  outer loop
    vertex 39.98088732570807 46.648946634080566 141.2
    vertex 40.03205683638098 38.21841262370977 141.2
    vertex 40.56403015347655 47.58027944443504 141.2
  endloop
endfacet
facet normal 0.0 0.0 1.0
  outer loop
    vertex 40.56403015347655 47.58027944443504 141.2
    vertex 40.03205683638098 38.21841262370977 141.2
    vertex 40.326917671273236 42.43562458801987 141.2
  endloop
endfacet
facet normal 0.0 0.0 1.0
  outer loop
    vertex 40.56403015347655 47.58027944443504 141.2
    vertex 40.326917671273236 42.43562458801987 141.2
    vertex 40.37926267033212 43.35681159904472 141.2
  endloop
endfacet
facet normal 0.0 0.0 1.0
  outer loop
    vertex 40.56403015347655 47.58027944443504 141.2
    vertex 40.37926267033212 43.35681159904472 141.2
    vertex 40.54665026024792 44.26417420734953 141.2
  endloop
endfacet
facet normal 0.0 0.0 1.0
  outer loop
    vertex 40.56403015347655 47.58027944443504 141.2
    vertex 40.54665026024792 44.26417420734953 141.2
    vertex 40.82644063873515 45.143402762569025 141.2
  endloop
endfacet
facet normal 0.0 0.0 1.0
  outer loop
    vertex 40.56403015347655 47.58027944443504 141.2
    vertex 40.82644063873515 45.143402762569025 141.2
    vertex 41.259301678518014 48.43118124117019 141.2
  endloop
endfacet
facet normal 0.0 0.0 1.0
  outer loop
    vertex 41.259301678518014 48.43118124117019 141.2
    vertex 40.82644063873515 45.143402762569025 141.2
    vertex 41.214221344386445 45.98063130516188 141.2
  endloop
endfacet
facet normal 0.0 0.0 1.0
  outer loop
    vertex 41.259301678518014 48.43118124117019 141.2
    vertex 41.214221344386445 45.98063130516188 141.2
    vertex 41.703876843824645 46.762656240875145 141.2
  endloop
endfacet
facet normal 0.0 0.0 1.0
  outer loop
    vertex 41.259301678518014 48.43118124117019 141.2
    vertex 41.703876843824645 46.762656240875145 141.2
    vertex 42.05573705354748 49.1882327946474 141.2
  endloop
endfacet
facet normal 0.0 0.0 1.0
  outer loop
    vertex 42.05573705354748 49.1882327946474 141.2
    vertex 41.703876843824645 46.762656240875145 141.2
    vertex 42.28768497731763 47.47714456931366 141.2
  endloop
endfacet
facet normal 0.0 0.0 1.0
  outer loop
    vertex 42.05573705354748 49.1882327946474 141.2
    vertex 42.28768497731763 47.47714456931366 141.2
    vertex 42.9407760169333 49.83949494962765 141.2
  endloop
endfacet
facet normal 0.0 0.0 1.0
  outer loop
    vertex 42.9407760169333 49.83949494962765 141.2
    vertex 42.28768497731763 47.47714456931366 141.2
    vertex 42.95643874185018 48.112828382723336 141.2
  endloop
endfacet
facet normal 0.0 0.0 1.0
  outer loop
    vertex 42.9407760169333 49.83949494962765 141.2
    vertex 42.95643874185018 48.112828382723336 141.2
    vertex 43.90046097552623 50.374696912881774 141.2
  endloop
endfacet
facet normal 0.0 0.0 1.0
  outer loop
    vertex 43.90046097552623 50.374696912881774 141.2
    vertex 42.95643874185018 48.112828382723336 141.2
    vertex 43.69959149106142 48.65968256762755 141.2
  endloop
endfacet
facet normal 0.0 0.0 1.0
  outer loop
    vertex 43.90046097552623 50.374696912881774 141.2
    vertex 43.69959149106142 48.65968256762755 141.2
    vertex 44.50542326215834 49.10908290685549 141.2
  endloop
endfacet
facet normal 0.0 0.0 1.0
  outer loop
    vertex 43.90046097552623 50.374696912881774 141.2
    vertex 44.50542326215834 49.10908290685549 141.2
    vertex 44.91965712424126 50.78539822973508 141.2
  endloop
endfacet
facet normal 0.0 0.0 1.0
  outer loop
    vertex 44.91965712424126 50.78539822973508 141.2
    vertex 44.50542326215834 49.10908290685549 141.2
    vertex 45.36122560673029 49.45394208859884 141.2
  endloop
endfacet
facet normal 0.0 0.0 1.0
  outer loop
    vertex 44.91965712424126 50.78539822973508 141.2
    vertex 45.36122560673029 49.45394208859884 141.2
    vertex 45.98229113097488 51.06512189507972 141.2
  endloop
endfacet
facet normal 0.0 0.0 1.0
  outer loop
    vertex 45.98229113097488 51.06512189507972 141.2
    vertex 45.36122560673029 49.45394208859884 141.2
    vertex 46.25350201057174 49.688821477552594 141.2
  endloop
endfacet
facet normal 0.0 0.0 1.0
  outer loop
    vertex 45.98229113097488 51.06512189507972 141.2
    vertex 46.25350201057174 49.688821477552594 141.2
    vertex 47.071604622654114 51.2094564996144 141.2
  endloop
endfacet
facet normal 0.0 0.0 1.0
  outer loop
    vertex 47.071604622654114 51.2094564996144 141.2
    vertex 46.25350201057174 49.688821477552594 141.2
    vertex 47.168180741773924 49.81001688544277 141.2
  endloop
endfacet
facet normal 0.0 0.0 1.0
  outer loop
    vertex 47.071604622654114 51.2094564996144 141.2
    vertex 47.168180741773924 49.81001688544277 141.2
    vertex 48.17041847479084 51.216125800404264 141.2
  endloop
endfacet
facet normal 0.0 0.0 1.0
  outer loop
    vertex 48.17041847479084 51.216125800404264 141.2
    vertex 47.168180741773924 49.81001688544277 141.2
    vertex 48.09083677034349 49.81561698828836 141.2
  endloop
endfacet
facet normal 0.0 0.0 1.0
  outer loop
    vertex 48.17041847479084 51.216125800404264 141.2
    vertex 48.09083677034349 49.81561698828836 141.2
    vertex 49.0069192595416 49.705533469122145 141.2
  endloop
endfacet
facet normal 0.0 0.0 1.0
  outer loop
    vertex 48.17041847479084 51.216125800404264 141.2
    vertex 49.0069192595416 49.705533469122145 141.2
    vertex 49.26140373653729 51.08502461859185 141.2
  endloop
endfacet
facet normal 0.0 0.0 1.0
  outer loop
    vertex 49.26140373653729 51.08502461859185 141.2
    vertex 49.0069192595416 49.705533469122145 141.2
    vertex 49.901981041272556 49.48150241080206 141.2
  endloop
endfacet
facet normal 0.0 0.0 1.0
  outer loop
    vertex 49.26140373653729 51.08502461859185 141.2
    vertex 49.901981041272556 49.48150241080206 141.2
    vertex 50.32735491859272 50.818220498130366 141.2
  endloop
endfacet
facet normal 0.0 0.0 1.0
  outer loop
    vertex 50.32735491859272 50.818220498130366 141.2
    vertex 49.901981041272556 49.48150241080206 141.2
    vertex 50.76190645655448 49.14705691694749 141.2
  endloop
endfacet
facet normal 0.0 0.0 1.0
  outer loop
    vertex 50.32735491859272 50.818220498130366 141.2
    vertex 50.76190645655448 49.14705691694749 141.2
    vertex 51.35146133404772 50.41992109938055 141.2
  endloop
endfacet
facet normal 0.0 0.0 1.0
  outer loop
    vertex 51.35146133404772 50.41992109938055 141.2
    vertex 50.76190645655448 49.14705691694749 141.2
    vertex 51.57313396789389 48.70747139278457 141.2
  endloop
endfacet
facet normal 0.0 0.0 1.0
  outer loop
    vertex 51.35146133404772 50.41992109938055 141.2
    vertex 51.57313396789389 48.70747139278457 141.2
    vertex 52.317572212959085 49.89640784179322 141.2
  endloop
endfacet
facet normal 0.0 0.0 1.0
  outer loop
    vertex 52.317572212959085 49.89640784179322 141.2
    vertex 51.57313396789389 48.70747139278457 141.2
    vertex 52.32287003283309 48.169678364624986 141.2
  endloop
endfacet
facet normal 0.0 0.0 1.0
  outer loop
    vertex 52.317572212959085 49.89640784179322 141.2
    vertex 52.32287003283309 48.169678364624986 141.2
    vertex 53.210451409639695 49.255936842172176 141.2
  endloop
endfacet
facet normal 0.0 0.0 1.0
  outer loop
    vertex 53.210451409639695 49.255936842172176 141.2
    vertex 52.32287003283309 48.169678364624986 141.2
    vertex 52.999290865757224 47.54215914978494 141.2
  endloop
endfacet
facet normal 0.0 0.0 1.0
  outer loop
    vertex 53.210451409639695 49.255936842172176 141.2
    vertex 52.999290865757224 47.54215914978494 141.2
    vertex 53.59172890605718 46.834810101143994 141.2
  endloop
endfacet
facet normal 0.0 0.0 1.0
  outer loop
    vertex 53.210451409639695 49.255936842172176 141.2
    vertex 53.59172890605718 46.834810101143994 141.2
    vertex 54.01601768577772 48.50860871078028 141.2
  endloop
endfacet
facet normal 0.0 0.0 1.0
  outer loop
    vertex 54.01601768577772 48.50860871078028 141.2
    vertex 53.59172890605718 46.834810101143994 141.2
    vertex 54.09084105193176 46.05878653574941 141.2
  endloop
endfacet
facet normal 0.0 0.0 1.0
  outer loop
    vertex 54.01601768577772 48.50860871078028 141.2
    vertex 54.09084105193176 46.05878653574941 141.2
    vertex 54.72156677997649 47.666209258681775 141.2
  endloop
endfacet
facet normal 0.0 0.0 1.0
  outer loop
    vertex 54.72156677997649 47.666209258681775 141.2
    vertex 54.09084105193176 46.05878653574941 141.2
    vertex 54.488756006685605 45.226326808801154 141.2
  endloop
endfacet
facet normal 0.0 0.0 1.0
  outer loop
    vertex 54.72156677997649 47.666209258681775 141.2
    vertex 54.488756006685605 45.226326808801154 141.2
    vertex 54.7791984137793 44.35055930748068 141.2
  endloop
endfacet
facet normal 0.0 0.0 1.0
  outer loop
    vertex 54.72156677997649 47.666209258681775 141.2
    vertex 54.7791984137793 44.35055930748068 141.2
    vertex 55.31597176154592 46.74202362846128 141.2
  endloop
endfacet
facet normal 0.0 0.0 1.0
  outer loop
    vertex 55.31597176154592 46.74202362846128 141.2
    vertex 54.7791984137793 44.35055930748068 141.2
    vertex 54.9575878229511 43.44529540844187 141.2
  endloop
endfacet
facet normal 0.0 0.0 1.0
  outer loop
    vertex 55.31597176154592 46.74202362846128 141.2
    vertex 54.9575878229511 43.44529540844187 141.2
    vertex 55.02111092665366 42.52481166415129 141.2
  endloop
endfacet
facet normal 0.9022261470624295 0.43126323696425084 0.0
  outer loop
    vertex 40.85927259124127 39.734109443369924 1.2
    vertex 41.257187545995095 38.9016497164217 141.2
    vertex 41.257187545995095 38.9016497164217 1.2
  endloop
endfacet
facet normal 0.9022261470624295 0.43126323696425084 0.0
  outer loop
    vertex 41.257187545995095 38.9016497164217 141.2
    vertex 40.85927259124127 39.734109443369924 1.2
    vertex 40.85927259124127 39.734109443369924 141.2
  endloop
endfacet
facet normal 0.8475645389380219 -0.5306923330280726 0.0
  outer loop
    vertex 41.703876843824645 46.762656240875145 1.2
    vertex 41.214221344386445 45.98063130516188 141.2
    vertex 41.214221344386445 45.98063130516188 1.2
  endloop
endfacet
facet normal 0.8475645389380219 -0.5306923330280726 0.0
  outer loop
    vertex 41.214221344386445 45.98063130516188 141.2
    vertex 41.703876843824645 46.762656240875145 1.2
    vertex 41.703876843824645 46.762656240875145 141.2
  endloop
endfacet
facet normal -0.1193093505153942 -0.9928571291377198 -0.0
  outer loop
    vertex 49.0069192595416 49.705533469122145 141.2
    vertex 48.09083677034349 49.81561698828836 1.2
    vertex 49.0069192595416 49.705533469122145 1.2
  endloop
endfacet
facet normal -0.1193093505153942 -0.9928571291377198 -0.0
  outer loop
    vertex 48.09083677034349 49.81561698828836 1.2
    vertex 49.0069192595416 49.705533469122145 141.2
    vertex 48.09083677034349 49.81561698828836 141.2
  endloop
endfacet
facet normal -0.24280655511281407 -0.9700747274278658 -0.0
  outer loop
    vertex 49.901981041272556 49.48150241080206 141.2
    vertex 49.0069192595416 49.705533469122145 1.2
    vertex 49.901981041272556 49.48150241080206 1.2
  endloop
endfacet
facet normal -0.24280655511281407 -0.9700747274278658 -0.0
  outer loop
    vertex 49.0069192595416 49.705533469122145 1.2
    vertex 49.901981041272556 49.48150241080206 141.2
    vertex 49.0069192595416 49.705533469122145 141.2
  endloop
endfacet
facet normal 0.5926847008681398 -0.8054345692586355 0.0
  outer loop
    vertex 43.69959149106142 48.65968256762755 141.2
    vertex 42.95643874185018 48.112828382723336 1.2
    vertex 43.69959149106142 48.65968256762755 1.2
  endloop
endfacet
facet normal 0.5926847008681398 -0.8054345692586355 0.0
  outer loop
    vertex 42.95643874185018 48.112828382723336 1.2
    vertex 43.69959149106142 48.65968256762755 141.2
    vertex 42.95643874185018 48.112828382723336 141.2
  endloop
endfacet
facet normal -0.7743678532670496 0.6327356697915656 0.0
  outer loop
    vertex 53.64415175410221 38.19778001129585 141.2
    vertex 53.06034362060928 37.48329168285739 1.2
    vertex 53.06034362060928 37.48329168285739 141.2
  endloop
endfacet
facet normal -0.7743678532670496 0.6327356697915656 0.0
  outer loop
    vertex 53.06034362060928 37.48329168285739 1.2
    vertex 53.64415175410221 38.19778001129585 141.2
    vertex 53.64415175410221 38.19778001129585 1.2
  endloop
endfacet
facet normal -0.76663024783564 -0.6420888280475414 -0.0
  outer loop
    vertex 40.6264618179504 37.294226993489275 141.2
    vertex 41.33201091214918 36.45182754139077 0.0
    vertex 41.33201091214918 36.45182754139077 141.2
  endloop
endfacet
facet normal -0.76663024783564 -0.6420888280475414 -0.0
  outer loop
    vertex 41.33201091214918 36.45182754139077 0.0
    vertex 40.6264618179504 37.294226993489275 141.2
    vertex 40.6264618179504 37.294226993489275 0.0
  endloop
endfacet
facet normal -0.6889589239651135 0.724800387064489 0.0
  outer loop
    vertex 41.259301678518014 48.43118124117019 141.2
    vertex 42.05573705354748 49.1882327946474 0.0
    vertex 41.259301678518014 48.43118124117019 0.0
  endloop
endfacet
facet normal -0.6889589239651135 0.724800387064489 0.0
  outer loop
    vertex 42.05573705354748 49.1882327946474 0.0
    vertex 41.259301678518014 48.43118124117019 141.2
    vertex 42.05573705354748 49.1882327946474 141.2
  endloop
endfacet
facet normal 0.6889589239651108 -0.7248003870644916 0.0
  outer loop
    vertex 54.08872691940889 36.52925501100086 141.2
    vertex 53.29229154437942 35.77220345752366 0.0
    vertex 54.08872691940889 36.52925501100086 0.0
  endloop
endfacet
facet normal 0.6889589239651108 -0.7248003870644916 0.0
  outer loop
    vertex 53.29229154437942 35.77220345752366 0.0
    vertex 54.08872691940889 36.52925501100086 141.2
    vertex 53.29229154437942 35.77220345752366 141.2
  endloop
endfacet
facet normal -0.4870634859858026 0.87336656715228 0.0
  outer loop
    vertex 42.9407760169333 49.83949494962765 141.2
    vertex 43.90046097552623 50.374696912881774 0.0
    vertex 42.9407760169333 49.83949494962765 0.0
  endloop
endfacet
facet normal -0.4870634859858026 0.87336656715228 0.0
  outer loop
    vertex 43.90046097552623 50.374696912881774 0.0
    vertex 42.9407760169333 49.83949494962765 141.2
    vertex 43.90046097552623 50.374696912881774 141.2
  endloop
endfacet
facet normal 0.4764261151994306 0.8792145112291874 0.0
  outer loop
    vertex 51.35146133404772 50.41992109938055 141.2
    vertex 52.317572212959085 49.89640784179322 0.0
    vertex 51.35146133404772 50.41992109938055 0.0
  endloop
endfacet
facet normal 0.4764261151994306 0.8792145112291874 0.0
  outer loop
    vertex 52.317572212959085 49.89640784179322 0.0
    vertex 51.35146133404772 50.41992109938055 141.2
    vertex 52.317572212959085 49.89640784179322 141.2
  endloop
endfacet
facet normal 0.5828641506685165 0.8125696166270735 0.0
  outer loop
    vertex 52.317572212959085 49.89640784179322 141.2
    vertex 53.210451409639695 49.255936842172176 0.0
    vertex 52.317572212959085 49.89640784179322 0.0
  endloop
endfacet
facet normal 0.5828641506685165 0.8125696166270735 0.0
  outer loop
    vertex 53.210451409639695 49.255936842172176 0.0
    vertex 52.317572212959085 49.89640784179322 141.2
    vertex 53.210451409639695 49.255936842172176 141.2
  endloop
endfacet
facet normal 0.766630247835643 0.642088828047538 0.0
  outer loop
    vertex 54.01601768577772 48.50860871078028 0.0
    vertex 54.72156677997649 47.666209258681775 141.2
    vertex 54.72156677997649 47.666209258681775 0.0
  endloop
endfacet
facet normal 0.766630247835643 0.642088828047538 0.0
  outer loop
    vertex 54.72156677997649 47.666209258681775 141.2
    vertex 54.01601768577772 48.50860871078028 0.0
    vertex 54.01601768577772 48.50860871078028 141.2
  endloop
endfacet
facet normal -0.9491634404170914 -0.3147836771111083 -0.0
  outer loop
    vertex 39.21227505314041 40.25278261956727 141.2
    vertex 39.558170089080605 39.20980947258193 0.0
    vertex 39.558170089080605 39.20980947258193 141.2
  endloop
endfacet
facet normal -0.9491634404170914 -0.3147836771111083 -0.0
  outer loop
    vertex 39.558170089080605 39.20980947258193 0.0
    vertex 39.21227505314041 40.25278261956727 141.2
    vertex 39.21227505314041 40.25278261956727 0.0
  endloop
endfacet
facet normal -0.9529145568051228 0.3032389279576366 0.0
  outer loop
    vertex 54.80137833767897 40.69626204482149 141.2
    vertex 54.521587959191756 39.817033489602046 1.2
    vertex 54.521587959191756 39.817033489602046 141.2
  endloop
endfacet
facet normal -0.9529145568051228 0.3032389279576366 0.0
  outer loop
    vertex 54.521587959191756 39.817033489602046 1.2
    vertex 54.80137833767897 40.69626204482149 141.2
    vertex 54.80137833767897 40.69626204482149 1.2
  endloop
endfacet
facet normal 0.84106020840481 0.5409415179463095 0.0
  outer loop
    vertex 54.72156677997649 47.666209258681775 0.0
    vertex 55.31597176154592 46.74202362846128 141.2
    vertex 55.31597176154592 46.74202362846128 0.0
  endloop
endfacet
facet normal 0.84106020840481 0.5409415179463095 0.0
  outer loop
    vertex 55.31597176154592 46.74202362846128 141.2
    vertex 54.72156677997649 47.666209258681775 0.0
    vertex 54.72156677997649 47.666209258681775 141.2
  endloop
endfacet
facet normal 0.9022261470624288 0.43126323696425245 0.0
  outer loop
    vertex 55.31597176154592 46.74202362846128 0.0
    vertex 55.7898585088463 45.75062677958912 141.2
    vertex 55.7898585088463 45.75062677958912 0.0
  endloop
endfacet
facet normal 0.9022261470624288 0.43126323696425245 0.0
  outer loop
    vertex 55.7898585088463 45.75062677958912 141.2
    vertex 55.31597176154592 46.74202362846128 0.0
    vertex 55.31597176154592 46.74202362846128 141.2
  endloop
endfacet
facet normal -0.981131859313623 -0.19333979062726084 -0.0
  outer loop
    vertex 38.99982669990486 41.33088375509589 141.2
    vertex 39.21227505314041 40.25278261956727 0.0
    vertex 39.21227505314041 40.25278261956727 141.2
  endloop
endfacet
facet normal -0.981131859313623 -0.19333979062726084 -0.0
  outer loop
    vertex 39.21227505314041 40.25278261956727 0.0
    vertex 38.99982669990486 41.33088375509589 141.2
    vertex 38.99982669990486 41.33088375509589 0.0
  endloop
endfacet
facet normal 0.9073946255194333 -0.42027966115248505 0.0
  outer loop
    vertex 55.82895889196778 39.30856576729374 0.0
    vertex 55.36714127221884 38.31148961809048 141.2
    vertex 55.36714127221884 38.31148961809048 0.0
  endloop
endfacet
facet normal 0.9073946255194333 -0.42027966115248505 0.0
  outer loop
    vertex 55.36714127221884 38.31148961809048 141.2
    vertex 55.82895889196778 39.30856576729374 0.0
    vertex 55.82895889196778 39.30856576729374 141.2
  endloop
endfacet
facet normal -0.7743678532670447 0.6327356697915716 0.0
  outer loop
    vertex 41.259301678518014 48.43118124117019 141.2
    vertex 40.56403015347655 47.58027944443504 0.0
    vertex 40.56403015347655 47.58027944443504 141.2
  endloop
endfacet
facet normal -0.7743678532670447 0.6327356697915716 0.0
  outer loop
    vertex 40.56403015347655 47.58027944443504 0.0
    vertex 41.259301678518014 48.43118124117019 141.2
    vertex 41.259301678518014 48.43118124117019 0.0
  endloop
endfacet
facet normal 0.9491634404170921 0.3147836771111068 0.0
  outer loop
    vertex 55.7898585088463 45.75062677958912 0.0
    vertex 56.135753544786496 44.70765363260377 141.2
    vertex 56.135753544786496 44.70765363260377 0.0
  endloop
endfacet
facet normal 0.9491634404170921 0.3147836771111068 0.0
  outer loop
    vertex 56.135753544786496 44.70765363260377 141.2
    vertex 55.7898585088463 45.75062677958912 0.0
    vertex 55.7898585088463 45.75062677958912 141.2
  endloop
endfacet
facet normal -0.9073946255194362 0.42027966115247867 0.0
  outer loop
    vertex 54.521587959191756 39.817033489602046 141.2
    vertex 54.133807253540475 38.9798049470092 1.2
    vertex 54.133807253540475 38.9798049470092 141.2
  endloop
endfacet
facet normal -0.9073946255194362 0.42027966115247867 0.0
  outer loop
    vertex 54.133807253540475 38.9798049470092 1.2
    vertex 54.521587959191756 39.817033489602046 141.2
    vertex 54.521587959191756 39.817033489602046 1.2
  endloop
endfacet
facet normal -0.9073946255194313 0.42027966115248927 0.0
  outer loop
    vertex 39.98088732570807 46.648946634080566 141.2
    vertex 39.51906970595911 45.65187048487731 0.0
    vertex 39.51906970595911 45.65187048487731 141.2
  endloop
endfacet
facet normal -0.9073946255194313 0.42027966115248927 0.0
  outer loop
    vertex 39.51906970595911 45.65187048487731 0.0
    vertex 39.98088732570807 46.648946634080566 141.2
    vertex 39.98088732570807 46.648946634080566 0.0
  endloop
endfacet
facet normal 0.9976272426890131 0.06884682014964029 0.0
  outer loop
    vertex 56.348201898022054 43.62955249707516 0.0
    vertex 56.423853131111954 42.533325671936964 141.2
    vertex 56.423853131111954 42.533325671936964 0.0
  endloop
endfacet
facet normal 0.9976272426890131 0.06884682014964029 0.0
  outer loop
    vertex 56.423853131111954 42.533325671936964 141.2
    vertex 56.348201898022054 43.62955249707516 0.0
    vertex 56.348201898022054 43.62955249707516 141.2
  endloop
endfacet
facet normal -0.8475645389380156 0.5306923330280824 0.0
  outer loop
    vertex 54.133807253540475 38.9798049470092 141.2
    vertex 53.64415175410221 38.19778001129585 1.2
    vertex 53.64415175410221 38.19778001129585 141.2
  endloop
endfacet
facet normal -0.8475645389380156 0.5306923330280824 0.0
  outer loop
    vertex 53.64415175410221 38.19778001129585 1.2
    vertex 54.133807253540475 38.9798049470092 141.2
    vertex 54.133807253540475 38.9798049470092 1.2
  endloop
endfacet
facet normal 0.9983894484935706 -0.056731905808848536 0.0
  outer loop
    vertex 56.423853131111954 42.533325671936964 0.0
    vertex 56.361514178918505 41.43626130907579 141.2
    vertex 56.361514178918505 41.43626130907579 0.0
  endloop
endfacet
facet normal 0.9983894484935706 -0.056731905808848536 0.0
  outer loop
    vertex 56.361514178918505 41.43626130907579 141.2
    vertex 56.423853131111954 42.533325671936964 0.0
    vertex 56.423853131111954 42.533325671936964 141.2
  endloop
endfacet
facet normal 0.2545640578877977 -0.9670559138083475 0.0
  outer loop
    vertex 50.428371473685644 34.17503802243596 141.2
    vertex 49.36573746695202 33.89531435709132 0.0
    vertex 50.428371473685644 34.17503802243596 0.0
  endloop
endfacet
facet normal 0.2545640578877977 -0.9670559138083475 0.0
  outer loop
    vertex 49.36573746695202 33.89531435709132 0.0
    vertex 50.428371473685644 34.17503802243596 141.2
    vertex 49.36573746695202 33.89531435709132 141.2
  endloop
endfacet
facet normal 0.13135249954167608 -0.9913357256066959 0.0
  outer loop
    vertex 49.36573746695202 33.89531435709132 141.2
    vertex 48.27642397527279 33.75097975255665 0.0
    vertex 49.36573746695202 33.89531435709132 0.0
  endloop
endfacet
facet normal 0.13135249954167608 -0.9913357256066959 0.0
  outer loop
    vertex 48.27642397527279 33.75097975255665 0.0
    vertex 49.36573746695202 33.89531435709132 141.2
    vertex 48.27642397527279 33.75097975255665 141.2
  endloop
endfacet
facet normal 0.2428065551128133 0.9700747274278659 0.0
  outer loop
    vertex 49.26140373653729 51.08502461859185 141.2
    vertex 50.32735491859272 50.818220498130366 0.0
    vertex 49.26140373653729 51.08502461859185 0.0
  endloop
endfacet
facet normal 0.2428065551128133 0.9700747274278659 0.0
  outer loop
    vertex 50.32735491859272 50.818220498130366 0.0
    vertex 49.26140373653729 51.08502461859185 141.2
    vertex 50.32735491859272 50.818220498130366 141.2
  endloop
endfacet
facet normal -0.9976272426890131 -0.06884682014964065 -0.0
  outer loop
    vertex 38.92417546681496 42.42711058023408 141.2
    vertex 38.99982669990486 41.33088375509589 0.0
    vertex 38.99982669990486 41.33088375509589 141.2
  endloop
endfacet
facet normal -0.9976272426890131 -0.06884682014964065 -0.0
  outer loop
    vertex 38.99982669990486 41.33088375509589 0.0
    vertex 38.92417546681496 42.42711058023408 141.2
    vertex 38.92417546681496 42.42711058023408 0.0
  endloop
endfacet
facet normal -0.6889589239651112 0.7248003870644912 0.0
  outer loop
    vertex 52.39158985607676 36.84760786944774 141.2
    vertex 53.06034362060928 37.48329168285739 1.2
    vertex 52.39158985607676 36.84760786944774 1.2
  endloop
endfacet
facet normal -0.6889589239651112 0.7248003870644912 0.0
  outer loop
    vertex 53.06034362060928 37.48329168285739 1.2
    vertex 52.39158985607676 36.84760786944774 141.2
    vertex 53.06034362060928 37.48329168285739 141.2
  endloop
endfacet
facet normal 0.8475645389380188 -0.5306923330280775 0.0
  outer loop
    vertex 55.36714127221884 38.31148961809048 0.0
    vertex 54.78399844445035 37.38015680773601 141.2
    vertex 54.78399844445035 37.38015680773601 0.0
  endloop
endfacet
facet normal 0.8475645389380188 -0.5306923330280775 0.0
  outer loop
    vertex 54.78399844445035 37.38015680773601 141.2
    vertex 55.36714127221884 38.31148961809048 0.0
    vertex 55.36714127221884 38.31148961809048 141.2
  endloop
endfacet
facet normal 0.006069433811592507 -0.9999815808169703 0.0
  outer loop
    vertex 48.27642397527279 33.75097975255665 141.2
    vertex 47.17761012313606 33.74431045176677 0.0
    vertex 48.27642397527279 33.75097975255665 0.0
  endloop
endfacet
facet normal 0.006069433811592507 -0.9999815808169703 0.0
  outer loop
    vertex 47.17761012313606 33.74431045176677 0.0
    vertex 48.27642397527279 33.75097975255665 141.2
    vertex 47.17761012313606 33.74431045176677 141.2
  endloop
endfacet
facet normal 0.3624745552904911 0.9319936677719227 0.0
  outer loop
    vertex 50.32735491859272 50.818220498130366 141.2
    vertex 51.35146133404772 50.41992109938055 0.0
    vertex 50.32735491859272 50.818220498130366 0.0
  endloop
endfacet
facet normal 0.3624745552904911 0.9319936677719227 0.0
  outer loop
    vertex 51.35146133404772 50.41992109938055 0.0
    vertex 50.32735491859272 50.818220498130366 141.2
    vertex 51.35146133404772 50.41992109938055 141.2
  endloop
endfacet
facet normal 0.7743678532670473 -0.6327356697915685 0.0
  outer loop
    vertex 54.78399844445035 37.38015680773601 0.0
    vertex 54.08872691940889 36.52925501100086 141.2
    vertex 54.08872691940889 36.52925501100086 0.0
  endloop
endfacet
facet normal 0.7743678532670473 -0.6327356697915685 0.0
  outer loop
    vertex 54.08872691940889 36.52925501100086 141.2
    vertex 54.78399844445035 37.38015680773601 0.0
    vertex 54.78399844445035 37.38015680773601 141.2
  endloop
endfacet
facet normal -0.6801100702953894 -0.7331100137651925 -0.0
  outer loop
    vertex 42.1375771882872 35.704499409998874 141.2
    vertex 41.33201091214918 36.45182754139077 0.0
    vertex 42.1375771882872 35.704499409998874 0.0
  endloop
endfacet
facet normal -0.6801100702953894 -0.7331100137651925 -0.0
  outer loop
    vertex 41.33201091214918 36.45182754139077 0.0
    vertex 42.1375771882872 35.704499409998874 141.2
    vertex 41.33201091214918 36.45182754139077 141.2
  endloop
endfacet
facet normal -0.3737609889718384 0.9275250525580392 0.0
  outer loop
    vertex 43.90046097552623 50.374696912881774 141.2
    vertex 44.91965712424126 50.78539822973508 0.0
    vertex 43.90046097552623 50.374696912881774 0.0
  endloop
endfacet
facet normal -0.3737609889718384 0.9275250525580392 0.0
  outer loop
    vertex 44.91965712424126 50.78539822973508 0.0
    vertex 43.90046097552623 50.374696912881774 141.2
    vertex 44.91965712424126 50.78539822973508 141.2
  endloop
endfacet
facet normal 0.6801100702953894 0.7331100137651925 0.0
  outer loop
    vertex 53.210451409639695 49.255936842172176 141.2
    vertex 54.01601768577772 48.50860871078028 0.0
    vertex 53.210451409639695 49.255936842172176 0.0
  endloop
endfacet
facet normal 0.6801100702953894 0.7331100137651925 0.0
  outer loop
    vertex 54.01601768577772 48.50860871078028 0.0
    vertex 53.210451409639695 49.255936842172176 141.2
    vertex 54.01601768577772 48.50860871078028 141.2
  endloop
endfacet
facet normal -0.25456405788779896 0.9670559138083473 0.0
  outer loop
    vertex 44.91965712424126 50.78539822973508 141.2
    vertex 45.98229113097488 51.06512189507972 0.0
    vertex 44.91965712424126 50.78539822973508 0.0
  endloop
endfacet
facet normal -0.25456405788779896 0.9670559138083473 0.0
  outer loop
    vertex 45.98229113097488 51.06512189507972 0.0
    vertex 44.91965712424126 50.78539822973508 141.2
    vertex 45.98229113097488 51.06512189507972 141.2
  endloop
endfacet
facet normal 0.9529145568051244 -0.3032389279576316 0.0
  outer loop
    vertex 56.16216816395729 40.35566076884843 0.0
    vertex 55.82895889196778 39.30856576729374 141.2
    vertex 55.82895889196778 39.30856576729374 0.0
  endloop
endfacet
facet normal 0.9529145568051244 -0.3032389279576316 0.0
  outer loop
    vertex 55.82895889196778 39.30856576729374 141.2
    vertex 56.16216816395729 40.35566076884843 0.0
    vertex 56.16216816395729 40.35566076884843 141.2
  endloop
endfacet
facet normal -0.9022261470624288 -0.43126323696425245 -0.0
  outer loop
    vertex 39.558170089080605 39.20980947258193 141.2
    vertex 40.03205683638098 38.21841262370977 0.0
    vertex 40.03205683638098 38.21841262370977 141.2
  endloop
endfacet
facet normal -0.9022261470624288 -0.43126323696425245 -0.0
  outer loop
    vertex 40.03205683638098 38.21841262370977 0.0
    vertex 39.558170089080605 39.20980947258193 141.2
    vertex 39.558170089080605 39.20980947258193 0.0
  endloop
endfacet
facet normal -0.119309350515396 -0.9928571291377196 -0.0
  outer loop
    vertex 47.17761012313606 33.74431045176677 141.2
    vertex 46.08662486138961 33.87541163357919 0.0
    vertex 47.17761012313606 33.74431045176677 0.0
  endloop
endfacet
facet normal -0.119309350515396 -0.9928571291377196 -0.0
  outer loop
    vertex 46.08662486138961 33.87541163357919 0.0
    vertex 47.17761012313606 33.74431045176677 141.2
    vertex 46.08662486138961 33.87541163357919 141.2
  endloop
endfacet
facet normal 0.11930935051539156 0.9928571291377202 0.0
  outer loop
    vertex 48.17041847479084 51.216125800404264 141.2
    vertex 49.26140373653729 51.08502461859185 0.0
    vertex 48.17041847479084 51.216125800404264 0.0
  endloop
endfacet
facet normal 0.11930935051539156 0.9928571291377202 0.0
  outer loop
    vertex 49.26140373653729 51.08502461859185 0.0
    vertex 48.17041847479084 51.216125800404264 141.2
    vertex 49.26140373653729 51.08502461859185 141.2
  endloop
endfacet
facet normal -0.8410602084048148 -0.5409415179463023 -0.0
  outer loop
    vertex 40.03205683638098 38.21841262370977 141.2
    vertex 40.6264618179504 37.294226993489275 0.0
    vertex 40.6264618179504 37.294226993489275 141.2
  endloop
endfacet
facet normal -0.8410602084048148 -0.5409415179463023 -0.0
  outer loop
    vertex 40.6264618179504 37.294226993489275 0.0
    vertex 40.03205683638098 38.21841262370977 141.2
    vertex 40.03205683638098 38.21841262370977 0.0
  endloop
endfacet
facet normal 0.9811318593136221 0.1933397906272658 0.0
  outer loop
    vertex 56.135753544786496 44.70765363260377 0.0
    vertex 56.348201898022054 43.62955249707516 141.2
    vertex 56.348201898022054 43.62955249707516 0.0
  endloop
endfacet
facet normal 0.9811318593136221 0.1933397906272658 0.0
  outer loop
    vertex 56.348201898022054 43.62955249707516 141.2
    vertex 56.135753544786496 44.70765363260377 0.0
    vertex 56.135753544786496 44.70765363260377 141.2
  endloop
endfacet
facet normal 0.983406456286437 -0.1814159357227267 0.0
  outer loop
    vertex 56.361514178918505 41.43626130907579 0.0
    vertex 56.16216816395729 40.35566076884843 141.2
    vertex 56.16216816395729 40.35566076884843 0.0
  endloop
endfacet
facet normal 0.983406456286437 -0.1814159357227267 0.0
  outer loop
    vertex 56.16216816395729 40.35566076884843 141.2
    vertex 56.361514178918505 41.43626130907579 0.0
    vertex 56.361514178918505 41.43626130907579 141.2
  endloop
endfacet
facet normal 3.2408809016644843e-32 2.1360351397334092e-32 1.0
  outer loop
    vertex 40.390440774975815 41.51514084372908 1.2
    vertex 40.37926267033212 43.35681159904472 1.2
    vertex 40.326917671273236 42.43562458801987 1.2
  endloop
endfacet
facet normal 3.2408809016644843e-32 2.1360351397334092e-32 1.0
  outer loop
    vertex 40.37926267033212 43.35681159904472 1.2
    vertex 40.390440774975815 41.51514084372908 1.2
    vertex 40.54665026024792 44.26417420734953 1.2
  endloop
endfacet
facet normal 3.2408809016644843e-32 2.1360351397334092e-32 1.0
  outer loop
    vertex 40.54665026024792 44.26417420734953 1.2
    vertex 40.390440774975815 41.51514084372908 1.2
    vertex 40.56883018414759 40.60987694469038 1.2
  endloop
endfacet
facet normal 3.2408809016644843e-32 2.1360351397334092e-32 1.0
  outer loop
    vertex 40.54665026024792 44.26417420734953 1.2
    vertex 40.56883018414759 40.60987694469038 1.2
    vertex 40.82644063873515 45.143402762569025 1.2
  endloop
endfacet
facet normal 3.2408809016644843e-32 2.1360351397334092e-32 1.0
  outer loop
    vertex 40.82644063873515 45.143402762569025 1.2
    vertex 40.56883018414759 40.60987694469038 1.2
    vertex 40.85927259124127 39.734109443369924 1.2
  endloop
endfacet
facet normal 3.2408809016644843e-32 2.1360351397334092e-32 1.0
  outer loop
    vertex 40.82644063873515 45.143402762569025 1.2
    vertex 40.85927259124127 39.734109443369924 1.2
    vertex 41.214221344386445 45.98063130516188 1.2
  endloop
endfacet
facet normal 3.2408809016644843e-32 2.1360351397334092e-32 1.0
  outer loop
    vertex 41.214221344386445 45.98063130516188 1.2
    vertex 40.85927259124127 39.734109443369924 1.2
    vertex 41.257187545995095 38.9016497164217 1.2
  endloop
endfacet
facet normal 3.2408809016644843e-32 2.1360351397334092e-32 1.0
  outer loop
    vertex 41.214221344386445 45.98063130516188 1.2
    vertex 41.257187545995095 38.9016497164217 1.2
    vertex 41.703876843824645 46.762656240875145 1.2
  endloop
endfacet
facet normal 3.2408809016644843e-32 2.1360351397334092e-32 1.0
  outer loop
    vertex 41.703876843824645 46.762656240875145 1.2
    vertex 41.257187545995095 38.9016497164217 1.2
    vertex 41.75629969186976 38.12562615102699 1.2
  endloop
endfacet
facet normal 3.2408809016644843e-32 2.1360351397334092e-32 1.0
  outer loop
    vertex 41.703876843824645 46.762656240875145 1.2
    vertex 41.75629969186976 38.12562615102699 1.2
    vertex 42.28768497731763 47.47714456931366 1.2
  endloop
endfacet
facet normal 3.2408809016644843e-32 2.1360351397334092e-32 1.0
  outer loop
    vertex 42.28768497731763 47.47714456931366 1.2
    vertex 41.75629969186976 38.12562615102699 1.2
    vertex 42.34873773216961 37.418277102386156 1.2
  endloop
endfacet
facet normal 3.2408809016644843e-32 2.1360351397334092e-32 1.0
  outer loop
    vertex 42.28768497731763 47.47714456931366 1.2
    vertex 42.34873773216961 37.418277102386156 1.2
    vertex 42.95643874185018 48.112828382723336 1.2
  endloop
endfacet
facet normal 3.2408809016644843e-32 2.1360351397334092e-32 1.0
  outer loop
    vertex 42.95643874185018 48.112828382723336 1.2
    vertex 42.34873773216961 37.418277102386156 1.2
    vertex 43.025158565093875 36.790757887546015 1.2
  endloop
endfacet
facet normal 3.2408809016644843e-32 2.1360351397334092e-32 1.0
  outer loop
    vertex 42.95643874185018 48.112828382723336 1.2
    vertex 43.025158565093875 36.790757887546015 1.2
    vertex 43.69959149106142 48.65968256762755 1.2
  endloop
endfacet
facet normal 3.2408809016644843e-32 2.1360351397334092e-32 1.0
  outer loop
    vertex 43.69959149106142 48.65968256762755 1.2
    vertex 43.025158565093875 36.790757887546015 1.2
    vertex 43.77489463003302 36.25296485938648 1.2
  endloop
endfacet
facet normal 3.2408809016644843e-32 2.1360351397334092e-32 1.0
  outer loop
    vertex 43.69959149106142 48.65968256762755 1.2
    vertex 43.77489463003302 36.25296485938648 1.2
    vertex 44.50542326215834 49.10908290685549 1.2
  endloop
endfacet
facet normal 3.2408809016644843e-32 2.1360351397334092e-32 1.0
  outer loop
    vertex 44.50542326215834 49.10908290685549 1.2
    vertex 43.77489463003302 36.25296485938648 1.2
    vertex 44.58612214137238 35.813379335223566 1.2
  endloop
endfacet
facet normal 3.2408809016644843e-32 2.1360351397334092e-32 1.0
  outer loop
    vertex 44.50542326215834 49.10908290685549 1.2
    vertex 44.58612214137238 35.813379335223566 1.2
    vertex 45.36122560673029 49.45394208859884 1.2
  endloop
endfacet
facet normal 3.2408809016644843e-32 2.1360351397334092e-32 1.0
  outer loop
    vertex 45.36122560673029 49.45394208859884 1.2
    vertex 44.58612214137238 35.813379335223566 1.2
    vertex 45.446047556654364 35.478933841368985 1.2
  endloop
endfacet
facet normal 3.2408809016644843e-32 2.1360351397334092e-32 1.0
  outer loop
    vertex 45.36122560673029 49.45394208859884 1.2
    vertex 45.446047556654364 35.478933841368985 1.2
    vertex 46.25350201057174 49.688821477552594 1.2
  endloop
endfacet
facet normal 3.2408809016644843e-32 2.1360351397334092e-32 1.0
  outer loop
    vertex 46.25350201057174 49.688821477552594 1.2
    vertex 45.446047556654364 35.478933841368985 1.2
    vertex 46.34110933838533 35.2549027830489 1.2
  endloop
endfacet
facet normal 3.2408809016644843e-32 2.1360351397334092e-32 1.0
  outer loop
    vertex 46.25350201057174 49.688821477552594 1.2
    vertex 46.34110933838533 35.2549027830489 1.2
    vertex 47.168180741773924 49.81001688544277 1.2
  endloop
endfacet
facet normal 3.2408809016644843e-32 2.1360351397334092e-32 1.0
  outer loop
    vertex 47.168180741773924 49.81001688544277 1.2
    vertex 46.34110933838533 35.2549027830489 1.2
    vertex 47.25719182758345 35.14481926388268 1.2
  endloop
endfacet
facet normal 3.2408809016644843e-32 2.1360351397334092e-32 1.0
  outer loop
    vertex 47.168180741773924 49.81001688544277 1.2
    vertex 47.25719182758345 35.14481926388268 1.2
    vertex 48.09083677034349 49.81561698828836 1.2
  endloop
endfacet
facet normal 3.2408809016644843e-32 2.1360351397334092e-32 1.0
  outer loop
    vertex 48.09083677034349 49.81561698828836 1.2
    vertex 47.25719182758345 35.14481926388268 1.2
    vertex 48.17984785615298 35.15041936672827 1.2
  endloop
endfacet
facet normal 3.2408809016644843e-32 2.1360351397334092e-32 1.0
  outer loop
    vertex 48.09083677034349 49.81561698828836 1.2
    vertex 48.17984785615298 35.15041936672827 1.2
    vertex 49.0069192595416 49.705533469122145 1.2
  endloop
endfacet
facet normal 3.2408809016644843e-32 2.1360351397334092e-32 1.0
  outer loop
    vertex 49.0069192595416 49.705533469122145 1.2
    vertex 48.17984785615298 35.15041936672827 1.2
    vertex 49.094526587355155 35.27161477461845 1.2
  endloop
endfacet
facet normal 3.2408809016644843e-32 2.1360351397334092e-32 1.0
  outer loop
    vertex 49.0069192595416 49.705533469122145 1.2
    vertex 49.094526587355155 35.27161477461845 1.2
    vertex 49.901981041272556 49.48150241080206 1.2
  endloop
endfacet
facet normal 3.2408809016644843e-32 2.1360351397334092e-32 1.0
  outer loop
    vertex 49.901981041272556 49.48150241080206 1.2
    vertex 49.094526587355155 35.27161477461845 1.2
    vertex 49.986802991196626 35.506494163572206 1.2
  endloop
endfacet
facet normal 3.2408809016644843e-32 2.1360351397334092e-32 1.0
  outer loop
    vertex 49.901981041272556 49.48150241080206 1.2
    vertex 49.986802991196626 35.506494163572206 1.2
    vertex 50.76190645655448 49.14705691694749 1.2
  endloop
endfacet
facet normal 3.2408809016644843e-32 2.1360351397334092e-32 1.0
  outer loop
    vertex 50.76190645655448 49.14705691694749 1.2
    vertex 49.986802991196626 35.506494163572206 1.2
    vertex 50.84260533576857 35.85135334531556 1.2
  endloop
endfacet
facet normal 3.2408809016644843e-32 2.1360351397334092e-32 1.0
  outer loop
    vertex 50.76190645655448 49.14705691694749 1.2
    vertex 50.84260533576857 35.85135334531556 1.2
    vertex 51.57313396789389 48.70747139278457 1.2
  endloop
endfacet
facet normal 3.2408809016644843e-32 2.1360351397334092e-32 1.0
  outer loop
    vertex 51.57313396789389 48.70747139278457 1.2
    vertex 50.84260533576857 35.85135334531556 1.2
    vertex 51.648437106865465 36.30075368454348 1.2
  endloop
endfacet
facet normal 3.2408809016644843e-32 2.1360351397334092e-32 1.0
  outer loop
    vertex 51.57313396789389 48.70747139278457 1.2
    vertex 51.648437106865465 36.30075368454348 1.2
    vertex 52.32287003283309 48.169678364624986 1.2
  endloop
endfacet
facet normal 3.2408809016644843e-32 2.1360351397334092e-32 1.0
  outer loop
    vertex 52.32287003283309 48.169678364624986 1.2
    vertex 51.648437106865465 36.30075368454348 1.2
    vertex 52.39158985607676 36.84760786944774 1.2
  endloop
endfacet
facet normal 3.2408809016644843e-32 2.1360351397334092e-32 1.0
  outer loop
    vertex 52.32287003283309 48.169678364624986 1.2
    vertex 52.39158985607676 36.84760786944774 1.2
    vertex 52.999290865757224 47.54215914978494 1.2
  endloop
endfacet
facet normal 3.2408809016644843e-32 2.1360351397334092e-32 1.0
  outer loop
    vertex 52.999290865757224 47.54215914978494 1.2
    vertex 52.39158985607676 36.84760786944774 1.2
    vertex 53.06034362060928 37.48329168285739 1.2
  endloop
endfacet
facet normal 3.2408809016644843e-32 2.1360351397334092e-32 1.0
  outer loop
    vertex 52.999290865757224 47.54215914978494 1.2
    vertex 53.06034362060928 37.48329168285739 1.2
    vertex 53.59172890605718 46.834810101143994 1.2
  endloop
endfacet
facet normal 3.2408809016644843e-32 2.1360351397334092e-32 1.0
  outer loop
    vertex 53.59172890605718 46.834810101143994 1.2
    vertex 53.06034362060928 37.48329168285739 1.2
    vertex 53.64415175410221 38.19778001129585 1.2
  endloop
endfacet
facet normal 3.2408809016644843e-32 2.1360351397334092e-32 1.0
  outer loop
    vertex 53.59172890605718 46.834810101143994 1.2
    vertex 53.64415175410221 38.19778001129585 1.2
    vertex 54.09084105193176 46.05878653574941 1.2
  endloop
endfacet
facet normal 3.2408809016644843e-32 2.1360351397334092e-32 1.0
  outer loop
    vertex 54.09084105193176 46.05878653574941 1.2
    vertex 53.64415175410221 38.19778001129585 1.2
    vertex 54.133807253540475 38.9798049470092 1.2
  endloop
endfacet
facet normal 3.2408809016644843e-32 2.1360351397334092e-32 1.0
  outer loop
    vertex 54.09084105193176 46.05878653574941 1.2
    vertex 54.133807253540475 38.9798049470092 1.2
    vertex 54.488756006685605 45.226326808801154 1.2
  endloop
endfacet
facet normal 3.2408809016644843e-32 2.1360351397334092e-32 1.0
  outer loop
    vertex 54.488756006685605 45.226326808801154 1.2
    vertex 54.133807253540475 38.9798049470092 1.2
    vertex 54.521587959191756 39.817033489602046 1.2
  endloop
endfacet
facet normal 3.2408809016644843e-32 2.1360351397334092e-32 1.0
  outer loop
    vertex 54.488756006685605 45.226326808801154 1.2
    vertex 54.521587959191756 39.817033489602046 1.2
    vertex 54.7791984137793 44.35055930748068 1.2
  endloop
endfacet
facet normal 3.2408809016644843e-32 2.1360351397334092e-32 1.0
  outer loop
    vertex 54.7791984137793 44.35055930748068 1.2
    vertex 54.521587959191756 39.817033489602046 1.2
    vertex 54.80137833767897 40.69626204482149 1.2
  endloop
endfacet
facet normal 3.2408809016644843e-32 2.1360351397334092e-32 1.0
  outer loop
    vertex 54.7791984137793 44.35055930748068 1.2
    vertex 54.80137833767897 40.69626204482149 1.2
    vertex 54.9575878229511 43.44529540844187 1.2
  endloop
endfacet
facet normal 3.2408809016644843e-32 2.1360351397334092e-32 1.0
  outer loop
    vertex 54.9575878229511 43.44529540844187 1.2
    vertex 54.80137833767897 40.69626204482149 1.2
    vertex 54.96876592759478 41.60362465312629 1.2
  endloop
endfacet
facet normal 3.2408809016644843e-32 2.1360351397334092e-32 1.0
  outer loop
    vertex 54.9575878229511 43.44529540844187 1.2
    vertex 54.96876592759478 41.60362465312629 1.2
    vertex 55.02111092665366 42.52481166415129 1.2
  endloop
endfacet
facet normal -0.998389448493571 0.05673190580884114 0.0
  outer loop
    vertex 55.02111092665366 42.52481166415129 141.2
    vertex 54.96876592759478 41.60362465312629 1.2
    vertex 54.96876592759478 41.60362465312629 141.2
  endloop
endfacet
facet normal -0.998389448493571 0.05673190580884114 0.0
  outer loop
    vertex 54.96876592759478 41.60362465312629 1.2
    vertex 55.02111092665366 42.52481166415129 141.2
    vertex 55.02111092665366 42.52481166415129 1.2
  endloop
endfacet
facet normal -0.5926847008681417 0.8054345692586341 0.0
  outer loop
    vertex 42.05573705354748 49.1882327946474 141.2
    vertex 42.9407760169333 49.83949494962765 0.0
    vertex 42.05573705354748 49.1882327946474 0.0
  endloop
endfacet
facet normal -0.5926847008681417 0.8054345692586341 0.0
  outer loop
    vertex 42.9407760169333 49.83949494962765 0.0
    vertex 42.05573705354748 49.1882327946474 141.2
    vertex 42.9407760169333 49.83949494962765 141.2
  endloop
endfacet
facet normal -0.1313524995416754 0.991335725606696 0.0
  outer loop
    vertex 45.98229113097488 51.06512189507972 141.2
    vertex 47.071604622654114 51.2094564996144 0.0
    vertex 45.98229113097488 51.06512189507972 0.0
  endloop
endfacet
facet normal -0.1313524995416754 0.991335725606696 0.0
  outer loop
    vertex 47.071604622654114 51.2094564996144 0.0
    vertex 45.98229113097488 51.06512189507972 141.2
    vertex 47.071604622654114 51.2094564996144 141.2
  endloop
endfacet
facet normal 0.37376098897184024 -0.9275250525580386 0.0
  outer loop
    vertex 51.44756762240067 34.58573933928927 141.2
    vertex 50.428371473685644 34.17503802243596 0.0
    vertex 51.44756762240067 34.58573933928927 0.0
  endloop
endfacet
facet normal 0.37376098897184024 -0.9275250525580386 0.0
  outer loop
    vertex 50.428371473685644 34.17503802243596 0.0
    vertex 51.44756762240067 34.58573933928927 141.2
    vertex 50.428371473685644 34.17503802243596 141.2
  endloop
endfacet
facet normal -0.9834064562864365 0.18141593572272888 0.0
  outer loop
    vertex 54.96876592759478 41.60362465312629 141.2
    vertex 54.80137833767897 40.69626204482149 1.2
    vertex 54.80137833767897 40.69626204482149 141.2
  endloop
endfacet
facet normal -0.9834064562864365 0.18141593572272888 0.0
  outer loop
    vertex 54.80137833767897 40.69626204482149 1.2
    vertex 54.96876592759478 41.60362465312629 141.2
    vertex 54.96876592759478 41.60362465312629 1.2
  endloop
endfacet
facet normal -0.36247455529048583 -0.9319936677719246 -0.0
  outer loop
    vertex 45.02067367933419 34.14221575404068 141.2
    vertex 43.996567263879164 34.54051515279049 0.0
    vertex 45.02067367933419 34.14221575404068 0.0
  endloop
endfacet
facet normal -0.36247455529048583 -0.9319936677719246 -0.0
  outer loop
    vertex 43.996567263879164 34.54051515279049 0.0
    vertex 45.02067367933419 34.14221575404068 141.2
    vertex 43.996567263879164 34.54051515279049 141.2
  endloop
endfacet
facet normal -0.847564538938021 0.5306923330280737 0.0
  outer loop
    vertex 40.56403015347655 47.58027944443504 141.2
    vertex 39.98088732570807 46.648946634080566 0.0
    vertex 39.98088732570807 46.648946634080566 141.2
  endloop
endfacet
facet normal -0.847564538938021 0.5306923330280737 0.0
  outer loop
    vertex 39.98088732570807 46.648946634080566 0.0
    vertex 40.56403015347655 47.58027944443504 141.2
    vertex 40.56403015347655 47.58027944443504 0.0
  endloop
endfacet
facet normal -0.47642611519943684 -0.8792145112291843 -0.0
  outer loop
    vertex 43.996567263879164 34.54051515279049 141.2
    vertex 43.030456384967806 35.06402841037784 0.0
    vertex 43.996567263879164 34.54051515279049 0.0
  endloop
endfacet
facet normal -0.47642611519943684 -0.8792145112291843 -0.0
  outer loop
    vertex 43.030456384967806 35.06402841037784 0.0
    vertex 43.996567263879164 34.54051515279049 141.2
    vertex 43.030456384967806 35.06402841037784 141.2
  endloop
endfacet
facet normal -0.5926847008681522 0.8054345692586264 0.0
  outer loop
    vertex 51.648437106865465 36.30075368454348 141.2
    vertex 52.39158985607676 36.84760786944774 1.2
    vertex 51.648437106865465 36.30075368454348 1.2
  endloop
endfacet
facet normal -0.5926847008681522 0.8054345692586264 0.0
  outer loop
    vertex 52.39158985607676 36.84760786944774 1.2
    vertex 51.648437106865465 36.30075368454348 141.2
    vertex 52.39158985607676 36.84760786944774 141.2
  endloop
endfacet
facet normal 0.48706348598580046 -0.8733665671522813 0.0
  outer loop
    vertex 52.40725258099361 35.12094130254339 141.2
    vertex 51.44756762240067 34.58573933928927 0.0
    vertex 52.40725258099361 35.12094130254339 0.0
  endloop
endfacet
facet normal 0.48706348598580046 -0.8733665671522813 0.0
  outer loop
    vertex 51.44756762240067 34.58573933928927 0.0
    vertex 52.40725258099361 35.12094130254339 141.2
    vertex 51.44756762240067 34.58573933928927 141.2
  endloop
endfacet
facet normal -0.5828641506685155 -0.812569616627074 -0.0
  outer loop
    vertex 43.030456384967806 35.06402841037784 141.2
    vertex 42.1375771882872 35.704499409998874 0.0
    vertex 43.030456384967806 35.06402841037784 0.0
  endloop
endfacet
facet normal -0.5828641506685155 -0.812569616627074 -0.0
  outer loop
    vertex 42.1375771882872 35.704499409998874 0.0
    vertex 43.030456384967806 35.06402841037784 141.2
    vertex 42.1375771882872 35.704499409998874 141.2
  endloop
endfacet
facet normal -0.983406456286437 0.1814159357227267 0.0
  outer loop
    vertex 39.185860433969616 44.60477548332262 141.2
    vertex 38.9865144190084 43.524174943095254 0.0
    vertex 38.9865144190084 43.524174943095254 141.2
  endloop
endfacet
facet normal -0.983406456286437 0.1814159357227267 0.0
  outer loop
    vertex 38.9865144190084 43.524174943095254 0.0
    vertex 39.185860433969616 44.60477548332262 141.2
    vertex 39.185860433969616 44.60477548332262 0.0
  endloop
endfacet
facet normal -0.9529145568051257 0.3032389279576269 0.0
  outer loop
    vertex 39.51906970595911 45.65187048487731 141.2
    vertex 39.185860433969616 44.60477548332262 0.0
    vertex 39.185860433969616 44.60477548332262 141.2
  endloop
endfacet
facet normal -0.9529145568051257 0.3032389279576269 0.0
  outer loop
    vertex 39.185860433969616 44.60477548332262 0.0
    vertex 39.51906970595911 45.65187048487731 141.2
    vertex 39.51906970595911 45.65187048487731 0.0
  endloop
endfacet
facet normal -0.998389448493571 0.05673190580884314 0.0
  outer loop
    vertex 38.9865144190084 43.524174943095254 141.2
    vertex 38.92417546681496 42.42711058023408 0.0
    vertex 38.92417546681496 42.42711058023408 141.2
  endloop
endfacet
facet normal -0.998389448493571 0.05673190580884314 0.0
  outer loop
    vertex 38.92417546681496 42.42711058023408 0.0
    vertex 38.9865144190084 43.524174943095254 141.2
    vertex 38.9865144190084 43.524174943095254 0.0
  endloop
endfacet
facet normal -0.0060694338115873745 0.9999815808169703 0.0
  outer loop
    vertex 47.071604622654114 51.2094564996144 141.2
    vertex 48.17041847479084 51.216125800404264 0.0
    vertex 47.071604622654114 51.2094564996144 0.0
  endloop
endfacet
facet normal -0.0060694338115873745 0.9999815808169703 0.0
  outer loop
    vertex 48.17041847479084 51.216125800404264 0.0
    vertex 47.071604622654114 51.2094564996144 141.2
    vertex 48.17041847479084 51.216125800404264 141.2
  endloop
endfacet
facet normal -0.48706348598579535 0.8733665671522839 0.0
  outer loop
    vertex 50.84260533576857 35.85135334531556 141.2
    vertex 51.648437106865465 36.30075368454348 1.2
    vertex 50.84260533576857 35.85135334531556 1.2
  endloop
endfacet
facet normal -0.48706348598579535 0.8733665671522839 0.0
  outer loop
    vertex 51.648437106865465 36.30075368454348 1.2
    vertex 50.84260533576857 35.85135334531556 141.2
    vertex 51.648437106865465 36.30075368454348 141.2
  endloop
endfacet
facet normal 0.5926847008681475 -0.8054345692586299 0.0
  outer loop
    vertex 53.29229154437942 35.77220345752366 141.2
    vertex 52.40725258099361 35.12094130254339 0.0
    vertex 53.29229154437942 35.77220345752366 0.0
  endloop
endfacet
facet normal 0.5926847008681475 -0.8054345692586299 0.0
  outer loop
    vertex 52.40725258099361 35.12094130254339 0.0
    vertex 53.29229154437942 35.77220345752366 141.2
    vertex 52.40725258099361 35.12094130254339 141.2
  endloop
endfacet
facet normal -0.24280655511281451 -0.9700747274278657 -0.0
  outer loop
    vertex 46.08662486138961 33.87541163357919 141.2
    vertex 45.02067367933419 34.14221575404068 0.0
    vertex 46.08662486138961 33.87541163357919 0.0
  endloop
endfacet
facet normal -0.24280655511281451 -0.9700747274278657 -0.0
  outer loop
    vertex 45.02067367933419 34.14221575404068 0.0
    vertex 46.08662486138961 33.87541163357919 141.2
    vertex 45.02067367933419 34.14221575404068 141.2
  endloop
endfacet
facet normal 0.5828641506685126 0.8125696166270763 0.0
  outer loop
    vertex 43.025158565093875 36.790757887546015 141.2
    vertex 43.77489463003302 36.25296485938648 1.2
    vertex 43.025158565093875 36.790757887546015 1.2
  endloop
endfacet
facet normal 0.5828641506685126 0.8125696166270763 0.0
  outer loop
    vertex 43.77489463003302 36.25296485938648 1.2
    vertex 43.025158565093875 36.790757887546015 141.2
    vertex 43.77489463003302 36.25296485938648 141.2
  endloop
endfacet
facet normal -0.006069433811598225 0.9999815808169702 0.0
  outer loop
    vertex 47.25719182758345 35.14481926388268 141.2
    vertex 48.17984785615298 35.15041936672827 1.2
    vertex 47.25719182758345 35.14481926388268 1.2
  endloop
endfacet
facet normal -0.006069433811598225 0.9999815808169702 0.0
  outer loop
    vertex 48.17984785615298 35.15041936672827 1.2
    vertex 47.25719182758345 35.14481926388268 141.2
    vertex 48.17984785615298 35.15041936672827 141.2
  endloop
endfacet
facet normal 0.11930935051539278 0.9928571291377202 0.0
  outer loop
    vertex 46.34110933838533 35.2549027830489 141.2
    vertex 47.25719182758345 35.14481926388268 1.2
    vertex 46.34110933838533 35.2549027830489 1.2
  endloop
endfacet
facet normal 0.11930935051539278 0.9928571291377202 0.0
  outer loop
    vertex 47.25719182758345 35.14481926388268 1.2
    vertex 46.34110933838533 35.2549027830489 141.2
    vertex 47.25719182758345 35.14481926388268 141.2
  endloop
endfacet
facet normal -0.13135249954166817 0.9913357256066968 0.0
  outer loop
    vertex 48.17984785615298 35.15041936672827 141.2
    vertex 49.094526587355155 35.27161477461845 1.2
    vertex 48.17984785615298 35.15041936672827 1.2
  endloop
endfacet
facet normal -0.13135249954166817 0.9913357256066968 0.0
  outer loop
    vertex 49.094526587355155 35.27161477461845 1.2
    vertex 48.17984785615298 35.15041936672827 141.2
    vertex 49.094526587355155 35.27161477461845 141.2
  endloop
endfacet
facet normal 0.476426115199436 0.8792145112291847 0.0
  outer loop
    vertex 43.77489463003302 36.25296485938648 141.2
    vertex 44.58612214137238 35.813379335223566 1.2
    vertex 43.77489463003302 36.25296485938648 1.2
  endloop
endfacet
facet normal 0.476426115199436 0.8792145112291847 0.0
  outer loop
    vertex 44.58612214137238 35.813379335223566 1.2
    vertex 43.77489463003302 36.25296485938648 141.2
    vertex 44.58612214137238 35.813379335223566 141.2
  endloop
endfacet
facet normal 0.24280655511281263 0.9700747274278663 0.0
  outer loop
    vertex 45.446047556654364 35.478933841368985 141.2
    vertex 46.34110933838533 35.2549027830489 1.2
    vertex 45.446047556654364 35.478933841368985 1.2
  endloop
endfacet
facet normal 0.24280655511281263 0.9700747274278663 0.0
  outer loop
    vertex 46.34110933838533 35.2549027830489 1.2
    vertex 45.446047556654364 35.478933841368985 141.2
    vertex 46.34110933838533 35.2549027830489 141.2
  endloop
endfacet
facet normal 0.3624745552904885 0.9319936677719237 0.0
  outer loop
    vertex 44.58612214137238 35.813379335223566 141.2
    vertex 45.446047556654364 35.478933841368985 1.2
    vertex 44.58612214137238 35.813379335223566 1.2
  endloop
endfacet
facet normal 0.3624745552904885 0.9319936677719237 0.0
  outer loop
    vertex 45.446047556654364 35.478933841368985 1.2
    vertex 44.58612214137238 35.813379335223566 141.2
    vertex 45.446047556654364 35.478933841368985 141.2
  endloop
endfacet
facet normal 0.6801100702953855 0.733110013765196 0.0
  outer loop
    vertex 42.34873773216961 37.418277102386156 141.2
    vertex 43.025158565093875 36.790757887546015 1.2
    vertex 42.34873773216961 37.418277102386156 1.2
  endloop
endfacet
facet normal 0.6801100702953855 0.733110013765196 0.0
  outer loop
    vertex 43.025158565093875 36.790757887546015 1.2
    vertex 42.34873773216961 37.418277102386156 141.2
    vertex 43.025158565093875 36.790757887546015 141.2
  endloop
endfacet
facet normal -0.3737609889718379 0.9275250525580395 0.0
  outer loop
    vertex 49.986802991196626 35.506494163572206 141.2
    vertex 50.84260533576857 35.85135334531556 1.2
    vertex 49.986802991196626 35.506494163572206 1.2
  endloop
endfacet
facet normal -0.3737609889718379 0.9275250525580395 0.0
  outer loop
    vertex 50.84260533576857 35.85135334531556 1.2
    vertex 49.986802991196626 35.506494163572206 141.2
    vertex 50.84260533576857 35.85135334531556 141.2
  endloop
endfacet
facet normal 0.8410602084048117 0.5409415179463072 0.0
  outer loop
    vertex 41.257187545995095 38.9016497164217 1.2
    vertex 41.75629969186976 38.12562615102699 141.2
    vertex 41.75629969186976 38.12562615102699 1.2
  endloop
endfacet
facet normal 0.8410602084048117 0.5409415179463072 0.0
  outer loop
    vertex 41.75629969186976 38.12562615102699 141.2
    vertex 41.257187545995095 38.9016497164217 1.2
    vertex 41.257187545995095 38.9016497164217 141.2
  endloop
endfacet
facet normal -0.254564057887804 0.967055913808346 0.0
  outer loop
    vertex 49.094526587355155 35.27161477461845 141.2
    vertex 49.986802991196626 35.506494163572206 1.2
    vertex 49.094526587355155 35.27161477461845 1.2
  endloop
endfacet
facet normal -0.254564057887804 0.967055913808346 0.0
  outer loop
    vertex 49.986802991196626 35.506494163572206 1.2
    vertex 49.094526587355155 35.27161477461845 141.2
    vertex 49.986802991196626 35.506494163572206 141.2
  endloop
endfacet
facet normal 0.7666302478356429 0.6420888280475379 0.0
  outer loop
    vertex 41.75629969186976 38.12562615102699 1.2
    vertex 42.34873773216961 37.418277102386156 141.2
    vertex 42.34873773216961 37.418277102386156 1.2
  endloop
endfacet
facet normal 0.7666302478356429 0.6420888280475379 0.0
  outer loop
    vertex 42.34873773216961 37.418277102386156 141.2
    vertex 41.75629969186976 38.12562615102699 1.2
    vertex 41.75629969186976 38.12562615102699 141.2
  endloop
endfacet
endsolid SolderHolder
