solid Untitled-57ba264d
facet normal 0.0 0.0 -1.0
  outer loop
    vertex 37.97955680869988 39.08581195533827 0.0
    vertex 37.89106730331637 32.807485495265034 0.0
    vertex 37.52203337643929 35.95247365749866 0.0
  endloop
endfacet
facet normal 0.0 0.0 -1.0
  outer loop
    vertex 37.89106730331637 32.807485495265034 0.0
    vertex 37.97955680869988 39.08581195533827 0.0
    vertex 39.061509537071856 29.86517321455493 0.0
  endloop
endfacet
facet normal 0.0 0.0 -1.0
  outer loop
    vertex 39.061509537071856 29.86517321455493 0.0
    vertex 37.97955680869988 39.08581195533827 0.0
    vertex 39.232458134282815 41.99396856187247 0.0
  endloop
endfacet
facet normal 0.0 0.0 -1.0
  outer loop
    vertex 39.061509537071856 29.86517321455493 0.0
    vertex 39.232458134282815 41.99396856187247 0.0
    vertex 40.95359637372255 27.326050534897814 0.0
  endloop
endfacet
facet normal 0.0 0.0 -1.0
  outer loop
    vertex 40.95359637372255 27.326050534897814 0.0
    vertex 39.232458134282815 41.99396856187247 0.0
    vertex 41.19535419836695 44.478757410321975 0.0
  endloop
endfacet
facet normal 0.0 0.0 -1.0
  outer loop
    vertex 40.95359637372255 27.326050534897814 0.0
    vertex 41.19535419836695 44.478757410321975 0.0
    vertex 43.43838522217205 25.363154470813683 0.0
  endloop
endfacet
facet normal 0.0 0.0 -1.0
  outer loop
    vertex 43.43838522217205 25.363154470813683 0.0
    vertex 41.19535419836695 44.478757410321975 0.0
    vertex 43.73447687802407 46.37084424697267 0.0
  endloop
endfacet
facet normal 0.0 0.0 -1.0
  outer loop
    vertex 43.43838522217205 25.363154470813683 0.0
    vertex 43.73447687802407 46.37084424697267 0.0
    vertex 46.34654182870625 24.110253145230747 0.0
  endloop
endfacet
facet normal 0.0 0.0 -1.0
  outer loop
    vertex 46.34654182870625 24.110253145230747 0.0
    vertex 43.73447687802407 46.37084424697267 0.0
    vertex 46.67678915873416 47.541286480728154 0.0
  endloop
endfacet
facet normal 0.0 0.0 -1.0
  outer loop
    vertex 46.34654182870625 24.110253145230747 0.0
    vertex 46.67678915873416 47.541286480728154 0.0
    vertex 49.47988012654587 23.652729712970157 0.0
  endloop
endfacet
facet normal 0.0 0.0 -1.0
  outer loop
    vertex 49.47988012654587 23.652729712970157 0.0
    vertex 46.67678915873416 47.541286480728154 0.0
    vertex 49.82177732096779 47.910320407605234 0.0
  endloop
endfacet
facet normal 0.0 0.0 -1.0
  outer loop
    vertex 49.47988012654587 23.652729712970157 0.0
    vertex 49.82177732096779 47.910320407605234 0.0
    vertex 52.624868288779496 24.021763639847237 0.0
  endloop
endfacet
facet normal 0.0 0.0 -1.0
  outer loop
    vertex 52.624868288779496 24.021763639847237 0.0
    vertex 49.82177732096779 47.910320407605234 0.0
    vertex 52.955115618807405 47.45279697534464 0.0
  endloop
endfacet
facet normal 0.0 0.0 -1.0
  outer loop
    vertex 52.624868288779496 24.021763639847237 0.0
    vertex 52.955115618807405 47.45279697534464 0.0
    vertex 55.567180569489594 25.19220587360272 0.0
  endloop
endfacet
facet normal 0.0 0.0 -1.0
  outer loop
    vertex 55.567180569489594 25.19220587360272 0.0
    vertex 52.955115618807405 47.45279697534464 0.0
    vertex 55.86327222534162 46.1998956497617 0.0
  endloop
endfacet
facet normal 0.0 0.0 -1.0
  outer loop
    vertex 55.567180569489594 25.19220587360272 0.0
    vertex 55.86327222534162 46.1998956497617 0.0
    vertex 58.10630324914671 27.084292710253415 0.0
  endloop
endfacet
facet normal 0.0 0.0 -1.0
  outer loop
    vertex 58.10630324914671 27.084292710253415 0.0
    vertex 55.86327222534162 46.1998956497617 0.0
    vertex 58.348061073791115 44.236999585677566 0.0
  endloop
endfacet
facet normal 0.0 0.0 -1.0
  outer loop
    vertex 58.10630324914671 27.084292710253415 0.0
    vertex 58.348061073791115 44.236999585677566 0.0
    vertex 60.06919931323084 29.569081558702912 0.0
  endloop
endfacet
facet normal 0.0 0.0 -1.0
  outer loop
    vertex 60.06919931323084 29.569081558702912 0.0
    vertex 58.348061073791115 44.236999585677566 0.0
    vertex 60.24014791044181 41.69787690602046 0.0
  endloop
endfacet
facet normal 0.0 0.0 -1.0
  outer loop
    vertex 60.06919931323084 29.569081558702912 0.0
    vertex 60.24014791044181 41.69787690602046 0.0
    vertex 61.32210063881377 32.47723816523712 0.0
  endloop
endfacet
facet normal 0.0 0.0 -1.0
  outer loop
    vertex 61.32210063881377 32.47723816523712 0.0
    vertex 60.24014791044181 41.69787690602046 0.0
    vertex 61.41059014419729 38.75556462531035 0.0
  endloop
endfacet
facet normal 0.0 0.0 -1.0
  outer loop
    vertex 61.32210063881377 32.47723816523712 0.0
    vertex 61.41059014419729 38.75556462531035 0.0
    vertex 61.77962407107437 35.610576463076725 0.0
  endloop
endfacet
facet normal 0.9183946067160851 -0.3956657002506124 0.0
  outer loop
    vertex 61.32210063881377 32.47723816523712 0.0
    vertex 60.06919931323084 29.569081558702912 1.75
    vertex 60.06919931323084 29.569081558702912 0.0
  endloop
endfacet
facet normal 0.9183946067160851 -0.3956657002506124 0.0
  outer loop
    vertex 60.06919931323084 29.569081558702912 1.75
    vertex 61.32210063881377 32.47723816523712 0.0
    vertex 61.32210063881377 32.47723816523712 1.75
  endloop
endfacet
facet normal -0.801853851181232 -0.5975202099894422 -0.0
  outer loop
    vertex 39.061509537071856 29.86517321455493 1.75
    vertex 40.95359637372255 27.326050534897814 0.0
    vertex 40.95359637372255 27.326050534897814 1.75
  endloop
endfacet
facet normal -0.801853851181232 -0.5975202099894422 -0.0
  outer loop
    vertex 40.95359637372255 27.326050534897814 0.0
    vertex 39.061509537071856 29.86517321455493 1.75
    vertex 39.061509537071856 29.86517321455493 0.0
  endloop
endfacet
facet normal -0.9931859102400548 -0.11654075553485262 -0.0
  outer loop
    vertex 37.52203337643929 35.95247365749866 1.75
    vertex 37.89106730331637 32.807485495265034 0.0
    vertex 37.89106730331637 32.807485495265034 1.75
  endloop
endfacet
facet normal -0.9931859102400548 -0.11654075553485262 -0.0
  outer loop
    vertex 37.89106730331637 32.807485495265034 0.0
    vertex 37.52203337643929 35.95247365749866 1.75
    vertex 37.52203337643929 35.95247365749866 0.0
  endloop
endfacet
facet normal 0.5975202099894422 -0.801853851181232 0.0
  outer loop
    vertex 58.10630324914671 27.084292710253415 1.75
    vertex 55.567180569489594 25.19220587360272 0.0
    vertex 58.10630324914671 27.084292710253415 0.0
  endloop
endfacet
facet normal 0.5975202099894422 -0.801853851181232 0.0
  outer loop
    vertex 55.567180569489594 25.19220587360272 0.0
    vertex 58.10630324914671 27.084292710253415 1.75
    vertex 55.567180569489594 25.19220587360272 1.75
  endloop
endfacet
facet normal 0.3696251544839628 -0.9291809539442287 0.0
  outer loop
    vertex 55.567180569489594 25.19220587360272 1.75
    vertex 52.624868288779496 24.021763639847237 0.0
    vertex 55.567180569489594 25.19220587360272 0.0
  endloop
endfacet
facet normal 0.3696251544839628 -0.9291809539442287 0.0
  outer loop
    vertex 52.624868288779496 24.021763639847237 0.0
    vertex 55.567180569489594 25.19220587360272 1.75
    vertex 52.624868288779496 24.021763639847237 1.75
  endloop
endfacet
facet normal -0.14448570331125252 -0.9895068880703424 -0.0
  outer loop
    vertex 49.47988012654587 23.652729712970157 1.75
    vertex 46.34654182870625 24.110253145230747 0.0
    vertex 49.47988012654587 23.652729712970157 0.0
  endloop
endfacet
facet normal -0.14448570331125252 -0.9895068880703424 -0.0
  outer loop
    vertex 46.34654182870625 24.110253145230747 0.0
    vertex 49.47988012654587 23.652729712970157 1.75
    vertex 46.34654182870625 24.110253145230747 1.75
  endloop
endfacet
facet normal 0.7846952506329746 -0.619881733586378 0.0
  outer loop
    vertex 60.06919931323084 29.569081558702912 0.0
    vertex 58.10630324914671 27.084292710253415 1.75
    vertex 58.10630324914671 27.084292710253415 0.0
  endloop
endfacet
facet normal 0.7846952506329746 -0.619881733586378 0.0
  outer loop
    vertex 58.10630324914671 27.084292710253415 1.75
    vertex 60.06919931323084 29.569081558702912 0.0
    vertex 60.06919931323084 29.569081558702912 1.75
  endloop
endfacet
facet normal 0.11654075553485262 -0.9931859102400548 0.0
  outer loop
    vertex 52.624868288779496 24.021763639847237 1.75
    vertex 49.47988012654587 23.652729712970157 0.0
    vertex 52.624868288779496 24.021763639847237 0.0
  endloop
endfacet
facet normal 0.11654075553485262 -0.9931859102400548 0.0
  outer loop
    vertex 49.47988012654587 23.652729712970157 0.0
    vertex 52.624868288779496 24.021763639847237 1.75
    vertex 49.47988012654587 23.652729712970157 1.75
  endloop
endfacet
facet normal -0.0 -0.0 1.0
  outer loop
    vertex 37.89106730331637 32.807485495265034 1.75
    vertex 37.97955680869988 39.08581195533827 1.75
    vertex 37.52203337643929 35.95247365749866 1.75
  endloop
endfacet
facet normal -0.0 -0.0 1.0
  outer loop
    vertex 37.97955680869988 39.08581195533827 1.75
    vertex 37.89106730331637 32.807485495265034 1.75
    vertex 39.061509537071856 29.86517321455493 1.75
  endloop
endfacet
facet normal -0.0 -0.0 1.0
  outer loop
    vertex 37.97955680869988 39.08581195533827 1.75
    vertex 39.061509537071856 29.86517321455493 1.75
    vertex 39.232458134282815 41.99396856187247 1.75
  endloop
endfacet
facet normal -0.0 -0.0 1.0
  outer loop
    vertex 39.232458134282815 41.99396856187247 1.75
    vertex 39.061509537071856 29.86517321455493 1.75
    vertex 40.95359637372255 27.326050534897814 1.75
  endloop
endfacet
facet normal -0.0 -0.0 1.0
  outer loop
    vertex 39.232458134282815 41.99396856187247 1.75
    vertex 40.95359637372255 27.326050534897814 1.75
    vertex 41.19535419836695 44.478757410321975 1.75
  endloop
endfacet
facet normal -0.0 -0.0 1.0
  outer loop
    vertex 41.19535419836695 44.478757410321975 1.75
    vertex 40.95359637372255 27.326050534897814 1.75
    vertex 43.43838522217205 25.363154470813683 1.75
  endloop
endfacet
facet normal -0.0 -0.0 1.0
  outer loop
    vertex 41.19535419836695 44.478757410321975 1.75
    vertex 43.43838522217205 25.363154470813683 1.75
    vertex 43.73447687802407 46.37084424697267 1.75
  endloop
endfacet
facet normal -0.0 -0.0 1.0
  outer loop
    vertex 43.73447687802407 46.37084424697267 1.75
    vertex 43.43838522217205 25.363154470813683 1.75
    vertex 46.34654182870625 24.110253145230747 1.75
  endloop
endfacet
facet normal -0.0 -0.0 1.0
  outer loop
    vertex 43.73447687802407 46.37084424697267 1.75
    vertex 46.34654182870625 24.110253145230747 1.75
    vertex 46.67678915873416 47.541286480728154 1.75
  endloop
endfacet
facet normal -0.0 -0.0 1.0
  outer loop
    vertex 46.67678915873416 47.541286480728154 1.75
    vertex 46.34654182870625 24.110253145230747 1.75
    vertex 49.47988012654587 23.652729712970157 1.75
  endloop
endfacet
facet normal -0.0 -0.0 1.0
  outer loop
    vertex 46.67678915873416 47.541286480728154 1.75
    vertex 49.47988012654587 23.652729712970157 1.75
    vertex 49.82177732096779 47.910320407605234 1.75
  endloop
endfacet
facet normal -0.0 -0.0 1.0
  outer loop
    vertex 49.82177732096779 47.910320407605234 1.75
    vertex 49.47988012654587 23.652729712970157 1.75
    vertex 52.624868288779496 24.021763639847237 1.75
  endloop
endfacet
facet normal -0.0 -0.0 1.0
  outer loop
    vertex 49.82177732096779 47.910320407605234 1.75
    vertex 52.624868288779496 24.021763639847237 1.75
    vertex 52.955115618807405 47.45279697534464 1.75
  endloop
endfacet
facet normal -0.0 -0.0 1.0
  outer loop
    vertex 52.955115618807405 47.45279697534464 1.75
    vertex 52.624868288779496 24.021763639847237 1.75
    vertex 55.567180569489594 25.19220587360272 1.75
  endloop
endfacet
facet normal -0.0 -0.0 1.0
  outer loop
    vertex 52.955115618807405 47.45279697534464 1.75
    vertex 55.567180569489594 25.19220587360272 1.75
    vertex 55.86327222534162 46.1998956497617 1.75
  endloop
endfacet
facet normal -0.0 -0.0 1.0
  outer loop
    vertex 55.86327222534162 46.1998956497617 1.75
    vertex 55.567180569489594 25.19220587360272 1.75
    vertex 58.10630324914671 27.084292710253415 1.75
  endloop
endfacet
facet normal -0.0 -0.0 1.0
  outer loop
    vertex 55.86327222534162 46.1998956497617 1.75
    vertex 58.10630324914671 27.084292710253415 1.75
    vertex 58.348061073791115 44.236999585677566 1.75
  endloop
endfacet
facet normal -0.0 -0.0 1.0
  outer loop
    vertex 58.348061073791115 44.236999585677566 1.75
    vertex 58.10630324914671 27.084292710253415 1.75
    vertex 60.06919931323084 29.569081558702912 1.75
  endloop
endfacet
facet normal -0.0 -0.0 1.0
  outer loop
    vertex 58.348061073791115 44.236999585677566 1.75
    vertex 60.06919931323084 29.569081558702912 1.75
    vertex 60.24014791044181 41.69787690602046 1.75
  endloop
endfacet
facet normal -0.0 -0.0 1.0
  outer loop
    vertex 60.24014791044181 41.69787690602046 1.75
    vertex 60.06919931323084 29.569081558702912 1.75
    vertex 61.32210063881377 32.47723816523712 1.75
  endloop
endfacet
facet normal -0.0 -0.0 1.0
  outer loop
    vertex 60.24014791044181 41.69787690602046 1.75
    vertex 61.32210063881377 32.47723816523712 1.75
    vertex 61.41059014419729 38.75556462531035 1.75
  endloop
endfacet
facet normal -0.0 -0.0 1.0
  outer loop
    vertex 61.41059014419729 38.75556462531035 1.75
    vertex 61.32210063881377 32.47723816523712 1.75
    vertex 61.77962407107437 35.610576463076725 1.75
  endloop
endfacet
facet normal -0.36962515448396344 0.9291809539442284 0.0
  outer loop
    vertex 43.73447687802407 46.37084424697267 1.75
    vertex 46.67678915873416 47.541286480728154 0.0
    vertex 43.73447687802407 46.37084424697267 0.0
  endloop
endfacet
facet normal -0.36962515448396344 0.9291809539442284 0.0
  outer loop
    vertex 46.67678915873416 47.541286480728154 0.0
    vertex 43.73447687802407 46.37084424697267 1.75
    vertex 46.67678915873416 47.541286480728154 1.75
  endloop
endfacet
facet normal -0.5975202099894422 0.801853851181232 0.0
  outer loop
    vertex 41.19535419836695 44.478757410321975 1.75
    vertex 43.73447687802407 46.37084424697267 0.0
    vertex 41.19535419836695 44.478757410321975 0.0
  endloop
endfacet
facet normal -0.5975202099894422 0.801853851181232 0.0
  outer loop
    vertex 43.73447687802407 46.37084424697267 0.0
    vertex 41.19535419836695 44.478757410321975 1.75
    vertex 43.73447687802407 46.37084424697267 1.75
  endloop
endfacet
facet normal -0.6198817335863777 -0.7846952506329749 -0.0
  outer loop
    vertex 43.43838522217205 25.363154470813683 1.75
    vertex 40.95359637372255 27.326050534897814 0.0
    vertex 43.43838522217205 25.363154470813683 0.0
  endloop
endfacet
facet normal -0.6198817335863777 -0.7846952506329749 -0.0
  outer loop
    vertex 40.95359637372255 27.326050534897814 0.0
    vertex 43.43838522217205 25.363154470813683 1.75
    vertex 40.95359637372255 27.326050534897814 1.75
  endloop
endfacet
facet normal -0.9895068880703421 0.14448570331125335 0.0
  outer loop
    vertex 37.97955680869988 39.08581195533827 1.75
    vertex 37.52203337643929 35.95247365749866 0.0
    vertex 37.52203337643929 35.95247365749866 1.75
  endloop
endfacet
facet normal -0.9895068880703421 0.14448570331125335 0.0
  outer loop
    vertex 37.52203337643929 35.95247365749866 0.0
    vertex 37.97955680869988 39.08581195533827 1.75
    vertex 37.97955680869988 39.08581195533827 0.0
  endloop
endfacet
facet normal 0.14448570331125363 0.9895068880703421 0.0
  outer loop
    vertex 49.82177732096779 47.910320407605234 1.75
    vertex 52.955115618807405 47.45279697534464 0.0
    vertex 49.82177732096779 47.910320407605234 0.0
  endloop
endfacet
facet normal 0.14448570331125363 0.9895068880703421 0.0
  outer loop
    vertex 52.955115618807405 47.45279697534464 0.0
    vertex 49.82177732096779 47.910320407605234 1.75
    vertex 52.955115618807405 47.45279697534464 1.75
  endloop
endfacet
facet normal 0.39566570025061115 0.9183946067160857 0.0
  outer loop
    vertex 52.955115618807405 47.45279697534464 1.75
    vertex 55.86327222534162 46.1998956497617 0.0
    vertex 52.955115618807405 47.45279697534464 0.0
  endloop
endfacet
facet normal 0.39566570025061115 0.9183946067160857 0.0
  outer loop
    vertex 55.86327222534162 46.1998956497617 0.0
    vertex 52.955115618807405 47.45279697534464 1.75
    vertex 55.86327222534162 46.1998956497617 1.75
  endloop
endfacet
facet normal 0.9291809539442288 0.3696251544839622 0.0
  outer loop
    vertex 60.24014791044181 41.69787690602046 0.0
    vertex 61.41059014419729 38.75556462531035 1.75
    vertex 61.41059014419729 38.75556462531035 0.0
  endloop
endfacet
facet normal 0.9291809539442288 0.3696251544839622 0.0
  outer loop
    vertex 61.41059014419729 38.75556462531035 1.75
    vertex 60.24014791044181 41.69787690602046 0.0
    vertex 60.24014791044181 41.69787690602046 1.75
  endloop
endfacet
facet normal 0.8018538511812304 0.5975202099894441 0.0
  outer loop
    vertex 58.348061073791115 44.236999585677566 0.0
    vertex 60.24014791044181 41.69787690602046 1.75
    vertex 60.24014791044181 41.69787690602046 0.0
  endloop
endfacet
facet normal 0.8018538511812304 0.5975202099894441 0.0
  outer loop
    vertex 60.24014791044181 41.69787690602046 1.75
    vertex 58.348061073791115 44.236999585677566 0.0
    vertex 58.348061073791115 44.236999585677566 1.75
  endloop
endfacet
facet normal 0.9931859102400548 0.11654075553485262 0.0
  outer loop
    vertex 61.41059014419729 38.75556462531035 0.0
    vertex 61.77962407107437 35.610576463076725 1.75
    vertex 61.77962407107437 35.610576463076725 0.0
  endloop
endfacet
facet normal 0.9931859102400548 0.11654075553485262 0.0
  outer loop
    vertex 61.77962407107437 35.610576463076725 1.75
    vertex 61.41059014419729 38.75556462531035 0.0
    vertex 61.41059014419729 38.75556462531035 1.75
  endloop
endfacet
facet normal -0.9183946067160849 0.3956657002506131 0.0
  outer loop
    vertex 39.232458134282815 41.99396856187247 1.75
    vertex 37.97955680869988 39.08581195533827 0.0
    vertex 37.97955680869988 39.08581195533827 1.75
  endloop
endfacet
facet normal -0.9183946067160849 0.3956657002506131 0.0
  outer loop
    vertex 37.97955680869988 39.08581195533827 0.0
    vertex 39.232458134282815 41.99396856187247 1.75
    vertex 39.232458134282815 41.99396856187247 0.0
  endloop
endfacet
facet normal -0.7846952506329743 0.6198817335863782 0.0
  outer loop
    vertex 41.19535419836695 44.478757410321975 1.75
    vertex 39.232458134282815 41.99396856187247 0.0
    vertex 39.232458134282815 41.99396856187247 1.75
  endloop
endfacet
facet normal -0.7846952506329743 0.6198817335863782 0.0
  outer loop
    vertex 39.232458134282815 41.99396856187247 0.0
    vertex 41.19535419836695 44.478757410321975 1.75
    vertex 41.19535419836695 44.478757410321975 0.0
  endloop
endfacet
facet normal 0.9895068880703419 -0.14448570331125538 0.0
  outer loop
    vertex 61.77962407107437 35.610576463076725 0.0
    vertex 61.32210063881377 32.47723816523712 1.75
    vertex 61.32210063881377 32.47723816523712 0.0
  endloop
endfacet
facet normal 0.9895068880703419 -0.14448570331125538 0.0
  outer loop
    vertex 61.32210063881377 32.47723816523712 1.75
    vertex 61.77962407107437 35.610576463076725 0.0
    vertex 61.77962407107437 35.610576463076725 1.75
  endloop
endfacet
facet normal 0.61988173358638 0.784695250632973 0.0
  outer loop
    vertex 55.86327222534162 46.1998956497617 1.75
    vertex 58.348061073791115 44.236999585677566 0.0
    vertex 55.86327222534162 46.1998956497617 0.0
  endloop
endfacet
facet normal 0.61988173358638 0.784695250632973 0.0
  outer loop
    vertex 58.348061073791115 44.236999585677566 0.0
    vertex 55.86327222534162 46.1998956497617 1.75
    vertex 58.348061073791115 44.236999585677566 1.75
  endloop
endfacet
facet normal -0.3956657002506131 -0.9183946067160849 -0.0
  outer loop
    vertex 46.34654182870625 24.110253145230747 1.75
    vertex 43.43838522217205 25.363154470813683 0.0
    vertex 46.34654182870625 24.110253145230747 0.0
  endloop
endfacet
facet normal -0.3956657002506131 -0.9183946067160849 -0.0
  outer loop
    vertex 43.43838522217205 25.363154470813683 0.0
    vertex 46.34654182870625 24.110253145230747 1.75
    vertex 43.43838522217205 25.363154470813683 1.75
  endloop
endfacet
facet normal -0.9291809539442281 -0.3696251544839644 -0.0
  outer loop
    vertex 37.89106730331637 32.807485495265034 1.75
    vertex 39.061509537071856 29.86517321455493 0.0
    vertex 39.061509537071856 29.86517321455493 1.75
  endloop
endfacet
facet normal -0.9291809539442281 -0.3696251544839644 -0.0
  outer loop
    vertex 39.061509537071856 29.86517321455493 0.0
    vertex 37.89106730331637 32.807485495265034 1.75
    vertex 37.89106730331637 32.807485495265034 0.0
  endloop
endfacet
facet normal -0.11654075553485242 0.9931859102400548 0.0
  outer loop
    vertex 46.67678915873416 47.541286480728154 1.75
    vertex 49.82177732096779 47.910320407605234 0.0
    vertex 46.67678915873416 47.541286480728154 0.0
  endloop
endfacet
facet normal -0.11654075553485242 0.9931859102400548 0.0
  outer loop
    vertex 49.82177732096779 47.910320407605234 0.0
    vertex 46.67678915873416 47.541286480728154 1.75
    vertex 49.82177732096779 47.910320407605234 1.75
  endloop
endfacet
endsolid Untitled-57ba264d
